<svg width="154" height="131" viewBox="0 0 154 131" fill="none" xmlns="http://www.w3.org/2000/svg">
<path d="M2.39492 80.4238C3.09046 77.773 4.21247 75.1842 5.53434 72.7841C18.0977 49.9759 31.1334 87.1453 45.2377 82.8548C57.4172 79.1498 60.1006 55.2841 77.754 50.5802C94.8576 46.0226 100.919 65.0454 114.676 67.228C124.82 68.8375 128.196 61.1545 135.344 56.2842C139.863 53.205 144.212 52.4476 149.164 50.5158" stroke="#DEB35C" stroke-width="4" stroke-miterlimit="1.5" stroke-linecap="round" stroke-linejoin="round"/>
<path d="M144.509 59.5274C145.15 56.9279 146.884 54.5981 148.542 52.578C149.522 51.3824 150.516 50.133 151.797 49.2466C147.355 49.6864 143.385 49.4381 139.271 47.5701" stroke="#DEB35C" stroke-width="4" stroke-miterlimit="1.5" stroke-linecap="round" stroke-linejoin="round"/>
</svg>
