<svg width="20" height="21" viewBox="0 0 20 21" fill="none" xmlns="http://www.w3.org/2000/svg">
<path fill-rule="evenodd" clip-rule="evenodd" d="M9.9999 0.235352C4.48602 0.235352 -6.10352e-05 4.72028 -6.10352e-05 10.2353C-6.10352e-05 15.7493 4.48602 20.2348 9.9999 20.2348C15.5138 20.2348 20 15.7493 20 10.2353C20 4.72028 15.5138 0.235352 9.9999 0.235352ZM15.5749 6.90038L9.42106 13.8235C9.26954 13.9934 9.0584 14.081 8.84565 14.081C8.67685 14.081 8.50725 14.0256 8.36534 13.9133L4.51909 10.8359C4.18755 10.5708 4.13378 10.0864 4.39915 9.75415C4.6642 9.42298 5.14874 9.36867 5.48029 9.63426L8.75604 12.2547L14.4249 5.8778C14.7065 5.55953 15.1933 5.53103 15.5107 5.81384C15.8284 6.0961 15.8572 6.58211 15.5749 6.90038Z" fill="#A29BFE"/>
</svg>
