<svg width="504" height="345" viewBox="0 0 504 345" fill="none" xmlns="http://www.w3.org/2000/svg">
<path d="M54.0758 122.804C42.1681 111.082 27.0675 103.278 15.0461 91.7594C14.0235 90.7825 12.2282 92.032 13.0122 93.3157C17.1822 100.074 20.8295 106.424 25.9653 112.513C31.2488 118.749 35.862 125.587 40.9637 131.983C50.2581 143.637 58.2004 155.69 68.5288 166.47C74.0168 172.206 78.8231 178.533 83.1521 185.156C87.5153 191.835 94.2645 197.083 99.8548 202.74C104.854 207.806 110.694 212.123 116.739 215.917C120.693 218.393 127.42 223.709 132.692 223.073C133.306 223.573 133.919 224.05 134.476 224.629C135.635 225.856 136.93 226.969 137.976 228.31C138.589 229.105 139.884 227.833 139.078 227.208C137.601 226.072 136.294 224.629 135.01 223.278C134.839 223.107 134.692 222.96 134.521 222.812C135.021 222.448 135.214 221.665 134.896 221.119C132.76 217.28 129.545 214.043 127.102 210.396C122.648 203.785 117.921 197.242 112.978 190.983C104.013 179.612 96.1507 167.39 86.6972 156.394C76.6642 144.705 65.0519 133.619 54.0758 122.804Z" fill="#006347"/>
<path d="M51.2124 120.123C51.2124 120.123 51.1102 120.021 51.0533 119.964C49.3263 121.464 47.3151 122.77 46.1789 123.656C43.7814 125.508 41.4067 127.518 39.1797 129.654C39.3956 129.938 39.6001 130.211 39.8273 130.483C43.1679 127.416 46.3834 124.224 49.8149 121.248C50.2353 120.873 50.7352 120.51 51.2351 120.123L51.2124 120.123ZM62.7111 131.278C62.4839 131.051 62.268 130.835 62.0408 130.608C60.2455 132.812 58.2571 134.868 56.2346 136.844C53.9621 139.071 51.5078 140.684 49.1899 142.683C49.3263 142.865 49.4626 143.047 49.599 143.228C52.36 140.854 55.3824 138.832 58.0526 136.254C59.666 134.709 61.2568 133.05 62.6998 131.267L62.7111 131.278ZM33.5099 106.424C33.0099 106.061 32.5213 105.708 32.0214 105.345C29.7716 107.458 27.6355 109.73 25.2722 111.638C25.4426 111.854 25.6017 112.058 25.7835 112.263C27.9537 110.638 30.1807 109.094 32.2714 107.412C32.6577 107.094 33.0895 106.754 33.5099 106.424ZM21.1362 97.1208C20.0455 98.5067 19.0228 99.9606 17.9093 101.256C18.1593 101.642 18.3979 102.017 18.6479 102.403C19.9546 101.028 21.1817 99.5744 22.4316 98.1659C21.9998 97.8251 21.568 97.4616 21.1362 97.1208ZM117.16 216.178C117.728 216.541 118.353 216.962 119.012 217.393C119.921 216.485 120.739 215.553 121.466 214.735C123.091 212.906 124.727 211.112 126.329 209.26C125.909 208.635 125.477 208.022 125.056 207.397C124.227 208.317 123.375 209.215 122.523 210.089C121.034 211.577 119.205 213.974 117.16 216.155L117.16 216.178ZM60.1205 156.86C64.8586 152.259 69.9149 147.886 74.528 143.137C74.1303 142.74 73.7326 142.342 73.3577 141.945C68.6196 146.545 64.2678 151.577 59.666 156.314C59.8024 156.496 59.9614 156.678 60.0978 156.859L60.1205 156.86ZM79.9592 164.198C77.5163 166.481 74.9257 168.571 72.3578 170.684C72.7782 171.172 73.1759 171.683 73.5963 172.172C78.9252 168.117 83.6406 163.062 88.0719 158.018C87.7879 157.666 87.4924 157.303 87.197 156.962C84.7768 159.381 82.4135 161.903 79.9706 164.186L79.9592 164.198ZM59.3138 127.95C59.1433 127.78 58.9729 127.609 58.8025 127.439C54.8029 131.437 50.7011 135.379 46.0653 138.537C46.2357 138.753 46.4061 138.991 46.5766 139.207C51.2579 136.072 55.3824 132.085 59.3251 127.939L59.3138 127.95ZM85.5154 168.366C82.8907 170.559 80.0274 173.898 76.9368 176.375C77.3231 176.875 77.6867 177.374 78.0503 177.874C81.7544 175.193 85.2654 171.365 88.0378 168.889C89.6967 167.39 91.3216 165.72 92.8555 163.959C92.4237 163.391 91.9806 162.834 91.5374 162.278C89.674 164.413 87.7538 166.492 85.5381 168.366L85.5154 168.366ZM109.876 211.282C110.104 211.441 110.342 211.611 110.569 211.77C114.183 208.499 117.716 205.171 120.909 201.524C120.659 201.184 120.409 200.82 120.159 200.479C118.796 202.138 117.41 203.774 116.023 205.341C114.114 207.499 111.99 209.396 109.876 211.282ZM97.9572 190.12C101.445 188.427 104.65 186.314 107.513 183.815C107.286 183.52 107.07 183.213 106.831 182.906C104.07 185.53 101.286 188.086 97.764 189.79C97.5481 189.892 97.7299 190.233 97.9572 190.12Z" fill="#A7D4BD"/>
<path d="M122.957 59.7874C117.54 40.1826 106.372 22.7665 100.711 3.3081C100.227 1.65592 97.5741 1.88077 97.6191 3.71109C97.9003 13.3741 97.8795 22.2878 99.5869 31.832C101.36 41.6216 102.06 51.6381 103.545 61.4848C106.248 79.4275 107.283 96.9666 111.609 114.616C113.902 124.004 115.117 133.599 115.649 143.215C116.182 152.911 120.102 162.551 122.552 171.917C124.738 180.3 128.267 188.405 132.33 196.083C134.991 201.1 138.845 210.797 144.791 213.335C145.133 214.235 145.49 215.112 145.724 216.061C146.199 218.06 146.887 220.022 147.173 222.071C147.335 223.282 149.476 222.729 149.005 221.58C148.14 219.483 147.641 217.167 147.11 214.961C147.034 214.678 146.968 214.432 146.878 214.173C147.627 214.094 148.308 213.385 148.304 212.616C148.39 207.269 146.971 201.899 146.615 196.568C145.945 186.888 144.945 177.114 143.545 167.508C141.017 150.065 140.169 132.395 136.897 115.05C133.437 96.6217 127.944 77.8673 122.957 59.7874Z" fill="#006347"/>
<path d="M121.57 55.2182C121.57 55.2182 121.524 55.0481 121.499 54.9537C118.765 55.4835 115.85 55.6369 114.112 55.8796C110.458 56.3728 106.73 57.0474 103.082 57.9436C103.136 58.3744 103.186 58.7863 103.26 59.212C108.649 58.0113 113.982 56.6029 119.412 55.5533C120.083 55.414 120.832 55.3349 121.594 55.232L121.57 55.2182ZM126.901 73.9753C126.8 73.5975 126.703 73.2386 126.602 72.8608C123.368 74.0917 120.02 75.0492 116.684 75.9023C112.933 76.8667 109.363 77.0737 105.702 77.771C105.736 78.0456 105.769 78.3202 105.802 78.5947C110.158 77.772 114.575 77.4795 118.96 76.3858C121.602 75.7389 124.289 74.9585 126.896 73.9564L126.901 73.9753ZM111.248 30.0034C110.942 29.3159 110.641 28.6474 110.335 27.9599C106.677 28.8184 103.042 29.9137 99.3884 30.4875C99.4367 30.8187 99.4799 31.1311 99.5471 31.4573C102.824 31.0653 106.112 30.7918 109.34 30.2916C109.941 30.1913 110.604 30.0948 111.248 30.0034ZM103.867 12.6658C101.873 13.4631 99.9097 14.3737 97.9474 15.0614C97.9757 15.6206 97.9991 16.1611 98.0275 16.7203C100.242 16.0664 102.421 15.2802 104.596 14.5558C104.348 13.9338 104.114 13.2879 103.867 12.6658ZM132.613 196.613C132.991 197.342 133.394 198.166 133.826 199.022C135.338 198.617 136.767 198.133 138.032 197.713C140.858 196.774 143.676 195.877 146.492 194.9C146.429 193.986 146.348 193.076 146.285 192.162C144.85 192.627 143.405 193.054 141.974 193.458C139.499 194.121 136.111 195.535 132.627 196.589L132.613 196.613ZM108.595 99.368C116.391 97.401 124.384 95.8672 132.139 93.6685C131.961 93.0074 131.784 92.3463 131.631 91.6989C123.835 93.6659 116.183 96.3229 108.448 98.5166C108.481 98.7911 108.538 99.0795 108.571 99.3541L108.595 99.368ZM125.042 119.176C121.077 120.097 117.073 120.724 113.079 121.389C113.225 122.16 113.333 122.94 113.479 123.711C121.566 122.679 129.615 120.219 137.357 117.598C137.272 117.054 137.182 116.491 137.078 115.952C133.054 117.03 129.027 118.251 125.061 119.171L125.042 119.176ZM125.346 68.3991C125.27 68.1157 125.194 67.8324 125.118 67.5491C118.467 69.3307 111.743 70.9903 104.933 71.4985C104.981 71.8298 105.015 72.185 105.064 72.5162C111.908 72.0596 118.684 70.3659 125.365 68.394L125.346 68.3991ZM128.362 126.952C124.26 127.666 119.208 129.445 114.442 130.175C114.545 130.937 114.624 131.685 114.703 132.433C120.24 131.861 126.272 129.962 130.703 129.038C133.365 128.467 136.094 127.695 138.783 126.772C138.674 125.911 138.546 125.054 138.417 124.198C135.153 125.315 131.863 126.338 128.386 126.966L128.362 126.952ZM127.916 187.02C128.059 187.326 128.206 187.651 128.349 187.957C134.15 186.706 139.902 185.348 145.488 183.447C145.432 182.935 145.39 182.4 145.334 181.889C142.887 182.807 140.429 183.688 138.013 184.497C134.687 185.611 131.292 186.318 127.916 187.02ZM128.234 157.457C132.942 157.795 137.607 157.517 142.147 156.625C142.087 156.175 142.046 155.721 141.982 155.252C137.473 156.338 132.982 157.339 128.231 156.992C127.942 156.968 127.926 157.438 128.234 157.457Z" fill="#A7D4BD"/>
<path d="M258.028 193.52C260.615 194.018 262.961 195.271 264.584 197.183C267.348 200.444 269.791 204.01 268.714 208.749C268.553 209.472 268.602 210.243 268.505 210.982C267.862 215.818 266.207 220.219 263.219 224.139C260.84 227.272 258.655 230.549 256.373 233.746C255.811 234.533 255.281 235.352 254.59 236.011C251.649 238.774 248.965 241.81 245.88 244.445C243.695 246.308 241.526 248.171 239.356 250.051C238.376 250.886 237.412 251.69 236.127 252.059C235.419 252.268 234.729 252.637 234.15 253.087C232.045 254.774 229.619 255.866 227.208 256.991C225.376 257.842 223.545 258.726 221.681 259.481C220.636 259.899 219.608 260.654 218.338 260.22C218.194 260.22 218.033 260.188 217.888 260.172C218.049 260.188 218.226 260.204 218.387 260.236C217.985 261.103 217.165 261.36 216.362 261.682C215.382 262.083 214.353 262.453 213.421 262.951C208.81 265.441 204.005 267.529 199.249 269.698C198.992 269.81 198.799 270.1 198.574 270.324C198.943 271.32 199.634 271.995 200.454 272.509C203.507 274.405 205.676 277.232 208.215 279.658C208.376 279.802 208.536 279.963 208.617 280.156C210.191 283.658 213.084 286.469 214.209 290.196C215.317 293.843 217.069 297.361 216.892 301.329C216.86 301.972 216.989 302.614 217.037 303.241C217.101 304.204 217.181 305.168 217.197 306.116C217.197 306.743 217.23 307.433 217.021 308.012C216.169 310.277 216.41 312.799 215.092 315C213.261 318.068 210.657 319.048 206.817 317.538C203.475 316.205 200.309 314.422 197.449 312.092C194.653 309.795 191.455 308.012 188.531 305.859C186.377 304.285 184.24 302.63 182.36 300.767C179.018 297.473 175.724 294.1 172.687 290.518C171.048 288.574 169.762 286.309 168.091 284.365C167.256 283.385 166.372 282.453 165.52 281.505L165.408 281.473L165.568 281.554C165.536 282.292 165.456 283.048 165.472 283.786C165.568 286.774 165.665 289.746 165.809 292.734C165.858 293.907 165.97 295.064 166.083 296.22C166.436 299.931 166.822 303.658 167.175 307.369C167.272 308.333 167.272 309.297 167.32 310.245C167.448 312.59 167.272 314.952 167.882 317.265C168.107 318.084 168.188 318.984 168.075 319.819C167.706 322.518 168.155 325.153 168.445 327.803C168.734 330.374 168.075 332.912 168.107 335.482C168.107 335.675 167.931 335.868 167.834 336.044C167.513 336.671 166.693 336.799 166.243 336.253C165.086 334.839 164.106 333.313 163.447 331.594C162.58 329.297 161.856 326.936 161.551 324.494C160.941 319.739 159.88 315.064 159.414 310.261C159.077 306.662 158.546 303.064 158.032 299.482C157.663 296.943 157.213 294.485 157.357 291.883C157.502 289.232 157.148 286.55 156.988 283.883C156.972 283.578 156.891 283.256 156.506 283.128C156.024 282.967 155.638 283.16 155.413 283.546C153.453 286.919 150.624 289.602 148.053 292.429C145.113 295.658 142.445 299.176 138.958 301.891C137.866 302.743 136.805 303.706 136.034 304.831C133.559 308.478 129.944 310.791 126.489 313.265C124.464 314.711 122.006 315.225 119.563 315.61C117.876 315.883 116.221 316.108 114.502 315.61C111.802 314.807 109.794 313.136 108.122 310.968C107.817 310.566 107.608 310.02 107.528 309.506C106.901 305.361 106.612 301.249 108.508 297.297C108.878 296.526 109.054 295.674 109.392 294.887C110.019 293.409 110.726 291.979 111.899 290.823C112.734 290.003 113.425 289.04 114.02 288.011C114.502 287.176 115.032 286.341 115.691 285.666C118.455 282.855 121.299 280.092 124.095 277.312C124.48 276.943 124.882 276.574 125.155 276.124C126.039 274.694 127.132 273.618 128.867 273.296C129.173 273.248 129.494 273.071 129.703 272.847C130.121 272.429 130.876 272.108 130.603 271.337C130.394 270.758 129.735 270.822 129.237 270.678C126.859 269.923 124.368 269.955 121.942 269.618C118.953 269.216 116.06 268.509 113.184 267.722C105.535 265.634 98.1919 262.678 91.0252 259.336C88.1167 257.987 85.0797 256.975 82.1874 255.577C76.8846 253.007 71.8069 250.051 66.8095 246.935C65.7168 246.26 64.6563 245.537 63.5315 244.91C62.6798 244.428 61.9407 243.834 61.2979 243.111C58.0359 239.416 54.3562 236.139 50.7889 232.766C49.632 231.657 48.5875 230.436 47.5109 229.248C47.2216 228.942 46.9324 228.573 46.8199 228.171C46.0647 225.569 44.5381 223.336 43.1723 221.055C41.6136 218.452 41.1798 215.689 41.0351 212.781C40.8745 209.745 41.7261 207.078 43.799 204.829C44.0882 204.508 44.4257 204.235 44.6346 203.866C46.9324 199.946 50.4675 197.681 54.6615 196.315C56.6862 195.657 58.6144 194.741 60.6712 194.098C64.7366 192.829 68.802 192.508 72.9799 193.215C74.2494 193.424 75.5349 193.52 76.8043 193.665C77.2221 193.713 77.7524 193.616 78.0737 193.809C80.1788 195.191 82.573 194.95 84.8869 195.143C85.3047 195.175 85.7546 195.207 86.1403 195.367C88.8238 196.46 91.6197 197.151 94.4318 197.777C95.0745 197.922 95.6369 198.195 96.1511 198.596C98.6257 200.54 101.518 201.633 104.411 202.725C104.812 202.87 105.198 203.046 105.584 203.239C108.845 204.846 112.172 206.372 115.353 208.074C119.563 210.324 123.934 212.46 127.292 216.059C127.501 216.283 127.839 216.38 128.096 216.524C128.257 216.364 128.514 216.203 128.498 216.107C127.437 211.191 127.019 206.211 127.068 201.183C127.068 200.331 126.875 199.48 126.81 198.629C126.682 197.038 126.409 195.464 126.714 193.841C126.891 192.926 126.746 191.914 126.634 190.966C126.441 189.472 126.634 187.978 126.585 186.5C126.505 183.849 127.019 181.231 126.73 178.564C126.553 176.99 126.666 175.351 126.843 173.761C127.132 171.11 127.582 168.475 127.967 165.841C128.032 165.423 128.128 164.989 128.112 164.572C127.903 160.572 129.012 156.732 129.478 152.829C129.671 151.142 130.201 149.487 130.667 147.849C131.711 144.138 133.045 140.539 135.022 137.214C135.568 136.298 136.211 135.431 136.869 134.595C138.46 132.587 140.148 130.644 141.69 128.587C145.37 123.704 150.014 119.977 155.461 117.31C158.466 115.848 161.696 115.077 165.118 116.202C166.227 116.571 167.432 116.635 168.589 116.828C171.482 117.326 173.635 118.418 175.836 120.507C176.463 121.101 177.058 121.712 177.716 122.242C182.698 126.194 184.787 131.784 186.265 137.632C186.924 140.202 187.358 142.869 187.277 145.568C187.261 146.098 187.293 146.644 187.438 147.158C188.258 150.178 188.225 153.311 188.37 156.395C188.611 161.198 188.659 166.018 188.691 170.837C188.691 172.974 188.338 175.11 188.402 177.231C188.531 181.183 187.92 185.102 187.775 189.038C187.679 191.576 186.972 194.082 186.57 196.604C186.361 197.874 186.185 199.143 186.072 200.412C185.911 202.339 185.847 204.267 184.658 205.922C184.417 206.259 184.208 206.693 184.176 207.111C183.887 210.307 182.714 213.36 182.666 216.589C182.666 216.669 182.778 216.749 182.842 216.83C183.517 216.83 184.031 216.412 184.514 216.042C187.486 213.777 190.941 212.203 193.689 209.601C194.139 209.183 194.781 208.91 195.376 208.701C196.613 208.283 197.722 207.657 198.702 206.821C198.943 206.613 199.184 206.356 199.474 206.259C202.382 205.311 204.551 203.143 207.138 201.665C207.781 201.295 208.456 200.958 209.147 200.669C211.798 199.576 214.482 198.532 217.117 197.408C219.222 196.524 221.504 196.54 223.689 196.058C224.621 195.849 225.553 195.769 226.405 195.239C228.189 194.114 230.326 194.58 232.238 193.986C232.945 193.761 233.748 193.809 234.423 193.536C237.444 192.315 240.674 192.139 243.84 191.737C246.17 191.432 248.516 191.416 250.862 191.914C252.629 192.299 254.445 192.476 256.245 192.717C256.903 192.797 257.498 192.942 257.932 193.488L257.884 193.456L258.028 193.52ZM116.912 262.758L117.008 262.613H116.864L116.912 262.758ZM130.329 156.54L130.474 156.652L130.506 156.491L130.329 156.54Z" fill="#FFA98C"/>
<path d="M101.245 237.296C103.237 238.051 105.278 238.71 107.126 239.802C108.219 240.445 109.408 240.911 110.741 241.103C110.741 239.609 111.031 238.164 110.677 236.895C109.809 233.778 109.633 230.581 109.134 227.416C108.427 222.902 107.849 218.308 108.122 213.697C108.203 212.428 108.427 211.159 108.652 209.89C108.797 209.103 109.215 208.509 110.115 208.444C110.87 208.396 111.416 208.83 111.641 209.794C111.85 210.725 112.043 211.689 112.075 212.637C112.188 216.284 113.087 219.818 113.65 223.4C114.164 226.677 114.903 229.89 115.626 233.119C116.398 236.557 116.751 240.075 117.233 243.577C117.346 244.381 117.522 245.055 118.294 245.393C124.271 248.011 130.233 250.63 136.5 252.525C137.062 252.702 137.448 252.172 137.207 251.529C136.532 249.618 135.777 247.722 135.375 245.73C135.053 244.156 134.668 242.597 134.363 241.023C133.479 236.509 131.695 232.22 131.117 227.625C131.068 227.208 130.827 226.79 130.86 226.372C130.94 224.894 130.185 223.432 130.795 221.955C132.579 222.613 132.659 224.445 133.173 225.826C134.748 230.019 136.355 234.212 137.689 238.501C139.296 243.706 141.144 248.83 143.602 253.73C143.972 254.453 144.389 254.951 145.113 255.256C146.687 255.931 148.23 256.718 149.981 256.815C152.135 256.927 154.191 257.409 156.264 257.987C157.694 258.389 158.08 258.084 157.968 256.75C157.823 255.047 157.646 253.345 157.486 251.642C156.955 246.324 156.152 241.007 156.007 235.69C155.911 231.738 154.995 227.85 155.381 223.882C155.477 222.934 155.268 221.971 155.139 221.007C155.091 220.589 154.947 220.123 154.465 220.011C152.199 219.513 150.496 217.987 148.616 216.798C146.896 215.705 145.209 214.581 143.506 213.489C140.79 211.754 138.299 209.713 136.21 207.288C134.25 205.006 132.097 202.934 130.008 200.798C129.719 200.492 129.462 200.139 129.22 199.786C129.044 199.528 128.899 199.207 129.22 198.966C129.365 198.854 129.67 198.79 129.799 198.87C131.808 200.107 134.17 200.701 135.953 202.276C139.874 205.762 144.277 208.605 148.583 211.593C150.335 212.814 151.974 214.211 153.645 215.529C153.902 215.738 154.159 215.882 154.497 215.754C154.866 215.609 154.915 215.256 154.915 214.966C154.931 212.717 154.915 210.484 154.915 208.235C154.947 203.545 154.979 198.854 155.027 194.179C155.027 192.605 154.898 192.203 153.452 191.818C151.492 191.32 150.014 190.163 148.648 188.781C147.443 187.56 146.27 186.323 145.048 185.135C144.438 184.54 143.843 183.882 143.104 183.48C140.485 182.082 138.556 179.93 136.741 177.697C135.134 175.705 133.559 173.681 131.727 171.881C130.779 170.95 130.506 169.793 131.004 169.359C131.759 168.701 132.675 168.942 133.447 169.247C135.568 170.082 137.319 171.496 138.926 173.054C141.304 175.351 143.65 177.633 146.43 179.464C148.294 180.685 149.853 182.356 151.363 184.026C152.199 184.942 152.842 186.131 154.127 186.58C155.445 185.456 154.625 183.978 154.625 182.709C154.625 179.817 154.432 176.942 155.027 174.082C155.252 173.022 155.027 172.074 154.031 171.255C148.294 166.516 143.923 160.588 139.617 154.612C138.492 153.054 137.367 151.496 136.307 149.889C135.648 148.909 135.086 147.881 134.491 146.869C134.154 146.307 133.88 145.664 134.363 145.086C134.893 144.459 135.536 144.813 136.082 145.15C137.351 145.937 138.54 146.789 139.537 147.961C141.336 150.082 143.265 152.09 144.984 154.275C146.028 155.608 147.169 156.893 148.551 157.937C149.66 158.773 150.576 159.833 151.347 161.006C151.99 161.986 152.826 162.837 153.597 163.705C153.87 164.01 154.24 164.299 154.722 164.074C155.172 163.865 155.204 163.383 155.236 162.982C155.445 160.315 155.622 157.664 155.798 154.998C155.847 154.243 155.847 153.504 155.927 152.749C156.136 150.692 156.329 148.652 154.207 147.335C152.874 144.54 150.528 142.371 149.339 139.512C148.744 138.098 147.925 136.893 146.928 135.752C145.032 133.6 144.148 130.965 143.538 128.234C143.474 127.929 143.457 127.608 143.474 127.286C143.474 126.756 144.116 126.29 144.598 126.467C144.984 126.612 145.434 126.756 145.723 127.029C146.253 127.56 146.752 128.138 147.121 128.78C148.375 131.046 149.917 133.086 151.733 134.901C152.504 135.672 153.018 136.556 153.34 137.616C153.677 138.708 154.191 139.785 155.011 140.652C155.381 141.038 155.718 141.632 156.264 141.536C157.18 141.375 156.779 140.524 156.827 139.961C157.1 136.556 157.582 133.166 157.903 129.76C158.241 126.049 159.269 122.403 160.667 118.917C160.86 118.435 161.005 117.824 161.663 117.808C162.499 117.792 162.611 118.547 162.836 119.11C163.206 120.025 163.174 121.005 163.11 121.969C162.949 124.845 162.756 127.72 162.628 130.612C162.499 133.793 162.435 136.989 162.322 140.17C162.29 141.134 162.162 142.082 162.049 143.03C161.294 149.616 160.699 156.203 160.667 162.837C160.667 165.488 160.394 168.138 160.33 170.805C160.217 175.496 159.96 180.171 159.976 184.878C159.992 190.404 160.105 195.962 159.783 201.504C159.526 205.954 159.43 210.452 159.703 214.934C159.832 217.167 159.719 219.416 159.767 221.649C159.816 224.653 159.944 227.625 160.265 230.613C160.426 232.091 160.539 233.585 160.378 235.095C160.169 237.007 160.683 238.903 160.715 240.83C160.78 244.782 161.23 248.718 161.535 252.67C161.599 253.521 161.728 254.373 161.84 255.224C162.354 258.823 162.869 262.405 162.82 266.068C162.772 271.514 163.029 276.959 163.447 282.405C163.543 283.787 163.704 285.2 163.174 286.534C163.029 286.903 162.788 287.369 162.258 287.257C161.985 287.209 161.647 287.048 161.487 286.823C160.86 285.939 160.458 284.96 160.394 283.851C160.281 281.714 160.073 279.594 160.024 277.457C159.944 274.341 159.414 271.305 158.964 268.236C158.867 267.594 158.257 267.401 157.791 267.819C157.71 267.883 157.63 267.963 157.566 268.044C154.898 271.546 151.428 274.277 148.519 277.554C146.607 279.706 144.438 281.618 142.365 283.626C141.899 284.076 141.352 284.429 140.935 284.911C137.737 288.67 133.929 291.787 130.394 295.209C126.328 299.144 121.877 302.63 117.587 306.309C116.333 307.386 114.887 308.028 113.2 307.996C113.023 307.996 112.766 307.851 112.686 307.691C112.589 307.53 112.589 307.209 112.686 307.096C113.152 306.518 113.666 305.988 114.196 305.458C115.305 304.333 116.526 303.305 117.281 301.57C115.08 301.634 113.12 301.249 111.159 300.847C110.629 300.735 110.099 300.638 109.6 300.478C109.054 300.301 108.701 299.867 108.717 299.289C108.733 298.598 109.07 298.036 109.729 297.779C110.741 297.393 111.818 297.329 112.895 297.458C114.807 297.683 116.719 297.811 118.615 298.132C120.126 298.406 121.299 298.036 122.439 297.056C125.284 294.598 127.758 291.803 130.41 289.152C130.602 288.96 130.747 288.542 130.667 288.301C130.602 288.092 130.201 287.883 129.944 287.867C127.501 287.674 125.043 287.61 122.6 287.305C121.025 287.112 119.467 286.63 117.924 286.245C117.506 286.132 117.185 285.811 117.153 285.329C117.105 284.702 117.49 284.397 118.037 284.188C119.065 283.787 120.126 283.755 121.202 283.819C122.263 283.883 123.339 284.028 124.4 284.012C127.308 284.012 130.152 284.478 132.948 285.2C133.784 285.409 134.346 285.2 134.957 284.638C137.191 282.502 139.456 280.397 141.738 278.309C142.991 277.152 144.277 276.028 145.53 274.855C145.675 274.726 145.771 274.485 145.771 274.309C145.771 273.923 145.418 273.779 145.113 273.779C143.297 273.779 141.481 273.779 139.649 273.779C137.48 273.779 135.391 273.329 133.382 272.542C132.997 272.397 132.643 272.14 132.322 271.883C131.952 271.578 132.097 270.678 132.547 270.501C132.836 270.373 133.157 270.212 133.447 270.244C135.777 270.485 138.139 270.18 140.469 270.726C142.991 271.321 145.562 271.273 148.133 271.273C149.049 271.273 149.821 270.983 150.528 270.485C151.122 270.052 151.749 269.586 152.199 269.007C153.902 266.823 156.393 265.409 158.016 263.16C157.775 262.903 157.646 262.646 157.486 262.614C155.702 262.228 153.934 261.794 152.135 261.554C149.178 261.152 146.221 260.879 143.441 259.545C141.931 258.823 140.163 258.662 138.54 258.164C134.877 257.023 131.213 255.867 127.565 254.646C126.36 254.244 125.235 253.586 124.062 253.071C122.102 252.204 120.222 251.192 118.165 250.565C115.578 249.794 113.28 248.365 110.918 247.128C107.126 245.152 103.446 242.983 99.4129 241.537C98.3202 241.152 97.3561 240.413 96.3116 239.883C93.0014 238.164 89.8359 236.139 86.2686 234.935C82.6049 232.332 78.3145 230.79 74.6187 228.236C72.2405 226.597 69.6052 225.424 67.2592 223.689C60.5424 218.742 54.0024 213.601 48.6033 207.143C48.4747 206.982 48.3623 206.806 48.2819 206.613C48.2498 206.533 48.2498 206.356 48.298 206.324C48.4587 206.227 48.7158 206.067 48.8283 206.115C49.471 206.484 50.162 206.822 50.6922 207.32C54.2434 210.581 58.341 213.135 62.1493 216.075C62.5671 216.396 63.0331 216.685 63.5312 216.878C63.8526 217.007 64.19 216.766 64.174 216.428C64.1418 215.898 64.0294 215.368 63.8526 214.87C61.9404 209.697 61.2334 204.332 61.2816 198.838C61.2816 198.099 61.2173 197.328 61.7154 196.685C61.9404 196.396 62.5992 196.283 62.8563 196.54C63.483 197.167 63.7401 197.954 63.9169 198.822C64.5596 201.842 65.2506 204.862 65.9415 207.882C66.1504 208.814 66.4075 209.762 66.745 210.661C67.7252 213.264 68.5608 215.914 69.0107 218.677C69.2838 220.316 70.1837 221.36 71.5978 222.099C74.1527 223.432 76.6755 224.83 79.2465 226.147C80.5642 226.822 81.6729 227.947 83.2155 228.204C83.6333 228.268 84.035 228.396 84.6778 228.541C84.9027 226.806 84.3725 225.264 83.9868 223.802C82.0907 216.701 81.8979 209.472 82.0103 202.211C82.0264 201.135 82.155 200.075 82.6531 199.095C82.8459 198.725 83.2155 198.404 83.6815 198.516C83.9707 198.597 84.3082 198.79 84.4367 199.03C85.3366 200.878 85.6098 202.902 85.8347 204.926C86.3168 209.183 86.9274 213.408 88.004 217.553C88.6146 219.93 89.5466 222.228 90.1894 224.589C90.7036 226.437 91.1696 228.332 91.3624 230.244C91.507 231.754 92.214 232.573 93.4513 233.2C95.8456 234.388 98.2238 235.593 100.586 236.814C100.859 236.959 101.068 237.232 101.309 237.441L101.132 237.312L101.277 237.344L101.245 237.296Z" fill="#E4DCCF"/>
<path d="M475.318 74.8728C463.025 73.8286 451.648 79.3388 442.071 86.5678C438.617 66.439 421.23 51.5311 400.983 49.9407C380.592 48.3503 355.959 60.2381 357.71 83.644C358.658 96.2707 366.436 106.697 375.289 115.179C366.918 122.665 359.076 131.243 353.356 140.866C348.422 149.171 345.562 159.388 350.495 168.368C362.531 190.312 387.052 166.392 396.002 153.123C403.812 174.633 426.324 187.678 449.029 182.939C459.426 180.77 469.581 175.035 468.183 163.003C467.557 157.589 465.484 151.484 462.736 146.745C461.916 145.332 460.888 144.063 459.715 143.051C477.487 143.083 495.05 134.247 501.333 116.496C508.082 97.4756 495.725 76.6078 475.334 74.8728H475.318Z" fill="#E4DCCF"/>
<path d="M433.571 96.0616C424.508 89.1217 411.943 88.704 402.703 95.5475C393.672 102.23 390.25 114.134 394.492 124.576C399.329 136.48 413.196 142.118 425.087 137.492C425.28 137.412 425.408 137.283 425.489 137.122C431.804 136.4 437.765 132.705 440.899 126.889C446.507 116.431 442.762 103.13 433.571 96.0776V96.0616Z" fill="#ED4428"/>
<path d="M412.553 134.311C410.448 133.668 408.102 135.13 407.7 137.267C407.315 139.291 408.584 141.524 410.753 141.684C412.184 141.797 413.646 140.978 414.192 139.725C414.289 139.612 414.401 139.516 414.481 139.387C415.719 137.556 414.594 134.937 412.553 134.311ZM392.017 118.937C391.133 120.929 392.387 123.162 394.17 123.596C394.813 125.491 396.982 126.809 399.071 126.022C402.43 124.752 402.687 120.415 400.309 118.118C398.027 115.901 393.463 115.676 392.017 118.937ZM413.533 113.154C412.216 114.391 411.862 116.511 412.858 118.038C412.987 118.246 413.18 118.343 413.373 118.375C413.405 118.568 413.501 118.744 413.694 118.889C415.172 119.949 417.326 119.644 418.595 118.375C419.993 116.977 419.816 114.792 418.483 113.427C417.149 112.045 414.98 111.788 413.533 113.154ZM415.751 97.9569C418.949 95.1456 418.065 90.1174 414.594 87.9487C410.994 85.6996 405.306 87.0169 403.619 91.1134C402.285 94.3424 404.904 97.8605 408.166 97.1697C409.902 99.4669 413.341 100.093 415.751 97.9569ZM431.659 109.78C433.089 108.318 432.896 105.539 431.129 104.431C429.377 103.322 426.726 104.302 426.163 106.31C425.987 106.921 426.051 107.515 426.26 108.061C425.906 108.238 425.665 108.64 425.955 109.074C427.208 110.873 430.004 111.467 431.643 109.796L431.659 109.78ZM437.813 124.254C435.58 121.732 430.984 121.957 428.654 124.254C427.786 125.106 427.192 126.68 428.429 127.516C428.59 127.628 428.751 127.692 428.927 127.74C430.582 130.552 433.587 133.652 436.978 131.612C439.436 130.134 439.645 126.311 437.813 124.254Z" fill="#FFA98C"/>
<path d="M415.442 200.912C377.219 171.433 341.781 234.844 308.219 264.759C306.058 266.692 303.064 263.698 304.978 261.52C355.217 204.493 397.799 119.124 335.868 107.321C293.286 99.212 319.608 195.134 284.966 263.49C283.753 265.896 280.096 264.589 280.664 261.955C309.053 131.003 260.33 58.1567 224.04 94.4377C188.507 129.961 249.775 167.492 261.259 259.758C261.6 262.448 257.848 263.414 256.843 260.894C196.769 109.935 97.7517 163.059 179.941 221.298C247.216 268.984 262.566 307.899 266.034 322.013C266.868 325.367 269.863 327.716 273.312 327.716C277.424 327.716 279.736 324.268 280.797 320.308C300.847 246.401 461.057 236.113 415.423 200.912H415.442Z" fill="#DEB35C"/>
<path d="M273.16 318.3C272.705 318.3 272.288 318.016 272.117 317.581C238.139 229.369 167.49 179.732 166.77 179.239C166.259 178.879 166.145 178.197 166.486 177.686C166.846 177.174 167.528 177.041 168.04 177.401C168.741 177.894 237.305 226.035 272.212 311.802C274.752 218.419 242.384 110.769 242.062 109.671C241.891 109.083 242.213 108.458 242.801 108.269C243.407 108.098 244.014 108.42 244.203 109.008C244.544 110.125 278.258 222.284 274.278 317.221C274.259 317.751 273.861 318.187 273.349 318.282C273.292 318.282 273.236 318.282 273.16 318.282V318.3Z" fill="#253E2E"/>
<path d="M273.16 318.3C272.97 318.3 272.781 318.244 272.591 318.149C272.061 317.846 271.871 317.164 272.174 316.633C312.388 245.947 334.996 128.218 335.224 127.044C335.337 126.438 335.925 126.021 336.531 126.153C337.138 126.267 337.536 126.854 337.422 127.461C337.213 128.54 318.168 227.721 283.924 298.938C330.164 236.436 398.008 216.865 398.766 216.657C399.353 216.486 399.978 216.827 400.149 217.434C400.32 218.021 399.959 218.646 399.372 218.817C398.576 219.044 319.059 242.006 274.126 317.751C273.918 318.111 273.539 318.3 273.16 318.3Z" fill="#253E2E"/>
<path d="M473.733 282.778C457.085 287.71 440.856 295.148 425.028 302.249C409.393 309.253 393.276 316.321 380.887 328.434C380.919 328.209 380.935 327.968 380.967 327.743C381.305 327.663 381.61 327.406 381.658 326.892C382.462 319.679 391.846 312.675 396.876 308.08C402.901 302.586 408.622 296.819 414.471 291.148C427.037 278.971 440.856 268.851 455.414 259.196C456.539 258.457 455.559 256.818 454.37 257.397C437.851 265.461 423.598 278.248 410.646 291.084C404.058 297.606 397.293 303.984 390.818 310.618C388.006 313.494 384.278 317.173 381.948 321.157C382.028 320.691 382.108 320.225 382.189 319.759C383.924 314.763 386.383 309.751 387.732 305.092C390.159 296.739 392.746 288.289 396.426 280.385C402.95 266.377 411.578 253.091 420.047 240.191C420.738 239.147 419.147 237.894 418.295 238.842C412.993 244.818 409.216 252.111 405.087 258.907C400.652 266.248 396.313 273.814 392.955 281.718C389.645 289.526 387.427 297.67 385.097 305.799C384.631 307.454 384.037 309.108 383.394 310.779C383.442 310.088 383.506 309.381 383.522 308.674C383.812 300.562 384.149 292.514 384.149 284.385C384.149 276.192 382.687 268.545 382.044 260.385C381.417 252.497 381.449 244.577 379.377 236.882C379.168 236.127 377.93 236.256 377.979 237.075C378.573 245.3 378.766 253.541 379.377 261.75C379.987 269.814 381.305 277.59 381.305 285.718C381.305 292.947 381 300.128 380.903 307.341C380.855 311.422 380.389 315.405 379.875 319.406C379.778 317.574 379.618 315.727 379.264 313.847C377.85 306.441 375.874 299.469 373.206 292.401C368.418 279.71 362.087 268.32 353.136 258.039C352.413 257.204 350.935 258.312 351.594 259.228C360.094 271.1 366.65 283.18 371.647 296.931C373.881 303.084 375.536 309.253 376.741 315.679C377.673 320.675 377.593 325.767 378.541 330.715C377.93 332.578 377.786 334.795 377.577 336.643C377.288 339.165 377.063 341.43 377.079 343.952C377.079 345.35 379.328 345.35 379.248 343.952C379.103 341.285 379.666 338.763 380.051 336.129C380.309 334.378 380.935 332.53 380.678 330.779C380.903 330.779 381.144 330.715 381.369 330.522C394.465 318.345 411.691 311.405 427.904 304.353C443.202 297.702 460.042 293.076 474.665 285.044C475.934 284.353 475.066 282.297 473.684 282.714L473.733 282.778Z" fill="#A7D4BD"/>
<path d="M489.753 280.224C489.319 276.963 486.78 274.955 483.856 273.75C478.762 271.63 470.647 274.714 470.808 281.092C470.921 285.734 474.938 288.851 479.18 289.317C479.662 289.67 480.24 289.943 480.883 290.056C483.293 290.505 485.334 289.477 486.764 287.598C488.564 285.22 490.155 283.373 489.737 280.208L489.753 280.224ZM461.295 245.734C456.346 243.758 450.706 248.015 450.208 253.043C449.951 255.742 450.883 258.826 452.875 260.706C453.984 261.75 455.157 262.344 456.394 262.666C457.808 264.063 459.512 264.947 461.713 264.32C464.397 263.549 466.132 261.268 466.421 258.553C466.887 254.119 466.036 247.629 461.295 245.734ZM426.908 226.842C421.895 225.01 414.535 228.609 414.905 234.44C415.017 236.159 416.287 238.938 418.022 240.946C417.974 241.3 418.022 241.653 418.199 241.958C419.79 244.593 423.019 245.734 425.944 244.834C427.406 244.384 428.643 243.549 429.447 242.264C430.106 241.187 431.086 240.191 431.52 238.97C432.837 235.308 430.861 228.288 426.924 226.842H426.908ZM379.73 219.661C374.218 218.842 365.959 222.279 366.939 228.946C367.486 232.689 371.214 236.432 375.102 236.882C376.532 237.412 378.027 237.75 379.778 237.589C382.397 237.364 384.743 235.019 386.029 232.834C387.347 230.601 387.041 226.553 386.061 224.239C384.936 221.605 382.51 220.095 379.73 219.677V219.661ZM351.497 248.593C347.271 243.902 339.156 246.585 336.328 251.372C333.388 256.32 336.36 265.252 342.531 266.168C345.487 266.601 348.605 265.654 350.726 263.806C350.983 263.87 351.256 263.87 351.513 263.726C353.731 262.537 353.522 259.822 353.458 257.653C353.377 254.714 353.618 250.939 351.497 248.593Z" fill="#ED4428"/>
<path d="M338.031 250.762C337.132 251.228 336.601 252.208 336.682 253.204C336.714 253.637 336.874 253.975 337.148 254.296C337.196 254.376 337.26 254.441 337.308 254.505C337.308 254.505 337.308 254.505 337.308 254.521C338.385 255.71 340.94 255.388 341.663 253.782C342.675 251.517 339.976 249.75 338.031 250.746V250.762Z" fill="#E4DCCF"/>
<path d="M378.895 220.513C378.734 220.48 378.573 220.448 378.429 220.448C376.966 220.416 375.44 221.075 375.038 222.601C374.604 224.223 375.649 225.798 377.256 226.119C378.477 226.376 379.907 226.119 380.984 225.46C382.333 224.641 383.217 222.81 382.333 221.348C381.626 220.175 380.1 219.998 378.911 220.529L378.895 220.513Z" fill="#E4DCCF"/>
<path d="M428.515 229.685C428.434 229.46 428.306 229.251 428.065 229.075C427.679 228.802 427.229 228.705 426.763 228.721C426.185 228.641 425.59 228.77 425.06 229.268C424.948 229.364 424.883 229.476 424.803 229.589C424.449 229.958 424.208 230.392 424.176 230.922C424.08 232.545 425.301 234.665 427.02 234.906C429.19 235.211 429.945 232.561 429.318 230.922C429.141 230.488 428.868 230.071 428.531 229.701L428.515 229.685Z" fill="#E4DCCF"/>
<path d="M461.038 248.095C460.717 248.063 460.379 248.159 460.106 248.465C459.142 249.573 459.608 251.212 460.588 252.192C460.636 252.497 460.668 252.786 460.861 253.123C461.07 253.477 461.44 253.573 461.809 253.509C461.986 253.477 462.115 253.429 462.259 253.332C462.42 253.236 462.516 253.075 462.565 252.915C463.481 252.802 464.252 252.095 464.22 250.907C464.171 249.461 462.629 247.501 461.054 248.095H461.038ZM462.5 250.473C462.5 250.473 462.532 250.473 462.549 250.473C462.5 250.489 462.5 250.473 462.5 250.473Z" fill="#E4DCCF"/>
<path d="M486.234 279.663C486.057 279.663 485.88 279.663 485.704 279.711C485.27 279.47 484.756 279.55 484.37 279.872C484.129 280.08 484.016 280.321 483.92 280.594C483.149 282.104 483.743 284.466 485.206 285.301C486.073 285.799 487.182 285.526 487.664 284.643C487.985 284.048 488.002 283.309 488.018 282.651C488.018 281.414 487.809 279.759 486.234 279.663Z" fill="#E4DCCF"/>
</svg>
