<svg width="1404" height="108" viewBox="0 0 1404 108" fill="none" xmlns="http://www.w3.org/2000/svg">
<path d="M91.237 40.9137C91.237 40.9137 139.923 40.0211 159.433 43.8593C159.433 43.8593 159.191 85.5827 150.774 92.4941C142.97 98.8954 140.089 99.2652 140.968 107.312L112.315 107.235C112.315 107.235 114.266 101.127 110.951 97.6458C107.636 94.1646 89.1967 87.5847 91.237 40.9137Z" fill="#E59D13"/>
<path d="M144.564 49.8271C132.106 49.4828 119.622 49.5721 107.151 49.1002C102.637 48.9345 98.1101 48.8452 93.5961 48.6412C92.4867 48.5902 91.6833 48.5519 91.084 48.5137C91.1605 64.7465 93.9531 75.3686 97.4598 82.4841C102.675 82.4841 107.942 83.2492 113.144 83.4914C126.903 84.1163 140.713 84.7411 154.409 86.3223C157.864 76.5928 158.948 59.3143 159.293 50.0821C154.396 50.0566 149.474 49.9674 144.577 49.8271H144.564Z" fill="#E4DCCF"/>
<path d="M99.3851 57.4009C101.999 57.3371 104.601 57.3499 107.215 57.3881C118.168 57.5539 129.135 57.6304 140.088 57.9109C144.845 58.0385 149.55 58.3955 154.294 58.7271C155.862 58.8291 157.303 58.9438 158.808 59.1096C158.884 57.9747 158.961 56.8781 159.012 55.8197C152.738 55.5646 146.464 55.0036 140.19 54.723C129.976 54.2512 119.737 54.162 109.51 54.1747C104.09 54.1747 98.6583 54.1365 93.2388 54.1747C92.4227 54.1747 91.7596 54.2002 91.2368 54.2385C91.2878 55.3096 91.3516 56.3425 91.4281 57.3499C94.0677 57.2351 96.7455 57.4646 99.3851 57.3881V57.4009Z" fill="#EEBB5D"/>
<path d="M118.908 73.3275C112.43 73.0852 105.94 72.9832 99.4617 73.0087C97.9442 73.0087 95.9295 73.1235 93.9912 73.1745C94.259 74.1563 94.5395 75.0872 94.8328 75.9798C95.1899 75.9798 95.5852 75.9798 96.057 75.9798C100.915 75.9161 105.799 76.0946 110.645 76.3879C124.595 77.2295 138.494 78.3389 152.381 80.0094C153.592 80.1496 154.804 80.3154 156.015 80.4812C156.321 79.1167 156.602 77.7013 156.844 76.2349C144.233 74.8704 131.596 73.812 118.895 73.3275H118.908Z" fill="#EEBB5D"/>
<path d="M95.8019 66.544C99.8442 66.4675 103.848 66.5567 107.89 66.7098C120.336 67.1561 132.769 67.9084 145.202 68.7883C149.027 69.0561 152.827 69.3493 156.64 69.6554C157.023 69.6809 157.418 69.7319 157.813 69.7702C158.004 68.2145 158.17 66.646 158.323 65.103C154.102 64.8098 149.856 64.4272 145.635 64.3252C132.144 64.0064 118.666 63.3561 105.162 63.3306C101.757 63.3306 98.365 63.3433 94.9603 63.3943C93.4429 63.4198 92.5885 63.3943 92.0657 63.3688C92.2059 64.4527 92.3717 65.4856 92.5502 66.493C93.7872 66.5057 94.9986 66.544 95.8147 66.5312L95.8019 66.544Z" fill="#EEBB5D"/>
<path d="M617.79 40.9137C617.79 40.9137 666.476 40.0211 685.986 43.8593C685.986 43.8593 685.743 85.5827 677.327 92.4941C669.523 98.8954 666.642 99.2652 667.521 107.312L638.868 107.235C638.868 107.235 640.819 101.127 637.504 97.6458C634.189 94.1646 615.75 87.5847 617.79 40.9137Z" fill="#E59D13"/>
<path d="M671.117 49.8271C658.659 49.4828 646.175 49.5721 633.704 49.1002C629.19 48.9345 624.663 48.8452 620.149 48.6412C619.04 48.5902 618.236 48.5519 617.637 48.5137C617.713 64.7465 620.506 75.3686 624.013 82.4841C629.228 82.4841 634.495 83.2492 639.697 83.4914C653.456 84.1163 667.266 84.7411 680.962 86.3223C684.417 76.5928 685.501 59.3143 685.846 50.0821C680.949 50.0566 676.027 49.9674 671.13 49.8271H671.117Z" fill="#E4DCCF"/>
<path d="M625.938 57.4009C628.552 57.3371 631.154 57.3499 633.768 57.3881C644.721 57.5539 655.688 57.6304 666.641 57.9109C671.398 58.0385 676.103 58.3955 680.847 58.7271C682.415 58.8291 683.856 58.9438 685.361 59.1096C685.437 57.9747 685.514 56.8781 685.565 55.8197C679.291 55.5646 673.017 55.0036 666.743 54.723C656.529 54.2512 646.29 54.162 636.063 54.1747C630.643 54.1747 625.211 54.1365 619.792 54.1747C618.976 54.1747 618.313 54.2002 617.79 54.2385C617.841 55.3096 617.905 56.3425 617.981 57.3499C620.621 57.2351 623.299 57.4646 625.938 57.3881V57.4009Z" fill="#EEBB5D"/>
<path d="M645.461 73.3275C638.983 73.0852 632.492 72.9832 626.015 73.0087C624.497 73.0087 622.482 73.1235 620.544 73.1745C620.812 74.1563 621.093 75.0872 621.386 75.9798C621.743 75.9798 622.138 75.9798 622.61 75.9798C627.468 75.9161 632.352 76.0946 637.198 76.3879C651.148 77.2295 665.047 78.3389 678.934 80.0094C680.145 80.1496 681.357 80.3154 682.568 80.4812C682.874 79.1167 683.155 77.7013 683.397 76.2349C670.786 74.8704 658.149 73.812 645.448 73.3275H645.461Z" fill="#EEBB5D"/>
<path d="M622.355 66.544C626.397 66.4675 630.401 66.5567 634.443 66.7098C646.889 67.1561 659.322 67.9084 671.755 68.7883C675.58 69.0561 679.38 69.3493 683.193 69.6554C683.576 69.6809 683.971 69.7319 684.366 69.7702C684.557 68.2145 684.723 66.646 684.876 65.103C680.655 64.8098 676.409 64.4272 672.188 64.3252C658.697 64.0064 645.219 63.3561 631.715 63.3306C628.31 63.3306 624.918 63.3433 621.513 63.3943C619.996 63.4198 619.141 63.3943 618.619 63.3688C618.759 64.4527 618.925 65.4856 619.103 66.493C620.34 66.5057 621.552 66.544 622.368 66.5312L622.355 66.544Z" fill="#EEBB5D"/>
<path d="M1121.51 40.9137C1121.51 40.9137 1170.19 40.0211 1189.7 43.8593C1189.7 43.8593 1189.46 85.5827 1181.05 92.4941C1173.24 98.8954 1170.36 99.2652 1171.24 107.312L1142.59 107.235C1142.59 107.235 1144.54 101.127 1141.22 97.6458C1137.91 94.1646 1119.47 87.5847 1121.51 40.9137Z" fill="#E59D13"/>
<path d="M1174.84 49.8271C1162.38 49.4828 1149.89 49.5721 1137.42 49.1002C1132.91 48.9345 1128.38 48.8452 1123.87 48.6412C1122.76 48.5902 1121.95 48.5519 1121.35 48.5137C1121.43 64.7465 1124.22 75.3686 1127.73 82.4841C1132.95 82.4841 1138.21 83.2492 1143.41 83.4914C1157.17 84.1163 1170.98 84.7411 1184.68 86.3223C1188.13 76.5928 1189.22 59.3143 1189.56 50.0821C1184.67 50.0566 1179.74 49.9674 1174.85 49.8271H1174.84Z" fill="#E4DCCF"/>
<path d="M1129.66 57.4009C1132.27 57.3371 1134.87 57.3499 1137.49 57.3881C1148.44 57.5539 1159.41 57.6304 1170.36 57.9109C1175.12 58.0385 1179.82 58.3955 1184.56 58.7271C1186.13 58.8291 1187.57 58.9438 1189.08 59.1096C1189.16 57.9747 1189.23 56.8781 1189.28 55.8197C1183.01 55.5646 1176.73 55.0036 1170.46 54.723C1160.25 54.2512 1150.01 54.162 1139.78 54.1747C1134.36 54.1747 1128.93 54.1365 1123.51 54.1747C1122.69 54.1747 1122.03 54.2002 1121.51 54.2385C1121.56 55.3096 1121.62 56.3425 1121.7 57.3499C1124.34 57.2351 1127.02 57.4646 1129.66 57.3881V57.4009Z" fill="#EEBB5D"/>
<path d="M1149.18 73.3275C1142.7 73.0852 1136.21 72.9832 1129.73 73.0087C1128.21 73.0087 1126.2 73.1235 1124.26 73.1745C1124.53 74.1563 1124.81 75.0872 1125.1 75.9798C1125.46 75.9798 1125.86 75.9798 1126.33 75.9798C1131.19 75.9161 1136.07 76.0946 1140.92 76.3879C1154.87 77.2295 1168.77 78.3389 1182.65 80.0094C1183.86 80.1496 1185.07 80.3154 1186.29 80.4812C1186.59 79.1167 1186.87 77.7013 1187.11 76.2349C1174.5 74.8704 1161.87 73.812 1149.17 73.3275H1149.18Z" fill="#EEBB5D"/>
<path d="M1126.07 66.544C1130.11 66.4675 1134.12 66.5567 1138.16 66.7098C1150.61 67.1561 1163.04 67.9084 1175.47 68.7883C1179.3 69.0561 1183.1 69.3493 1186.91 69.6554C1187.29 69.6809 1187.69 69.7319 1188.08 69.7702C1188.28 68.2145 1188.44 66.646 1188.59 65.103C1184.37 64.8098 1180.13 64.4272 1175.91 64.3252C1162.41 64.0064 1148.94 63.3561 1135.43 63.3306C1132.03 63.3306 1128.64 63.3433 1125.23 63.3943C1123.71 63.4198 1122.86 63.3943 1122.34 63.3688C1122.48 64.4527 1122.64 65.4856 1122.82 66.493C1124.06 66.5057 1125.27 66.544 1126.09 66.5312L1126.07 66.544Z" fill="#EEBB5D"/>
<path d="M43.1376 0.606013L11.3987 1.05232L12.2148 15.8442C12.2148 15.8442 1.06988 18.6368 0.0369951 29.871C-0.995888 41.1052 19.9423 107.388 19.9423 107.388H44.8845C44.8845 107.388 53.0201 72.5125 54.9583 51.6253C56.8966 30.7254 55.0348 21.8375 44.6805 16.6603L43.1376 0.593262V0.606013Z" fill="#EEBB5D"/>
<path d="M54.9583 51.6253C55.4811 45.9891 55.7234 41.2328 55.5959 37.1777L0.738281 37.3053C1.54163 41.8831 2.91881 47.8509 4.57653 54.367L54.4482 56.2287C54.6395 54.6347 54.8053 53.0918 54.9455 51.6126L54.9583 51.6253Z" fill="#E7A627"/>
<path d="M8.10857 67.5394L52.3695 70.3703C52.8158 67.7689 53.2239 65.1931 53.5937 62.6683L6.24683 60.7173C6.84615 62.9743 7.47098 65.2569 8.10857 67.5394Z" fill="#DD970F"/>
<path d="M544.185 0.606013L512.447 1.05232L513.263 15.8442C513.263 15.8442 502.118 18.6368 501.085 29.871C500.052 41.1052 520.99 107.388 520.99 107.388H545.932C545.932 107.388 554.068 72.5125 556.006 51.6253C557.944 30.7254 556.083 21.8375 545.728 16.6603L544.185 0.593262V0.606013Z" fill="#EEBB5D"/>
<path d="M556.006 51.6253C556.529 45.9891 556.771 41.2328 556.644 37.1777L501.786 37.3053C502.589 41.8831 503.967 47.8509 505.624 54.367L555.496 56.2287C555.687 54.6347 555.853 53.0918 555.993 51.6126L556.006 51.6253Z" fill="#E7A627"/>
<path d="M509.156 67.5394L553.417 70.3703C553.864 67.7689 554.272 65.1931 554.642 62.6683L507.295 60.7173C507.894 62.9743 508.519 65.2569 509.156 67.5394Z" fill="#DD970F"/>
<path d="M935.768 0.606013L904.029 1.05232L904.845 15.8442C904.845 15.8442 893.7 18.6368 892.668 29.871C891.635 41.1052 912.573 107.388 912.573 107.388H937.515C937.515 107.388 945.651 72.5125 947.589 51.6253C949.527 30.7254 947.665 21.8375 937.311 16.6603L935.768 0.593262V0.606013Z" fill="#EEBB5D"/>
<path d="M947.589 51.6253C948.112 45.9891 948.354 41.2328 948.227 37.1777L893.369 37.3053C894.172 41.8831 895.55 47.8509 897.207 54.367L947.079 56.2287C947.27 54.6347 947.436 53.0918 947.576 51.6126L947.589 51.6253Z" fill="#E7A627"/>
<path d="M900.739 67.5394L945 70.3703C945.447 67.7689 945.855 65.1931 946.225 62.6683L898.878 60.7173C899.477 62.9743 900.102 65.2569 900.739 67.5394Z" fill="#DD970F"/>
<path d="M36.6341 61.6231C36.6341 61.6231 36.2898 82.8163 45.114 107.389H80.6018C80.6018 107.389 88.5588 82.8928 88.1635 61.7761C88.1635 61.7761 59.5106 57.2365 36.6341 61.6231Z" fill="#C0861D"/>
<path d="M1181.87 61.6231C1181.87 61.6231 1181.53 82.8163 1190.35 107.389H1225.84C1225.84 107.389 1233.79 82.8928 1233.4 61.7761C1233.4 61.7761 1204.75 57.2365 1181.87 61.6231Z" fill="#C0861D"/>
<path d="M679.772 61.6231C679.772 61.6231 679.428 82.8163 688.252 107.389H723.74C723.74 107.389 731.697 82.8928 731.302 61.7761C731.302 61.7761 702.649 57.2365 679.772 61.6231Z" fill="#C0861D"/>
<path d="M295.378 2.12522C295.378 2.12522 283.803 -1.08647 274.596 1.79067L272.923 20.8333C272.923 20.8333 260.023 26.8954 258.377 39.2738C256.731 51.6389 264.493 87.1147 269.551 107.281L304.385 107.389C304.385 107.389 312.507 51.3445 311.035 36.1424C309.563 20.9404 296.783 20.6326 296.783 20.6326L295.378 2.1386V2.12522Z" fill="#C0861D"/>
<path d="M291.832 65.6366C278.222 64.7266 272.053 75.0709 267.276 78.122C265.71 79.1257 264.372 79.5673 263.275 79.7145C263.837 82.4712 264.426 85.2145 265.014 87.9177C274.783 88.0649 276.309 76.9979 284.525 74.1074C294.535 70.5745 301.133 76.5831 305.348 79.9286C306.218 80.6245 307.034 81.1865 307.77 81.6549C308.078 79.1123 308.386 76.476 308.68 73.8264C303.742 72.341 301.614 66.3057 291.832 65.6499V65.6366Z" fill="#E7A627"/>
<path d="M296.034 10.8369L295.378 2.12522C295.378 2.12522 283.803 -1.08647 274.596 1.79067L273.887 9.9002C279.427 9.24448 288.353 8.73596 296.047 10.8369H296.034Z" fill="#E59D13"/>
<path d="M1316.99 2.12522C1316.99 2.12522 1305.41 -1.08647 1296.21 1.79067L1294.53 20.8333C1294.53 20.8333 1281.63 26.8954 1279.99 39.2738C1278.34 51.6389 1286.1 87.1147 1291.16 107.281L1326 107.389C1326 107.389 1334.12 51.3445 1332.65 36.1424C1331.17 20.9404 1318.39 20.6326 1318.39 20.6326L1316.99 2.1386V2.12522Z" fill="#C0861D"/>
<path d="M1313.44 65.6366C1299.83 64.7266 1293.66 75.0709 1288.89 78.122C1287.32 79.1257 1285.98 79.5673 1284.89 79.7145C1285.45 82.4712 1286.04 85.2145 1286.63 87.9177C1296.39 88.0649 1297.92 76.9979 1306.14 74.1074C1316.15 70.5745 1322.74 76.5831 1326.96 79.9286C1327.83 80.6245 1328.65 81.1865 1329.38 81.6549C1329.69 79.1123 1330 76.476 1330.29 73.8264C1325.35 72.341 1323.23 66.3057 1313.44 65.6499V65.6366Z" fill="#E7A627"/>
<path d="M1317.65 10.8369L1316.99 2.12522C1316.99 2.12522 1305.41 -1.08647 1296.21 1.79067L1295.5 9.9002C1301.04 9.24448 1309.96 8.73596 1317.66 10.8369H1317.65Z" fill="#E59D13"/>
<path d="M885.489 2.12522C885.489 2.12522 873.914 -1.08647 864.707 1.79067L863.034 20.8333C863.034 20.8333 850.134 26.8954 848.488 39.2738C846.842 51.6389 854.604 87.1147 859.662 107.281L894.496 107.389C894.496 107.389 902.619 51.3445 901.146 36.1424C899.674 20.9404 886.895 20.6326 886.895 20.6326L885.489 2.1386V2.12522Z" fill="#C0861D"/>
<path d="M881.943 65.6366C868.334 64.7266 862.164 75.0709 857.387 78.122C855.821 79.1257 854.483 79.5673 853.386 79.7145C853.948 82.4712 854.537 85.2145 855.126 87.9177C864.894 88.0649 866.42 76.9979 874.637 74.1074C884.646 70.5745 891.244 76.5831 895.459 79.9286C896.329 80.6245 897.145 81.1865 897.881 81.6549C898.189 79.1123 898.497 76.476 898.791 73.8264C893.853 72.341 891.725 66.3057 881.943 65.6499V65.6366Z" fill="#E7A627"/>
<path d="M886.145 10.8369L885.489 2.12522C885.489 2.12522 873.914 -1.08647 864.707 1.79067L863.998 9.9002C869.538 9.24448 878.464 8.73596 886.158 10.8369H886.145Z" fill="#E59D13"/>
<path d="M204.624 29.2242C204.624 29.2242 210.19 79.7147 216.774 107.201L245.76 107.228C245.76 107.228 253.736 54.717 253.562 28.9298C253.562 28.9298 228.444 24.8482 204.637 29.2375L204.624 29.2242Z" fill="#EEBB5D"/>
<path d="M246.175 46.8746C242.307 46.8211 238.775 69.2628 233.729 68.8747C228.684 68.4866 227.748 50.8892 223.787 50.5011C219.812 50.1131 215.597 68.045 212.519 69.8115C211.676 70.2932 210.806 70.2798 209.976 70.0122C210.632 74.348 211.315 78.7507 212.051 83.0999C218.902 80.932 219.692 69.2628 222.85 69.129C226.276 68.9818 229.367 83.5816 234.024 84.1303C238.681 84.6656 240.889 68.1521 244.756 68.8346C247.031 69.236 248.838 72.9562 249.935 75.9538C250.444 71.685 250.939 67.2287 251.407 62.7457C249.815 56.0146 248.784 46.9014 246.188 46.8746H246.175Z" fill="#E7A627"/>
<path d="M1226.37 29.2242C1226.37 29.2242 1231.93 79.7147 1238.52 107.201L1267.5 107.228C1267.5 107.228 1275.48 54.717 1275.3 28.9298C1275.3 28.9298 1250.19 24.8482 1226.38 29.2375L1226.37 29.2242Z" fill="#EEBB5D"/>
<path d="M1267.92 46.8746C1264.05 46.8211 1260.52 69.2628 1255.47 68.8747C1250.43 68.4866 1249.49 50.8892 1245.53 50.5011C1241.55 50.1131 1237.34 68.045 1234.26 69.8115C1233.42 70.2932 1232.55 70.2798 1231.72 70.0122C1232.37 74.348 1233.06 78.7507 1233.79 83.0999C1240.64 80.932 1241.43 69.2628 1244.59 69.129C1248.02 68.9818 1251.11 83.5816 1255.77 84.1303C1260.42 84.6656 1262.63 68.1521 1266.5 68.8346C1268.77 69.236 1270.58 72.9562 1271.68 75.9538C1272.19 71.685 1272.68 67.2287 1273.15 62.7457C1271.56 56.0146 1270.53 46.9014 1267.93 46.8746H1267.92Z" fill="#E7A627"/>
<path d="M794.735 29.2242C794.735 29.2242 800.302 79.7147 806.886 107.201L835.871 107.228C835.871 107.228 843.847 54.717 843.673 28.9298C843.673 28.9298 818.555 24.8482 794.748 29.2375L794.735 29.2242Z" fill="#EEBB5D"/>
<path d="M836.286 46.8746C832.419 46.8211 828.886 69.2628 823.841 68.8747C818.796 68.4866 817.859 50.8892 813.898 50.5011C809.923 50.1131 805.708 68.045 802.63 69.8115C801.787 70.2932 800.917 70.2798 800.088 70.0122C800.743 74.348 801.426 78.7507 802.162 83.0999C809.013 80.932 809.803 69.2628 812.961 69.129C816.387 68.9818 819.478 83.5816 824.135 84.1303C828.792 84.6656 831 68.1521 834.868 68.8346C837.143 69.236 838.949 72.9562 840.046 75.9538C840.555 71.685 841.05 67.2287 841.519 62.7457C839.926 56.0146 838.896 46.9014 836.3 46.8746H836.286Z" fill="#E7A627"/>
<path d="M153.859 66.6399C153.859 66.6399 151.249 86.8335 174.668 98.6364L175.136 107.214L208.203 107.174L208.444 98.7034C208.444 98.7034 224.248 87.2349 221.987 65.0742L153.859 66.6399Z" fill="#E59D13"/>
<path d="M221.96 65.0742L153.859 66.6399C153.859 66.6399 153.457 69.7312 154.38 74.2008L222.067 72.4611C222.254 70.1862 222.241 67.7372 221.973 65.0742H221.96Z" fill="#BF7E00"/>
<path d="M935.435 66.6399C935.435 66.6399 932.826 86.8335 956.245 98.6364L956.713 107.214L989.78 107.174L990.021 98.7034C990.021 98.7034 1005.83 87.2349 1003.56 65.0742L935.435 66.6399Z" fill="#E59D13"/>
<path d="M1003.54 65.0742L935.435 66.6399C935.435 66.6399 935.034 69.7312 935.957 74.2008L1003.64 72.4611C1003.83 70.1862 1003.82 67.7372 1003.55 65.0742H1003.54Z" fill="#BF7E00"/>
<path d="M559.872 66.6399C559.872 66.6399 557.263 86.8335 580.681 98.6364L581.15 107.214L614.217 107.174L614.458 98.7034C614.458 98.7034 630.262 87.2349 628 65.0742L559.872 66.6399Z" fill="#E59D13"/>
<path d="M627.973 65.0742L559.872 66.6399C559.872 66.6399 559.471 69.7312 560.394 74.2008L628.08 72.4611C628.268 70.1862 628.254 67.7372 627.987 65.0742H627.973Z" fill="#BF7E00"/>
<path d="M401.682 2.07676C401.682 2.07676 416.198 -1.19783 431.167 1.9832C431.167 1.9832 431.114 15.8033 435.778 28.1666C440.443 40.5298 447.406 77.3656 435.818 102.841C435.818 102.841 418.643 113.72 399.303 101.825C399.303 101.825 388.785 79.4373 391.137 58.7071C393.476 37.977 405.077 20.3209 401.682 2.07676Z" fill="#C0861D"/>
<path d="M413.244 93.5647C412.869 89.9426 410.597 86.7081 410.45 83.0592C410.397 81.6024 410.744 80.052 411.239 78.6887C413.645 72.1796 418.296 66.8467 420.501 60.244C421.824 56.2477 422.052 51.6499 419.298 48.1882C417.28 45.6487 413.671 45.1809 410.704 44.6596C406.574 43.9379 402.27 43.7909 398.421 42.0667C397.472 41.639 396.309 41.0375 395.24 40.2891C393.462 46.2101 391.859 52.3182 391.123 58.7203C388.771 79.4505 399.29 101.838 399.29 101.838C401.736 103.335 404.142 104.471 406.481 105.326C410.156 102.373 413.792 98.8575 413.244 93.578V93.5647Z" fill="#E7A627"/>
<path d="M1019.23 2.07676C1019.23 2.07676 1033.74 -1.19783 1048.71 1.9832C1048.71 1.9832 1048.66 15.8033 1053.32 28.1666C1057.99 40.5298 1064.95 77.3656 1053.36 102.841C1053.36 102.841 1036.19 113.72 1016.85 101.825C1016.85 101.825 1006.33 79.4373 1008.68 58.7071C1011.02 37.977 1022.62 20.3209 1019.23 2.07676Z" fill="#C0861D"/>
<path d="M1030.79 93.5647C1030.41 89.9426 1028.14 86.7081 1028 83.0592C1027.94 81.6024 1028.29 80.052 1028.78 78.6887C1031.19 72.1796 1035.84 66.8467 1038.05 60.244C1039.37 56.2477 1039.6 51.6499 1036.84 48.1882C1034.83 45.6487 1031.22 45.1809 1028.25 44.6596C1024.12 43.9379 1019.82 43.7909 1015.97 42.0667C1015.02 41.639 1013.85 41.0375 1012.79 40.2891C1011.01 46.2101 1009.4 52.3182 1008.67 58.7203C1006.32 79.4505 1016.83 101.838 1016.83 101.838C1019.28 103.335 1021.69 104.471 1024.03 105.326C1027.7 102.373 1031.34 98.8575 1030.79 93.578V93.5647Z" fill="#E7A627"/>
<path d="M496.396 53.9155L429.541 55.2655C429.541 55.2655 429.528 73.2156 446.903 98.891L447.411 106.242H478.74L478.794 100.949C478.794 100.949 495.808 84.1888 496.396 53.9155Z" fill="#EEBB5D"/>
<path d="M1113.94 54.0469L1047.09 55.3968C1047.09 55.3968 1047.07 73.3469 1064.45 99.0224L1064.96 106.374H1096.29L1096.34 101.081C1096.34 101.081 1113.35 84.3201 1113.94 54.0469Z" fill="#EEBB5D"/>
<path d="M337.647 98.3011C340.825 101.262 338.962 106.47 338.962 106.47L366.415 106.533C365.573 99.6795 368.33 99.3732 375.809 93.9106C383.862 88.0268 384.105 52.4944 384.105 52.4944C365.407 49.2398 318.758 49.9928 318.758 49.9928C316.805 89.7371 334.469 95.3401 337.647 98.3011Z" fill="#E59D13"/>
<path d="M324.705 85.3595C320.851 78.4164 317.89 67.5295 318.758 49.993C318.758 49.993 332.682 49.7632 348.355 50.0951C346.709 58.3656 343.174 66.2532 338.056 72.941C334.342 77.791 329.798 81.99 324.705 85.3595Z" fill="#C0861D"/>
<path d="M324.705 85.3591C329.798 81.9897 334.342 77.7906 338.056 72.9407C343.186 66.2528 346.709 58.3524 348.355 50.0947C350.193 50.133 352.057 50.1841 353.92 50.2351C353.295 60.2669 349.913 70.12 344.195 78.365C340.379 83.8659 335.529 88.6393 330.002 92.4299C328.228 90.6686 326.377 88.3968 324.705 85.3591Z" fill="#EEBB5D"/>
<path d="M1357.54 98.3011C1360.72 101.262 1358.86 106.47 1358.86 106.47L1386.31 106.533C1385.47 99.6795 1388.22 99.3732 1395.7 93.9106C1403.76 88.0268 1404 52.4944 1404 52.4944C1385.3 49.2398 1338.65 49.9928 1338.65 49.9928C1336.7 89.7371 1354.36 95.3401 1357.54 98.3011Z" fill="#E59D13"/>
<path d="M1344.6 85.3595C1340.75 78.4164 1337.79 67.5295 1338.65 49.993C1338.65 49.993 1352.58 49.7632 1368.25 50.0951C1366.6 58.3656 1363.07 66.2532 1357.95 72.941C1354.24 77.791 1349.69 81.99 1344.6 85.3595Z" fill="#C0861D"/>
<path d="M1344.6 85.3591C1349.69 81.9897 1354.24 77.7906 1357.95 72.9407C1363.08 66.2528 1366.6 58.3524 1368.25 50.0947C1370.09 50.133 1371.95 50.1841 1373.82 50.2351C1373.19 60.2669 1369.81 70.12 1364.09 78.365C1360.27 83.8659 1355.42 88.6393 1349.9 92.4299C1348.12 90.6686 1346.27 88.3968 1344.6 85.3591Z" fill="#EEBB5D"/>
<path d="M783.345 98.3011C780.167 101.262 782.03 106.47 782.03 106.47L754.577 106.533C755.419 99.6795 752.663 99.3732 745.183 93.9106C737.13 88.0268 736.887 52.4944 736.887 52.4944C755.585 49.2398 802.234 49.9928 802.234 49.9928C804.187 89.7371 786.523 95.3401 783.345 98.3011Z" fill="#E59D13"/>
<path d="M796.287 85.3595C800.141 78.4164 803.102 67.5295 802.234 49.993C802.234 49.993 788.31 49.7632 772.637 50.0951C774.283 58.3656 777.819 66.2532 782.937 72.941C786.651 77.791 791.194 81.99 796.287 85.3595Z" fill="#C0861D"/>
<path d="M796.287 85.3591C791.194 81.9897 786.651 77.7906 782.937 72.9407C777.806 66.2528 774.283 58.3524 772.637 50.0947C770.799 50.133 768.936 50.1841 767.072 50.2351C767.698 60.2669 771.08 70.12 776.798 78.365C780.614 83.8659 785.464 88.6393 790.99 92.4299C792.764 90.6686 794.615 88.3968 796.287 85.3591Z" fill="#EEBB5D"/>
</svg>
