<svg width="103" height="103" viewBox="0 0 103 103" fill="none" xmlns="http://www.w3.org/2000/svg">
<path d="M77.7346 62.138L87.5259 72.2852C86.742 73.6329 85.8823 74.936 84.9508 76.1881L71.6327 71.3926L76.7397 84.5191C75.4993 85.4756 74.205 86.3604 72.8634 87.1693L62.4563 77.6557L62.1094 91.7867C60.6012 92.1978 59.0721 92.5263 57.5292 92.7706L51.6213 79.9626L45.8665 92.9334C44.3192 92.7425 42.7851 92.4625 41.272 92.0947L40.7453 77.9843L30.4505 87.829C29.1034 87.0614 27.8016 86.2183 26.5514 85.3039L31.5017 72.0097L18.2544 77.2135C17.3046 75.9884 16.4273 74.7091 15.6269 73.382L25.2875 62.9422L11.0869 62.7266C10.6874 61.2307 10.3729 59.7128 10.145 58.1801L23.0594 52.1648L10.0638 46.5881C10.2721 45.0471 10.5681 43.5183 10.9503 42.0091L25.1384 41.3557L15.3394 31.2066C16.1227 29.8585 16.9824 28.5553 17.9145 27.3036L31.2325 32.0991L26.1266 18.9687C27.3675 18.0146 28.6613 17.131 30.0019 16.3224L40.4111 25.8283L40.759 11.6934C42.267 11.2835 43.7957 10.9564 45.3382 10.7134L51.263 23.505L57.0189 10.5303C58.5659 10.7232 60.0999 11.0032 61.6134 11.369L62.1363 25.4784L72.4339 15.6386C73.7823 16.4033 75.0845 17.2451 76.3341 18.1598L71.3877 31.455L84.636 26.2474C85.5858 27.4725 86.4631 28.7518 87.2635 30.0789L77.6018 40.5225L91.8025 40.7381C92.202 42.2341 92.5164 43.752 92.7444 45.2847L79.831 51.296L92.8153 56.899C92.6066 58.4412 92.3102 59.9713 91.9277 61.4818L77.7346 62.138Z" fill="#A94C2E"/>
<path d="M72.8835 48.0381L73.8823 48.029C73.882 47.9972 73.8802 47.9656 73.8769 47.934L72.8835 48.0381ZM70.8496 46.4349L70.918 47.4315C70.9263 47.4309 70.9345 47.4302 70.9428 47.4294L70.8496 46.4349ZM50.1359 47.8567L50.0675 46.8602L50.0667 46.8603L50.1359 47.8567ZM50.6035 43.7633L49.6163 43.6109L49.6162 43.6113L50.6035 43.7633ZM49.8574 38.6851L49.0159 39.2233L49.017 39.2251L49.8574 38.6851ZM48.0364 37.7173L47.7275 36.7674L47.7259 36.7679L48.0364 37.7173ZM47.1766 39.9742L46.179 40.0239L46.1794 40.0323L47.1766 39.9742ZM43.3832 48.5595L43.9227 49.4001L43.9242 49.3991L43.3832 48.5595ZM36.7809 52.3381L35.8425 52.6803L35.8427 52.6808L36.7809 52.3381ZM38.8073 62.5757L37.8092 62.6154L37.8092 62.6157L38.8073 62.5757ZM39.1263 62.8505L39.3032 63.8336L39.305 63.8333L39.1263 62.8505ZM50.1081 62.524L50.0956 61.5252C50.0746 61.5254 50.0536 61.5264 50.0327 61.528L50.1081 62.524ZM56.3988 62.445L56.4113 63.4438L56.4138 63.4437L56.3988 62.445ZM58.4469 60.5169L59.4457 60.503L59.4456 60.495L58.4469 60.5169ZM56.5712 58.7639L56.5645 57.765C56.5573 57.7651 56.5501 57.7652 56.5429 57.7654L56.5712 58.7639ZM55.7243 58.7879L54.7254 58.7822C54.7239 59.053 54.8324 59.3128 55.026 59.5022C55.2197 59.6915 55.4819 59.7941 55.7526 59.7864L55.7243 58.7879ZM55.7368 58.7229L55.7242 57.7241C55.242 57.7302 54.833 58.0799 54.7521 58.5552L55.7368 58.7229ZM58.3559 58.6899L58.3685 59.6887L58.371 59.6887L58.3559 58.6899ZM60.404 56.7618L61.4029 56.7676C61.4029 56.76 61.4029 56.7524 61.4028 56.7449L60.404 56.7618ZM58.5126 55.0017L58.4973 54.0029L58.4851 54.0032L58.5126 55.0017ZM56.5587 55.0557L55.5599 55.0499C55.5583 55.3206 55.6667 55.5803 55.8602 55.7696C56.0536 55.9589 56.3157 56.0616 56.5863 56.0542L56.5587 55.0557ZM56.5508 54.9649L56.5379 53.9661C56.2287 53.9701 55.9388 54.1171 55.7528 54.3641C55.5668 54.6112 55.5057 54.9304 55.5874 55.2286L56.5508 54.9649ZM58.3775 54.9413L58.3904 55.9401L58.3914 55.9401L58.3775 54.9413ZM60.4257 53.0143L59.4269 53.03L59.427 53.0343L60.4257 53.0143ZM58.6612 51.2554L58.711 50.2577C58.6973 50.257 58.6836 50.2566 58.6699 50.2565L58.6612 51.2554ZM57.5013 51.2453L57.4185 50.2498C56.8864 50.2941 56.4832 50.7489 56.5031 51.2824C56.5229 51.8159 56.9587 52.2395 57.4926 52.2441L57.5013 51.2453ZM71.0171 50.1213L71.0999 51.1167C71.1169 51.1153 71.134 51.1134 71.1509 51.1111L71.0171 50.1213ZM56.315 51.4054L56.2012 52.3977L56.2536 52.4037L56.3063 52.4042L56.315 51.4054ZM56.3161 51.2136L56.2657 50.216L56.2425 50.2172L56.2195 50.2194L56.3161 51.2136ZM58.6683 51.0947L58.7188 52.0923L58.7198 52.0923L58.6683 51.0947ZM58.7743 51.1851L57.7776 51.2525L57.778 51.2572L58.7743 51.1851ZM58.6805 51.2865L58.6334 50.2888L58.6301 50.2889L58.6805 51.2865ZM56.3271 51.4055L56.3184 52.4043L56.348 52.4046L56.3775 52.4031L56.3271 51.4055ZM56.1353 55.1566L56.144 54.1577L56.1296 54.1576L56.1151 54.1579L56.1353 55.1566ZM56.1304 54.9636L56.1506 55.9623L56.1657 55.962L56.1808 55.9612L56.1304 54.9636ZM58.4838 54.8446L58.4444 53.8464L58.4334 53.847L58.4838 54.8446ZM58.5898 54.9362L59.587 54.8775L59.5864 54.869L58.5898 54.9362ZM58.4948 55.0376L58.4475 54.0399L58.4444 54.04L58.4948 55.0376ZM56.1414 55.1566L56.1326 56.1555L56.1622 56.1557L56.1918 56.1542L56.1414 55.1566ZM57.1971 58.8462L57.2058 57.8474L57.1971 58.8462ZM54.8408 58.8257L54.8321 59.8245L54.8408 58.8257ZM54.8419 58.6329L54.8332 59.6317L54.8419 58.6329ZM57.1982 58.6534L57.2069 57.6546L57.1982 58.6534ZM73.8769 47.934C73.8382 47.5649 73.7244 47.2084 73.5438 46.8847L71.7994 47.8585C71.8496 47.9485 71.8799 48.0449 71.8901 48.1423L73.8769 47.934ZM73.5438 46.8847C73.3632 46.5612 73.1197 46.2775 72.829 46.0484L71.5923 47.6173C71.6794 47.686 71.7491 47.7684 71.7994 47.8585L73.5438 46.8847ZM72.829 46.0484C72.5385 45.8194 72.206 45.649 71.8512 45.5452L71.2905 47.4627C71.4027 47.4955 71.5051 47.5486 71.5923 47.6173L72.829 46.0484ZM71.8512 45.5452C71.4964 45.4415 71.1246 45.4059 70.7565 45.4404L70.9428 47.4294C71.06 47.4185 71.1783 47.4299 71.2905 47.4627L71.8512 45.5452ZM70.7812 45.4384L50.0675 46.8602L50.2043 48.8533L70.918 47.4315L70.7812 45.4384ZM50.0667 46.8603C50.3711 46.8391 50.6374 46.9748 50.801 47.1614C50.9275 47.3056 50.9604 47.4407 50.9649 47.4585C50.9756 47.501 50.9625 47.4707 50.9691 47.3111C50.9809 47.0224 51.042 46.5908 51.131 46.1007C51.2178 45.622 51.3234 45.1296 51.4111 44.7353C51.4884 44.3877 51.574 44.0239 51.5907 43.9153L49.6162 43.6113C49.618 43.5998 49.6097 43.6416 49.5749 43.7958C49.546 43.9238 49.5058 44.1001 49.461 44.3016C49.3712 44.7052 49.2591 45.2271 49.1653 45.7439C49.0736 46.2493 48.9909 46.7944 48.973 47.2289C48.9647 47.4308 48.9652 47.6987 49.0277 47.9466C49.058 48.0671 49.1263 48.2816 49.299 48.4785C49.5087 48.7177 49.8319 48.8791 50.2051 48.8532L50.0667 46.8603ZM51.5907 43.9156C51.8693 42.1103 51.874 39.9757 50.6977 38.1451L49.017 39.2251C49.7997 40.4431 49.868 41.98 49.6163 43.6109L51.5907 43.9156ZM50.6989 38.147C50.4398 37.7418 50.0606 37.3214 49.5867 37.0318C49.107 36.7385 48.4441 36.5343 47.7275 36.7674L48.3453 38.6672C48.3515 38.6652 48.3602 38.6625 48.3845 38.667C48.4143 38.6725 48.4685 38.6896 48.5448 38.7363C48.7056 38.8346 48.8818 39.0136 49.0159 39.2233L50.6989 38.147ZM47.7259 36.7679C46.862 37.0504 46.4714 37.7607 46.3082 38.3617C46.1504 38.9427 46.1564 39.5699 46.179 40.0239L48.1743 39.9245C48.1535 39.5086 48.1653 39.1461 48.2361 38.8854C48.2692 38.7633 48.3048 38.7054 48.3218 38.6839C48.3306 38.6728 48.3319 38.6716 48.3469 38.6667L47.7259 36.7679ZM46.1794 40.0323C46.3652 43.219 45.4844 46.0174 42.8422 47.7198L43.9242 49.3991C47.3844 47.1697 48.3843 43.5284 48.1738 39.9161L46.1794 40.0323ZM42.8437 47.7188C42.8059 47.7431 42.6794 47.8084 42.4192 47.9205C42.1777 48.0245 41.8753 48.1463 41.5245 48.2861C40.8327 48.5615 39.9699 48.8996 39.1509 49.2616C38.3436 49.6185 37.5131 50.0267 36.9032 50.4571C36.6036 50.6685 36.2894 50.9316 36.0679 51.2505C35.8382 51.5812 35.6304 52.0988 35.8425 52.6803L37.7194 51.9958C37.8109 52.2468 37.6901 52.4169 37.7087 52.3902C37.7353 52.3518 37.8306 52.2477 38.0551 52.0893C38.4935 51.7799 39.1705 51.4372 39.9586 51.0888C40.735 50.7456 41.5554 50.4241 42.2636 50.1421C42.6127 50.003 42.9393 49.8717 43.2097 49.7552C43.4614 49.6467 43.7295 49.5241 43.9227 49.4001L42.8437 47.7188ZM35.8427 52.6808C37.0119 55.8817 37.6746 59.2305 37.8092 62.6154L39.8054 62.536C39.6625 58.943 38.9591 55.3898 37.7192 51.9954L35.8427 52.6808ZM37.8092 62.6157C37.8164 62.7936 37.852 63.2844 38.281 63.6163C38.7027 63.9426 39.178 63.8561 39.3032 63.8336L38.9494 61.8674C38.9371 61.8696 38.9896 61.858 39.0758 61.8655C39.1727 61.8739 39.3393 61.9092 39.5034 62.0362C39.6683 62.1638 39.7449 62.3174 39.7774 62.4124C39.8063 62.4971 39.806 62.5503 39.8054 62.5358L37.8092 62.6157ZM39.305 63.8333C41.7256 63.393 43.6893 63.365 45.4098 63.4229C47.0838 63.4792 48.6998 63.6323 50.1835 63.52L50.0327 61.528C48.6931 61.6294 47.3314 61.4887 45.477 61.4263C43.6691 61.3655 41.5535 61.3938 38.9475 61.8678L39.305 63.8333ZM50.1207 63.5228L56.4113 63.4438L56.3862 61.4462L50.0956 61.5252L50.1207 63.5228ZM56.4138 63.4437C57.2113 63.4317 57.955 63.0741 58.4912 62.5778C59.0248 62.0839 59.4575 61.3513 59.4457 60.503L57.4481 60.5307C57.4501 60.6683 57.3716 60.892 57.1341 61.1118C56.8993 61.3292 56.612 61.4428 56.3837 61.4462L56.4138 63.4437ZM59.4456 60.495C59.4292 59.7493 59.1074 59.0485 58.5647 58.5413L57.2006 60.0009C57.3603 60.1501 57.444 60.3446 57.4483 60.5387L59.4456 60.495ZM58.5647 58.5413C58.0232 58.0353 57.3041 57.7601 56.5645 57.765L56.5779 59.7628C56.8163 59.7612 57.0397 59.8505 57.2006 60.0009L58.5647 58.5413ZM56.5429 57.7654L55.696 57.7895L55.7526 59.7864L56.5995 59.7624L56.5429 57.7654ZM56.7232 58.7937C56.7228 58.8517 56.717 58.8994 56.7116 58.9323C56.7064 58.9641 56.7008 58.9874 56.6993 58.9934C56.6985 58.9964 56.698 58.9985 56.6988 58.9954C56.6992 58.9938 56.701 58.9867 56.703 58.979C56.7068 58.9634 56.7146 58.9311 56.7215 58.8907L54.7521 58.5552C54.7571 58.5258 54.7624 58.5043 54.7636 58.4996C54.7641 58.4973 54.7646 58.4956 54.7636 58.4994C54.763 58.5016 54.7611 58.5091 54.7591 58.5175C54.7521 58.5459 54.7262 58.6497 54.7254 58.7822L56.7232 58.7937ZM55.7494 59.7217L58.3685 59.6887L58.3433 57.6911L55.7242 57.7241L55.7494 59.7217ZM58.371 59.6887C59.1313 59.6772 59.8665 59.3464 60.4099 58.86C60.9573 58.3701 61.3979 57.6399 61.4029 56.7676L59.4052 56.756C59.4041 56.9379 59.3088 57.1645 59.0776 57.3714C58.8426 57.5817 58.5567 57.6879 58.3407 57.6911L58.371 59.6887ZM61.4028 56.7449C61.3965 56.3732 61.3138 56.0075 61.1611 55.669L59.3402 56.4908C59.382 56.5834 59.4036 56.6812 59.4053 56.7788L61.4028 56.7449ZM61.1611 55.669C61.0084 55.3306 60.789 55.0271 60.5176 54.7745L59.1567 56.237C59.2367 56.3115 59.2984 56.3981 59.3402 56.4908L61.1611 55.669ZM60.5176 54.7745C60.2463 54.522 59.928 54.3252 59.5819 54.1935L58.8714 56.0606C58.9799 56.1019 59.0765 56.1625 59.1567 56.237L60.5176 54.7745ZM59.5819 54.1935C59.2359 54.0618 58.8674 53.9973 58.4973 54.003L58.5279 56.0005C58.646 55.9987 58.7629 56.0193 58.8714 56.0606L59.5819 54.1935ZM58.4851 54.0032L56.5312 54.0572L56.5863 56.0542L58.5402 56.0002L58.4851 54.0032ZM57.5576 55.0614C57.5576 55.0515 57.5644 54.8847 57.5142 54.7012L55.5874 55.2286C55.5686 55.1603 55.5631 55.1048 55.5611 55.0742C55.5595 55.0487 55.56 55.0289 55.5599 55.0499L57.5576 55.0614ZM56.5637 55.9637L58.3904 55.9401L58.3646 53.9425L56.5379 53.9661L56.5637 55.9637ZM58.3914 55.9401C59.1891 55.9289 59.9345 55.5715 60.4715 55.0754C61.0057 54.5819 61.4414 53.8469 61.4243 52.9943L59.427 53.0343C59.4296 53.1666 59.3542 53.3878 59.1158 53.608C58.8803 53.8256 58.5917 53.9393 58.3635 53.9425L58.3914 55.9401ZM61.4244 52.9987C61.4131 52.2795 61.1171 51.5991 60.6096 51.0932L59.1992 52.508C59.3472 52.6555 59.424 52.8431 59.4269 53.03L61.4244 52.9987ZM60.6096 51.0932C60.1032 50.5883 59.4237 50.2933 58.711 50.2577L58.6115 52.253C58.8406 52.2644 59.0501 52.3593 59.1992 52.508L60.6096 51.0932ZM58.6699 50.2565L57.5099 50.2464L57.4926 52.2441L58.6526 52.2542L58.6699 50.2565ZM57.584 52.2407L71.0999 51.1167L70.9343 49.1258L57.4185 50.2498L57.584 52.2407ZM71.1509 51.1111C71.9018 51.0096 72.5967 50.6486 73.1023 50.0843L71.6144 48.7512C71.4336 48.9529 71.1754 49.0919 70.8832 49.1314L71.1509 51.1111ZM73.1023 50.0843C73.6089 49.5189 73.8893 48.7888 73.8823 48.029L71.8847 48.0473C71.887 48.3002 71.7942 48.5504 71.6144 48.7512L73.1023 50.0843ZM56.4288 50.413C56.6373 50.4369 56.837 50.5344 56.9867 50.6972L55.5161 52.0493C55.6985 52.2478 55.9436 52.3682 56.2012 52.3977L56.4288 50.413ZM56.9867 50.6972C57.1373 50.861 57.2264 51.0802 57.225 51.3145L55.2273 51.303C55.2257 51.5847 55.3327 51.8499 55.5161 52.0493L56.9867 50.6972ZM57.225 51.3145C57.2237 51.5489 57.1319 51.7681 56.9778 51.9311L55.5265 50.5581C55.3392 50.7562 55.2289 51.021 55.2273 51.303L57.225 51.3145ZM56.9778 51.9311C56.8246 52.093 56.622 52.1875 56.4127 52.2078L56.2195 50.2194C55.961 50.2446 55.7129 50.3611 55.5265 50.5581L56.9778 51.9311ZM56.3665 52.2112L58.7188 52.0923L58.6179 50.0971L56.2657 50.216L56.3665 52.2112ZM58.7198 52.0923C58.4955 52.1038 58.27 52.0306 58.0922 51.8788L59.389 50.3592C59.1715 50.1736 58.894 50.0828 58.6168 50.0972L58.7198 52.0923ZM58.0922 51.8788C57.9131 51.726 57.7946 51.5026 57.7777 51.2525L59.7709 51.1177C59.7505 50.8168 59.6078 50.5459 59.389 50.3592L58.0922 51.8788ZM57.778 51.2572C57.7689 51.1321 57.7859 51.0068 57.8276 50.8889L59.7108 51.5557C59.761 51.414 59.7814 51.2633 59.7705 51.113L57.778 51.2572ZM57.8276 50.8889C57.8692 50.7714 57.934 50.6656 58.016 50.5769L59.4832 51.9326C59.5827 51.825 59.6607 51.6972 59.7108 51.5557L57.8276 50.8889ZM58.016 50.5769C58.0979 50.4881 58.1953 50.4185 58.3009 50.3699L59.1359 52.1848C59.2652 52.1253 59.3838 52.0403 59.4832 51.9326L58.016 50.5769ZM58.3009 50.3699C58.4065 50.3213 58.5194 50.2942 58.6334 50.2888L58.7277 52.2843C58.8679 52.2777 59.0066 52.2442 59.1359 52.1848L58.3009 50.3699ZM58.6301 50.2889L56.2767 50.4079L56.3775 52.4031L58.7309 52.2841L58.6301 50.2889ZM56.3358 50.4066L56.3237 50.4065L56.3063 52.4042L56.3184 52.4043L56.3358 50.4066ZM56.1151 54.1579C56.3407 54.1533 56.5655 54.2345 56.7391 54.394L55.388 55.8655C55.6003 56.0604 55.8766 56.1609 56.1555 56.1553L56.1151 54.1579ZM56.7391 54.394C56.9141 54.5546 57.0245 54.7843 57.031 55.0366L55.0339 55.0877C55.0416 55.3911 55.1745 55.6695 55.388 55.8655L56.7391 54.394ZM57.031 55.0366C57.0374 55.289 56.9386 55.5264 56.7685 55.6975L55.3517 54.2891C55.1448 54.4971 55.0261 54.784 55.0339 55.0877L57.031 55.0366ZM56.7685 55.6975C56.5998 55.8672 56.3764 55.9577 56.1506 55.9623L56.1101 53.9649C55.8311 53.9706 55.5571 54.0825 55.3517 54.2891L56.7685 55.6975ZM56.1808 55.9612L58.5343 55.8422L58.4334 53.847L56.0799 53.966L56.1808 55.9612ZM58.5232 55.8427C58.3009 55.8515 58.0781 55.7768 57.9029 55.6253L59.2095 54.1141C58.9946 53.9283 58.72 53.8356 58.4444 53.8465L58.5232 55.8427ZM57.9029 55.6253C57.7264 55.4727 57.6098 55.2511 57.5931 55.0033L59.5864 54.869C59.5662 54.5702 59.4255 54.3008 59.2095 54.1141L57.9029 55.6253ZM57.5926 54.9948C57.5853 54.8705 57.6037 54.7466 57.646 54.6308L59.5225 55.3162C59.5736 55.1764 59.5957 55.0272 59.5869 54.8775L57.5926 54.9948ZM57.646 54.6308C57.6883 54.5151 57.7531 54.4109 57.8349 54.3234L59.2936 55.6884C59.3931 55.5821 59.4715 55.4559 59.5225 55.3162L57.646 54.6308ZM57.8349 54.3234C57.9166 54.2361 58.0133 54.1676 58.118 54.1198L58.9477 55.9371C59.0763 55.8784 59.1943 55.7946 59.2936 55.6884L57.8349 54.3234ZM58.118 54.1198C58.2228 54.0719 58.3347 54.0452 58.4475 54.0399L58.5421 56.0354C58.6813 56.0288 58.8191 55.9958 58.9477 55.9371L58.118 54.1198ZM58.4444 54.04L56.0909 54.159L56.1918 56.1542L58.5453 56.0352L58.4444 54.04ZM56.1501 54.1578L56.144 54.1577L56.1266 56.1554L56.1326 56.1555L56.1501 54.1578ZM57.2058 57.8474L54.8495 57.8268L54.8321 59.8245L57.1883 59.8451L57.2058 57.8474ZM54.8495 57.8268C55.075 57.8288 55.2976 57.9163 55.467 58.0814L54.0729 59.5123C54.2798 59.7138 54.5534 59.8221 54.8321 59.8245L54.8495 57.8268ZM55.467 58.0814C55.6378 58.2478 55.7413 58.4815 55.7398 58.7341L53.7421 58.7227C53.7404 59.0264 53.8647 59.3094 54.0729 59.5123L55.467 58.0814ZM55.7398 58.7341C55.7384 58.987 55.6319 59.2208 55.4573 59.386L54.0842 57.9349C53.8717 58.136 53.7438 58.4186 53.7421 58.7227L55.7398 58.7341ZM55.4573 59.386C55.284 59.55 55.0587 59.6337 54.8332 59.6317L54.8506 57.634C54.5719 57.6316 54.2953 57.7352 54.0842 57.9349L55.4573 59.386ZM54.8332 59.6317L57.1894 59.6523L57.2069 57.6546L54.8506 57.634L54.8332 59.6317ZM57.1894 59.6523C56.9641 59.6503 56.7414 59.5628 56.5719 59.3977L57.9661 57.9668C57.7591 57.7653 57.4855 57.657 57.2069 57.6546L57.1894 59.6523ZM56.5719 59.3977C56.4012 59.2314 56.2977 58.9977 56.2992 58.745L58.2969 58.7564C58.2986 58.4526 58.1742 58.1697 57.9661 57.9668L56.5719 59.3977ZM56.2992 58.745C56.3006 58.4922 56.407 58.2584 56.5817 58.0931L57.9548 59.5442C58.1673 59.343 58.2951 59.0604 58.2969 58.7564L56.2992 58.745ZM56.5817 58.0931C56.7549 57.9291 56.9803 57.8454 57.2058 57.8474L57.1883 59.8451C57.4671 59.8475 57.7437 59.7439 57.9548 59.5442L56.5817 58.0931Z" fill="#DEB35C"/>
</svg>
