<svg width="101" height="100" viewBox="0 0 101 100" fill="none" xmlns="http://www.w3.org/2000/svg">
<path d="M83.5702 53.88L98.0089 62.5634C97.521 64.3613 96.9317 66.1312 96.2438 67.8644L79.3897 66.4483L89.3434 80.019C88.2076 81.5065 86.9874 82.9281 85.6891 84.2765L70.7355 76.5147L74.7053 92.9314C73.0917 93.8723 71.4285 94.7243 69.7232 95.4835L58.9437 82.5281L56.3131 99.2781C54.4681 99.5363 52.611 99.6875 50.7509 99.731L45.7792 83.6082L36.942 98.1543C35.1498 97.6849 33.3867 97.1145 31.6609 96.4457L33.263 79.5713L19.5828 89.674C18.1078 88.5538 16.6996 87.3486 15.3654 86.0645L23.2867 71.0278L6.83028 75.1705C5.90654 73.5675 5.07419 71.9129 4.33714 70.2144L17.3822 59.278L0.658544 56.8605C0.422444 55.0176 0.29125 53.1616 0.2656 51.3015L16.4389 46.1597L1.99056 37.4763C2.4777 35.6782 3.06702 33.9083 3.75564 32.1753L20.6098 33.5915L10.6561 20.016C11.7932 18.531 13.0133 17.1111 14.3104 15.7632L29.264 23.5154L25.2943 7.09389C26.908 6.15454 28.5712 5.30419 30.2763 4.54668L41.0704 17.4779L43.7011 0.723101C45.5462 0.467282 47.4032 0.316077 49.2632 0.270216L54.2301 16.393L63.0721 1.8517C64.8649 2.31726 66.6282 2.88612 68.3532 3.55545L66.7559 20.4299L80.4361 10.3223C81.9111 11.4425 83.3193 12.6477 84.6536 13.9319L76.7322 28.9734L93.1887 24.8307C94.1124 26.4337 94.9448 28.0883 95.6818 29.7868L82.6368 40.7184L99.3554 43.1696C99.5915 45.0141 99.7227 46.8717 99.7483 48.7333L83.5702 53.88Z" fill="#A7D4BD"/>
<path d="M73.6106 39.1071L74.573 38.8397C74.5645 38.8091 74.5546 38.779 74.5432 38.7494L73.6106 39.1071ZM70.7674 37.8857L71.0914 38.8306C71.0992 38.8279 71.107 38.8251 71.1148 38.8222L70.7674 37.8857ZM47.3002 45.9325L46.9762 44.9877L46.9755 44.9879L47.3002 45.9325ZM46.5739 41.0634L45.5809 41.1718L45.581 41.1721L46.5739 41.0634ZM44.1424 35.4332L43.4688 36.1708L43.4704 36.1723L44.1424 35.4332ZM41.7414 34.8793L41.1971 34.0417L41.1958 34.0426L41.7414 34.8793ZM41.447 37.75L40.4962 38.0563L40.4989 38.0642L41.447 37.75ZM39.7239 48.8319L40.4626 49.5043L40.4638 49.5029L39.7239 48.8319ZM33.2724 55.2348L32.4545 55.8083L32.4548 55.8087L33.2724 55.2348ZM38.7772 66.424L37.8234 66.7206L37.8234 66.7209L38.7772 66.424ZM39.2303 66.6425L39.6556 67.5463L39.6573 67.5455L39.2303 66.6425ZM51.8041 62.8694L51.5335 61.9079C51.5133 61.9136 51.4932 61.9199 51.4734 61.9268L51.8041 62.8694ZM59.04 60.8328L59.3106 61.7943L59.3131 61.7936L59.04 60.8328ZM60.8076 57.9741L61.7688 57.7022L61.7666 57.6945L60.8076 57.9741ZM58.1006 56.531L57.8357 55.5679C57.8287 55.5698 57.8218 55.5718 57.8149 55.5738L58.1006 56.531ZM57.1306 56.8206L56.1643 57.0735C56.2329 57.3355 56.4049 57.5585 56.641 57.6912C56.8771 57.824 57.1569 57.8552 57.4164 57.7777L57.1306 56.8206ZM57.1249 56.7417L56.8542 55.7802C56.3901 55.9109 56.0855 56.3545 56.1304 56.8346L57.1249 56.7417ZM60.1375 55.8936L60.4082 56.8551L60.4106 56.8545L60.1375 55.8936ZM61.9052 53.0349L62.8715 52.7819C62.8696 52.7746 62.8676 52.7673 62.8655 52.76L61.9052 53.0349ZM59.1779 51.5884L58.9046 50.6276L58.8928 50.6311L59.1779 51.5884ZM56.9395 52.2549L55.9731 52.5079C56.0417 52.7697 56.2136 52.9926 56.4495 53.1254C56.6854 53.2582 56.9651 53.2895 57.2245 53.2123L56.9395 52.2549ZM56.9022 52.1526L56.6312 51.1912C56.3336 51.2751 56.0916 51.4921 55.9759 51.7789C55.8602 52.0656 55.8838 52.3898 56.0399 52.6567L56.9022 52.1526ZM59.0032 51.5604L59.2742 52.5218L59.2752 52.5216L59.0032 51.5604ZM60.7712 48.703L59.8105 48.9767L59.8117 48.9808L60.7712 48.703ZM58.1908 47.2186L57.9807 46.242C57.9673 46.2449 57.954 46.2481 57.9407 46.2515L58.1908 47.2186ZM56.8489 47.5657L56.5113 46.6256C56.0089 46.806 55.7371 47.3497 55.8943 47.8598C56.0516 48.37 56.5822 48.6664 57.099 48.5327L56.8489 47.5657ZM72.1007 42.0885L72.4383 43.0286C72.4544 43.0228 72.4704 43.0166 72.4862 43.01L72.1007 42.0885ZM55.5293 48.1173L55.6762 49.1053L55.7283 49.0975L55.7794 49.0843L55.5293 48.1173ZM55.4713 47.8957L55.1643 46.9451L55.1423 46.9522L55.1207 46.9603L55.4713 47.8957ZM58.1493 47.031L58.4562 47.9815L58.4573 47.9812L58.1493 47.031ZM58.2995 47.1025L57.3543 47.4255L57.3559 47.43L58.2995 47.1025ZM58.2227 47.2486L57.919 46.297L57.9158 46.298L58.2227 47.2486ZM55.5433 48.1136L55.7934 49.0807L55.822 49.0733L55.8502 49.0642L55.5433 48.1136ZM56.482 52.5023L56.2319 51.5353L56.2179 51.5389L56.204 51.5429L56.482 52.5023ZM56.4166 52.2811L56.6946 53.2405L56.7091 53.2363L56.7235 53.2317L56.4166 52.2811ZM59.0961 51.4159L58.7997 50.462L58.7891 50.4654L59.0961 51.4159ZM59.2466 51.4889L60.1947 51.1742L60.1919 51.1661L59.2466 51.4889ZM59.1684 51.6354L58.8645 50.6838L58.8615 50.6848L59.1684 51.6354ZM56.489 52.5005L56.7391 53.4676L56.7677 53.4602L56.7959 53.4511L56.489 52.5005ZM58.8485 56.4324L58.5984 55.4654L58.8485 56.4324ZM56.1226 57.1374L56.3727 58.1044L56.1226 57.1374ZM56.0642 56.9145L56.3143 57.8816L56.0642 56.9145ZM58.7901 56.2096L58.54 55.2425L58.7901 56.2096ZM74.5432 38.7494C74.394 38.3602 74.1668 38.0063 73.8763 37.7073L72.4435 39.0994C72.5474 39.2064 72.6265 39.3307 72.678 39.4648L74.5432 38.7494ZM73.8763 37.7073C73.586 37.4084 73.2386 37.1709 72.8556 37.0063L72.067 38.8418C72.212 38.9041 72.3394 38.9923 72.4435 39.0994L73.8763 37.7073ZM72.8556 37.0063C72.4726 36.8418 72.0608 36.7531 71.6438 36.7437L71.5985 38.7409C71.7628 38.7446 71.922 38.7795 72.067 38.8418L72.8556 37.0063ZM71.6438 36.7437C71.2268 36.7342 70.8112 36.8041 70.4201 36.9492L71.1148 38.8222C71.2697 38.7648 71.4342 38.7372 71.5985 38.7409L71.6438 36.7437ZM70.4434 36.9408L46.9762 44.9877L47.6242 46.8774L71.0914 38.8306L70.4434 36.9408ZM46.9755 44.9879C47.2577 44.8909 47.544 44.9521 47.7446 45.0861C47.8985 45.1889 47.9599 45.3043 47.9638 45.3113C47.9751 45.3316 47.9458 45.278 47.9031 45.0877C47.8244 44.737 47.7606 44.2087 47.7116 43.614C47.6635 43.0309 47.6329 42.4271 47.6122 41.9439C47.5934 41.5085 47.5802 41.0767 47.5669 40.9547L45.581 41.1721C45.5804 41.167 45.584 41.2273 45.5913 41.4113C45.5976 41.5685 45.6057 41.7836 45.6163 42.0297C45.6374 42.5224 45.6693 43.1564 45.7206 43.7781C45.7709 44.3883 45.8432 45.0318 45.9538 45.525C46.0058 45.7565 46.0844 46.0429 46.2189 46.2842C46.2845 46.4017 46.4113 46.5979 46.6347 46.7471C46.9048 46.9277 47.2648 47.001 47.625 46.8772L46.9755 44.9879ZM47.5669 40.9551C47.332 38.8024 46.6856 36.3954 44.8143 34.6941L43.4704 36.1723C44.803 37.3837 45.3652 39.1946 45.5809 41.1718L47.5669 40.9551ZM44.8159 34.6955C44.4083 34.3233 43.8658 33.973 43.2636 33.7953C42.6548 33.6157 41.89 33.5915 41.1971 34.0417L42.2856 35.7169C42.341 35.6809 42.4547 35.6395 42.6983 35.7114C42.9486 35.7853 43.2325 35.955 43.4688 36.1708L44.8159 34.6955ZM41.1958 34.0426C40.3616 34.5866 40.1431 35.4505 40.1407 36.1582C40.1383 36.8452 40.3309 37.5428 40.4963 38.0563L42.3978 37.4438C42.2441 36.9667 42.1372 36.5202 42.1384 36.1651C42.1396 35.8307 42.2279 35.7545 42.287 35.716L41.1958 34.0426ZM40.4989 38.0642C41.7118 41.7242 41.5707 45.3087 38.984 48.1608L40.4638 49.5029C43.7042 45.93 43.7422 41.5004 42.3952 37.4358L40.4989 38.0642ZM38.9852 48.1595C38.937 48.2125 38.7993 48.3359 38.5343 48.5453C38.2854 48.7419 37.972 48.9776 37.6104 49.2472C36.8958 49.7801 36.0081 50.4345 35.1784 51.1028C34.3586 51.763 33.5391 52.4809 32.9814 53.1505C32.7066 53.4804 32.442 53.8607 32.2962 54.266C32.1456 54.6847 32.0794 55.2733 32.4545 55.8083L34.0902 54.6613C34.2239 54.852 34.1507 55.0126 34.1761 54.9422C34.2062 54.8583 34.3006 54.6882 34.5164 54.429C34.9399 53.9206 35.628 53.3057 36.4315 52.6586C37.2249 52.0196 38.0759 51.3921 38.8047 50.8487C39.1647 50.5801 39.4991 50.329 39.7728 50.1128C40.0304 49.9093 40.2901 49.6938 40.4626 49.5043L38.9852 48.1595ZM32.4548 55.8087C34.8057 59.1578 36.6152 62.8362 37.8234 66.7206L39.731 66.1273C38.4609 62.0439 36.5592 58.1787 34.0899 54.6609L32.4548 55.8087ZM37.8234 66.7209C37.884 66.9154 38.0545 67.3937 38.5667 67.6082C39.0704 67.8192 39.5217 67.6093 39.6556 67.5463L38.8049 65.7387C38.7843 65.7484 38.8236 65.7266 38.9013 65.7128C38.9897 65.6972 39.1531 65.6879 39.3385 65.7655C39.5249 65.8436 39.6334 65.9676 39.6846 66.0439C39.7298 66.1112 39.739 66.1532 39.7309 66.127L37.8234 66.7209ZM39.6573 67.5455C42.3315 66.281 44.6035 65.6375 46.6154 65.1703C48.5821 64.7136 50.4703 64.3958 52.1347 63.812L51.4734 61.9268C49.9454 62.4628 48.306 62.7268 46.1636 63.2243C44.0664 63.7113 41.6478 64.3944 38.8033 65.7395L39.6573 67.5455ZM52.0747 63.8309L59.3106 61.7943L58.7694 59.8713L51.5335 61.9079L52.0747 63.8309ZM59.3131 61.7936C60.1764 61.5483 60.8874 60.9401 61.3314 60.2353C61.7735 59.5335 62.0259 58.611 61.7688 57.7022L59.8465 58.2459C59.9101 58.4708 59.8682 58.81 59.6411 59.1704C59.416 59.5278 59.0828 59.7822 58.7669 59.872L59.3131 61.7936ZM61.7666 57.6945C61.5322 56.8905 60.9792 56.2229 60.2411 55.8293L59.3013 57.5922C59.5768 57.7391 59.7687 57.9794 59.8487 58.2537L61.7666 57.6945ZM60.2411 55.8293C59.5044 55.4366 58.6407 55.3464 57.8357 55.5679L58.3656 57.494C58.6874 57.4055 59.0242 57.4445 59.3013 57.5922L60.2411 55.8293ZM57.8149 55.5738L56.8448 55.8635L57.4164 57.7777L58.3864 57.4881L57.8149 55.5738ZM58.0969 56.5676C58.1114 56.6228 58.1179 56.6693 58.1211 56.7014C58.1243 56.7323 58.1247 56.7553 58.1249 56.7603C58.1249 56.7629 58.1249 56.7645 58.1249 56.7608C58.1249 56.7586 58.1248 56.7507 58.1246 56.7422C58.1243 56.7251 58.1234 56.6908 58.1195 56.6489L56.1304 56.8346C56.1277 56.806 56.1273 56.7849 56.1272 56.7811C56.1272 56.7793 56.1272 56.778 56.1272 56.7825C56.1273 56.7854 56.1274 56.7936 56.1276 56.8028C56.1282 56.8342 56.1302 56.9433 56.1643 57.0735L58.0969 56.5676ZM57.3956 57.7032L60.4082 56.8551L59.8669 54.9321L56.8542 55.7802L57.3956 57.7032ZM60.4106 56.8545C61.2336 56.6205 61.9432 56.0439 62.3979 55.3482C62.8555 54.6481 63.1184 53.7253 62.8715 52.7819L60.9389 53.2878C61.0109 53.5632 60.9511 53.9102 60.7257 54.2551C60.4974 54.6044 60.1637 54.8478 59.8644 54.9328L60.4106 56.8545ZM62.8655 52.76C62.7506 52.3587 62.5547 51.9859 62.2903 51.6628L60.7442 52.9279C60.8377 53.0422 60.9054 53.172 60.9449 53.3098L62.8655 52.76ZM62.2903 51.6628C62.026 51.3398 61.6993 51.0737 61.3305 50.8781L60.3944 52.643C60.5323 52.7161 60.6506 52.8135 60.7442 52.9279L62.2903 51.6628ZM61.3305 50.8781C60.9617 50.6825 60.5578 50.561 60.1423 50.5186L59.9392 52.506C60.1019 52.5226 60.2564 52.5698 60.3944 52.643L61.3305 50.8781ZM60.1423 50.5186C59.7268 50.4761 59.3064 50.5134 58.9046 50.6277L59.4512 52.5492C59.6105 52.5039 59.7766 52.4893 59.9392 52.506L60.1423 50.5186ZM58.8928 50.6311L56.6544 51.2976L57.2245 53.2123L59.4629 52.5458L58.8928 50.6311ZM57.9058 52.002C57.9018 51.9866 57.8637 51.8181 57.7646 51.6486L56.0399 52.6567C56.0057 52.5982 55.9871 52.5488 55.9782 52.5226C55.971 52.5012 55.9671 52.4847 55.9731 52.5079L57.9058 52.002ZM57.1732 53.1141L59.2742 52.5218L58.7322 50.599L56.6312 51.1912L57.1732 53.1141ZM59.2752 52.5216C60.139 52.2771 60.8519 51.6686 61.2969 50.9638C61.7399 50.2622 61.9945 49.3365 61.7307 48.4252L59.8117 48.9808C59.8752 49.2 59.8356 49.5362 59.6077 49.8972C59.3818 50.255 59.047 50.5099 58.7312 50.5993L59.2752 52.5216ZM61.7319 48.4294C61.5107 47.6527 60.9917 46.9998 60.2924 46.5975L59.2961 48.3292C59.5555 48.4784 59.7352 48.712 59.8105 48.9767L61.7319 48.4294ZM60.2924 46.5975C59.5944 46.196 58.7681 46.0726 57.9807 46.242L58.4009 48.1951C58.7151 48.1275 59.0354 48.1792 59.2961 48.3292L60.2924 46.5975ZM57.9407 46.2515L56.5988 46.5986L57.099 48.5327L58.441 48.1856L57.9407 46.2515ZM57.1865 48.5058L72.4383 43.0286L71.7631 41.1484L56.5113 46.6256L57.1865 48.5058ZM72.4862 43.01C73.2798 42.678 73.9346 42.0784 74.3223 41.313L72.54 40.4104C72.3724 40.7415 72.0818 41.0137 71.7152 41.167L72.4862 43.01ZM74.3223 41.313C74.7105 40.5463 74.8028 39.6669 74.573 38.8397L72.6482 39.3745C72.7423 39.7132 72.7071 40.0806 72.54 40.4104L74.3223 41.313ZM55.3824 47.1293C55.5852 47.0991 55.7985 47.1406 55.9813 47.2566L54.9107 48.9433C55.1423 49.0903 55.415 49.1441 55.6762 49.1053L55.3824 47.1293ZM55.9813 47.2566C56.1651 47.3733 56.305 47.5581 56.3632 47.7802L54.4305 48.2862C54.5031 48.5632 54.6779 48.7955 54.9107 48.9433L55.9813 47.2566ZM56.3632 47.7802C56.4214 48.0026 56.3901 48.2333 56.2856 48.4264L54.5285 47.4759C54.3965 47.7198 54.358 48.009 54.4305 48.2862L56.3632 47.7802ZM56.2856 48.4264C56.1818 48.6184 56.0143 48.7589 55.8219 48.831L55.1207 46.9603C54.873 47.0532 54.6597 47.2332 54.5285 47.4759L56.2856 48.4264ZM55.7782 48.8462L58.4562 47.9815L57.8424 46.0804L55.1643 46.9451L55.7782 48.8462ZM58.4573 47.9812C58.2485 48.0488 58.017 48.0367 57.8106 47.9384L58.6699 46.1349C58.4072 46.0097 58.1103 45.9936 57.8414 46.0807L58.4573 47.9812ZM57.8106 47.9384C57.6027 47.8393 57.4338 47.6581 57.3543 47.4255L59.2447 46.7795C59.1456 46.4894 58.9341 46.2608 58.6699 46.1349L57.8106 47.9384ZM57.3559 47.43C57.3156 47.3139 57.2998 47.1909 57.3094 47.0687L59.301 47.2254C59.313 47.073 59.2934 46.9197 59.2432 46.775L57.3559 47.43ZM57.3094 47.0687C57.319 46.9469 57.3535 46.8303 57.4085 46.7256L59.1767 47.6555C59.2461 47.5236 59.2891 47.3774 59.301 47.2254L57.3094 47.0687ZM57.4085 46.7256C57.4636 46.6209 57.538 46.5304 57.6255 46.4578L58.9017 47.9947C59.0132 47.9021 59.1073 47.7874 59.1767 47.6555L57.4085 46.7256ZM57.6255 46.4578C57.7129 46.3852 57.8127 46.3309 57.919 46.297L58.5265 48.2001C58.6627 48.1567 58.7903 48.0872 58.9017 47.9947L57.6255 46.4578ZM57.9158 46.298L55.2364 47.1631L55.8502 49.0642L58.5296 48.1991L57.9158 46.298ZM55.2932 47.1466L55.2792 47.1502L55.7794 49.0843L55.7934 49.0807L55.2932 47.1466ZM56.204 51.5429C56.4158 51.4816 56.6485 51.5013 56.853 51.608L55.9288 53.3791C56.1888 53.5148 56.487 53.5408 56.76 53.4618L56.204 51.5429ZM56.853 51.608C57.059 51.7155 57.2218 51.9048 57.2919 52.142L55.3761 52.7083C55.4635 53.0041 55.6673 53.2427 55.9288 53.3791L56.853 51.608ZM57.2919 52.142C57.3621 52.3794 57.3287 52.6291 57.2112 52.834L55.4781 51.8403C55.3297 52.0992 55.2886 52.4122 55.3761 52.7083L57.2919 52.142ZM57.2112 52.834C57.0947 53.0372 56.9066 53.1791 56.6946 53.2405L56.1386 51.3217C55.8655 51.4009 55.6256 51.5831 55.4781 51.8403L57.2112 52.834ZM56.7235 53.2317L59.403 52.3665L58.7891 50.4654L56.1097 51.3306L56.7235 53.2317ZM59.3925 52.3698C59.1849 52.4343 58.9557 52.4202 58.7518 52.3215L59.6228 50.5236C59.3626 50.3975 59.0679 50.3787 58.7997 50.4621L59.3925 52.3698ZM58.7518 52.3215C58.5465 52.222 58.38 52.042 58.3014 51.8117L60.1919 51.1661C60.0935 50.8779 59.8844 50.6503 59.6228 50.5236L58.7518 52.3215ZM58.2986 51.8036C58.2602 51.6878 58.2462 51.5659 58.2569 51.4455L60.2468 51.6219C60.2602 51.4712 60.2426 51.3188 60.1946 51.1742L58.2986 51.8036ZM58.2569 51.4455C58.2675 51.3252 58.3024 51.2102 58.3577 51.1068L60.1199 52.0477C60.1897 51.9171 60.2335 51.7725 60.2468 51.6219L58.2569 51.4455ZM58.3577 51.1068C58.4128 51.0035 58.4868 50.9143 58.5736 50.8427L59.8454 52.3833C59.9563 52.2917 60.0503 52.1782 60.1199 52.0477L58.3577 51.1068ZM58.5736 50.8427C58.6605 50.7709 58.7594 50.7174 58.8645 50.6838L59.4724 52.5869C59.6075 52.5437 59.7344 52.4749 59.8454 52.3833L58.5736 50.8427ZM58.8615 50.6848L56.182 51.55L56.7959 53.4511L59.4754 52.5859L58.8615 50.6848ZM56.2389 51.5335L56.2319 51.5353L56.7321 53.4694L56.7391 53.4676L56.2389 51.5335ZM58.5984 55.4654L55.8725 56.1703L56.3727 58.1044L59.0985 57.3995L58.5984 55.4654ZM55.8725 56.1703C56.0857 56.1152 56.3181 56.1414 56.52 56.2545L55.5438 57.9975C55.8002 58.1411 56.0978 58.1755 56.3727 58.1044L55.8725 56.1703ZM56.52 56.2545C56.7236 56.3685 56.8809 56.5634 56.9436 56.803L55.011 57.309C55.0892 57.6076 55.2857 57.8529 55.5438 57.9975L56.52 56.2545ZM56.9436 56.803C57.0064 57.0428 56.9648 57.291 56.8416 57.4915L55.1397 56.4453C54.9838 56.6988 54.9327 57.01 55.011 57.309L56.9436 56.803ZM56.8416 57.4915C56.7193 57.6904 56.5276 57.8264 56.3143 57.8816L55.8141 55.9474C55.5392 56.0185 55.2946 56.1933 55.1397 56.4453L56.8416 57.4915ZM56.3143 57.8816L59.0402 57.1766L58.54 55.2425L55.8141 55.9474L56.3143 57.8816ZM59.0402 57.1766C58.827 57.2318 58.5946 57.2056 58.3926 57.0924L59.3689 55.3495C59.1124 55.2058 58.8148 55.1714 58.54 55.2425L59.0402 57.1766ZM58.3926 57.0924C58.1891 56.9784 58.0319 56.7836 57.9691 56.544L59.9017 56.038C59.8235 55.7392 59.6269 55.494 59.3689 55.3495L58.3926 57.0924ZM57.9691 56.544C57.9064 56.3042 57.9478 56.056 58.0711 55.8554L59.773 56.9017C59.9289 56.6481 59.98 56.3368 59.9017 56.038L57.9691 56.544ZM58.0711 55.8554C58.1933 55.6566 58.385 55.5205 58.5984 55.4654L59.0985 57.3995C59.3735 57.3284 59.6181 57.1536 59.773 56.9017L58.0711 55.8554Z" fill="#253E2E"/>
</svg>
