<svg width="459" height="709" viewBox="0 0 459 709" fill="none" xmlns="http://www.w3.org/2000/svg">
<path d="M-184.22 221.492C-184.599 219.975 -185.016 218.496 -185.395 216.98C-65.5498 295.499 -42.1192 360.255 -42.1192 360.255C-42.1192 360.255 -68.2796 262.438 -7.69358 143.996C61.1955 212.885 34.3147 363.744 34.3147 363.744C34.3147 363.744 66.7309 232.145 172.775 161.891C200.301 252.808 103.773 387.932 103.773 387.932C103.773 387.932 203.068 282.419 314.004 282.419C271.957 401.581 120.682 459.665 120.682 459.665C120.682 459.665 232.414 419.06 299.938 486.584C210.007 548.99 97.0618 529.692 97.0618 529.692C97.0618 529.692 177.932 544.44 220.85 664.474C196.054 656.209 171.448 645.631 147.639 633.727C-17.2099 551.151 -137.662 399.913 -184.182 221.529L-184.22 221.492Z" fill="#153143"/>
<path d="M-20.8502 486.167L-9.24864 436.045L-65.9296 440.708L-39.4658 384.217L-104.298 388.918L-77.7965 331.1L-134.591 340.503L-110.706 292.276L-151.652 297.509L-137.624 267.329L-160.941 262.893L-160.372 259.822L-133.113 265.017L-146.458 293.679L-105.36 288.447L-129.094 336.446L-72.5644 327.081L-99.2935 385.43L-34.4233 380.691L-60.8112 437.182L-5.19188 432.595L-17.8172 486.849L-20.8502 486.167Z" fill="#A7D4BD"/>
<path d="M-1.05847 420.273L18.9599 387.971L-29.0766 364.806L23.32 323.859L-34.3467 293.035L22.4101 269.339L-27.1052 238.857L15.1686 219.483L-19.4845 197.948L8.49577 187.408L-8.64121 174.062L-6.7455 171.636L14.7515 188.356L-12.4326 198.63L21.7276 219.9L-20.5082 239.236L29.2345 269.87L-27.1051 293.376L29.007 323.404L-23.2001 364.161L23.4337 386.682L1.63336 421.904L-1.05847 420.273Z" fill="#A7D4BD"/>
<path d="M-3.3709 500.233L7.77568 440.936L54.0682 433.846L36.0213 398.889L91.5269 391.686L51.983 339.251L118.446 339.517L72.7218 288.409L146.426 280.675L109.688 236.202L158.103 239.956L135.696 203.52L164.928 206.516L157.155 186.004L160.075 184.905L169.591 210.117L141.687 207.236L163.904 243.557L116.74 239.842L152.492 283.177L79.1292 290.874L125.422 342.701L58.2767 342.36L97.1761 394.074L40.8364 401.354L58.8454 436.272L10.4296 443.741L-0.299919 500.801L-3.3709 500.233Z" fill="#A7D4BD"/>
<path d="M24.0786 464.366L24.6852 461.333L81.5936 473.655L71.319 436.385L134.976 441.807L128.152 387.894L183.657 406.547L170.729 343.952L224.528 377.506L212.775 319.043L256.262 346.833L256.224 298.039L285.796 318.284L292.507 295.878L295.464 296.787L287.541 323.289L259.333 303.953L259.371 352.521L217.249 325.64L229.002 383.951L175.24 350.435L187.79 411.211L131.829 392.406L138.578 445.257L75.4894 439.874L85.9536 477.787L24.0786 464.366Z" fill="#A7D4BD"/>
<path d="M33.5182 480.328L34.9968 477.56L88.6446 506.413L120.189 468.423L153.363 512.365L180.092 460.31L209.779 508.953L230.745 469.636L253.114 498.147L273.663 477.598L275.862 479.797L252.811 502.849L231.276 475.323L210.006 515.247L180.358 466.641L153.856 518.242L120.037 473.428L89.4408 510.394L33.5182 480.328Z" fill="#A7D4BD"/>
<path d="M22.3727 537.729L22.3727 489.276L25.4816 489.276L25.4815 533.407L69.3477 518.735L75.755 578.07L130.275 556.762L125.574 602.713L161.629 583.795L157.649 624.021L190.558 613.784L192.946 644.987L189.837 645.215L187.79 617.917L154.123 628.381L157.99 589.254L121.858 608.173L126.673 561.501L73.1011 582.468L66.6937 522.905L22.3727 537.729Z" fill="#A7D4BD"/>
</svg>
