<svg width="567" height="430" viewBox="0 0 567 430" fill="none" xmlns="http://www.w3.org/2000/svg">
<path d="M477.107 309.499C480.768 312.671 483.352 316.823 484.178 321.36C485.58 329.094 486.19 337.02 480.118 343.578C479.197 344.582 478.565 345.854 477.732 346.942C472.262 354.053 465.579 359.542 457.216 363.037C450.548 365.84 444.055 369.051 437.483 372.045C435.863 372.781 434.265 373.599 432.56 374.012C425.337 375.71 418.272 378.079 410.937 379.439C405.744 380.398 400.576 381.371 395.394 382.371C393.065 382.8 390.791 383.193 388.404 382.6C387.087 382.282 385.647 382.236 384.312 382.42C379.409 383.172 374.541 382.681 369.669 382.256C365.969 381.928 362.24 381.651 358.578 381.14C356.531 380.845 354.199 381.103 352.577 379.245C352.346 379.112 352.12 378.913 351.905 378.754C352.146 378.928 352.412 379.116 352.639 379.315C351.201 380.327 349.66 379.983 348.085 379.756C346.155 379.495 344.178 379.138 342.236 379.074C332.603 378.8 323.033 377.71 313.465 376.791C312.952 376.734 312.379 377.017 311.814 377.169C311.487 379.095 311.967 380.805 312.799 382.377C315.917 388.202 316.771 394.7 318.583 400.897C318.706 401.275 318.815 401.679 318.765 402.06C318.052 409.085 320.073 416.222 318.437 423.191C316.849 430.019 316.403 437.232 312.472 443.389C311.83 444.383 311.444 445.525 310.945 446.567C310.161 448.161 309.402 449.77 308.556 451.295C307.98 452.292 307.396 453.422 306.532 454.151C303.093 456.976 301.158 461.214 297.036 463.508C291.298 466.711 286.252 465.879 281.525 459.943C277.429 454.747 274.029 448.997 271.616 442.658C269.277 436.429 265.825 430.649 263.148 424.532C261.167 420.045 259.285 415.445 258.005 410.749C255.712 402.431 253.569 394.03 252.027 385.532C251.205 380.93 251.241 376.14 250.367 371.508C249.938 369.179 249.388 366.883 248.903 364.59L248.754 364.436L248.936 364.711C248.205 365.859 247.383 366.988 246.729 368.179C244.135 373.027 241.555 377.849 239.038 382.741C238.036 384.653 237.152 386.598 236.268 388.544C233.418 394.779 230.605 401.07 227.756 407.305C227.023 408.929 226.136 410.464 225.342 412.018C223.39 415.872 220.937 419.47 219.782 423.716C219.387 425.228 218.687 426.734 217.74 427.961C214.67 431.92 212.964 436.53 210.987 441.017C209.084 445.377 205.701 448.814 203.389 452.937C203.211 453.244 202.753 453.389 202.437 453.581C201.349 454.284 199.926 453.735 199.712 452.452C199.169 449.137 199.012 445.805 199.544 442.461C200.274 438.005 201.294 433.579 203.054 429.409C206.454 421.275 209.064 412.854 212.739 404.776C215.51 398.734 217.975 392.516 220.45 386.337C222.196 381.955 223.74 377.627 226.363 373.615C229.03 369.526 230.935 364.928 233.131 360.533C233.386 360.032 233.553 359.447 233.058 358.887C232.438 358.188 231.646 358.141 230.934 358.548C224.71 362.119 217.74 363.792 211.046 365.932C203.395 368.371 195.913 371.522 187.864 372.641C185.341 372.992 182.766 373.552 180.504 374.634C173.211 378.167 165.327 378.528 157.551 379.292C152.998 379.734 148.61 378.293 144.367 376.661C141.429 375.545 138.587 374.382 136.307 372.008C132.747 368.247 131.085 363.74 130.419 358.749C130.302 357.829 130.472 356.767 130.816 355.874C133.63 348.697 136.951 341.881 143.604 337.33C144.901 336.442 145.966 335.248 147.227 334.305C149.584 332.527 152.024 330.9 154.955 330.136C157.039 329.599 159.026 328.699 160.918 327.608C162.454 326.721 164.066 325.878 165.736 325.409C172.721 323.472 179.791 321.686 186.798 319.83C187.752 319.596 188.732 319.377 189.58 318.912C192.302 317.447 195.032 316.737 198.09 317.821C198.621 318.025 199.295 318.039 199.834 317.873C200.884 317.592 202.382 317.774 202.656 316.295C202.855 315.182 201.747 314.679 201.087 313.99C197.994 310.602 193.999 308.363 190.446 305.595C186.056 302.208 182.101 298.423 178.244 294.525C167.986 284.168 159.011 272.709 150.673 260.799C147.282 255.976 143.377 251.572 140.057 246.687C133.977 237.719 128.61 228.343 123.519 218.785C122.399 216.706 121.375 214.58 120.16 212.548C119.248 210.998 118.617 209.371 118.259 207.629C116.462 198.746 113.616 190.143 111.039 181.491C110.216 178.662 109.675 175.757 109.054 172.874C108.874 172.122 108.753 171.268 108.944 170.525C110.134 165.686 109.757 160.726 109.68 155.837C109.591 150.259 111.441 145.46 113.884 140.696C116.42 135.712 120.229 132.248 125.597 130.571C126.353 130.326 127.142 130.201 127.814 129.804C135.077 125.674 142.789 125.316 150.722 126.997C154.552 127.809 158.464 128.123 162.33 128.991C169.97 130.707 176.739 133.932 182.741 138.899C184.57 140.398 186.529 141.734 188.417 143.131C189.038 143.592 189.971 143.926 190.305 144.528C192.387 148.664 196.421 150.481 199.928 152.915C200.563 153.35 201.25 153.815 201.717 154.426C204.985 158.632 208.802 162.303 212.703 165.886C213.594 166.707 214.238 167.659 214.687 168.771C216.84 174.142 220.441 178.541 224.042 182.94C224.549 183.539 225 184.175 225.437 184.837C229.154 190.394 233.047 195.883 236.547 201.519C241.182 208.972 246.177 216.393 248.216 225.211C248.341 225.761 248.79 226.225 249.066 226.692C249.47 226.584 250.027 226.564 250.09 226.396C252.922 217.592 256.836 209.276 261.536 201.312C262.319 199.956 262.795 198.423 263.476 197.007C264.733 194.356 265.746 191.598 267.724 189.294C268.848 187.998 269.548 186.253 270.24 184.64C271.307 182.084 272.988 179.882 274.27 177.483C276.58 173.188 279.806 169.49 281.798 164.977C282.964 162.307 284.65 159.801 286.394 157.43C289.292 153.474 292.431 149.692 295.467 145.85C295.954 145.244 296.506 144.642 296.865 143.962C300.21 137.399 305.506 132.303 309.838 126.514C311.696 124.005 314.062 121.857 316.31 119.676C321.386 114.726 326.818 110.221 333.023 106.741C334.735 105.785 336.556 104.994 338.373 104.27C342.753 102.534 347.227 100.989 351.574 99.1321C361.924 94.7368 372.745 93.07 383.871 93.8304C390 94.2645 395.851 96.0055 400.267 100.943C401.693 102.551 403.553 103.761 405.218 105.132C409.365 108.584 411.789 112.303 413.374 117.653C413.825 119.176 414.211 120.694 414.772 122.144C419.07 133.018 417.255 143.842 414.232 154.514C412.918 159.214 411.157 163.86 408.547 168.084C408.034 168.914 407.583 169.813 407.34 170.765C405.868 176.329 402.936 181.288 400.33 186.334C396.297 194.205 391.943 201.926 387.562 209.631C385.597 213.034 383.07 216.112 381.222 219.548C377.793 225.96 373.216 231.642 369.367 237.778C366.88 241.732 363.449 245.073 360.491 248.721C358.991 250.55 357.542 252.409 356.196 254.327C354.168 257.249 352.293 260.26 348.878 261.803C348.184 262.118 347.453 262.617 347.017 263.253C343.617 268.078 338.943 271.861 335.897 276.96C335.823 277.088 335.928 277.319 335.957 277.506C337.031 278.126 338.234 277.934 339.341 277.789C346.158 276.914 353.106 277.582 359.874 275.964C360.975 275.712 362.25 275.868 363.388 276.082C365.742 276.554 368.084 276.575 370.413 276.146C370.989 276.035 371.609 275.847 372.158 275.96C377.661 277.124 383.109 275.664 388.587 275.688C389.95 275.691 391.335 275.774 392.701 275.948C397.927 276.646 403.16 277.45 408.391 278.081C412.555 278.609 416.173 280.733 420.096 281.974C421.772 282.498 423.33 283.227 425.173 283.166C429.047 283.014 432.022 285.721 435.613 286.532C436.946 286.824 438.181 287.639 439.507 287.825C445.439 288.657 450.745 291.345 456.154 293.615C460.145 295.271 463.895 297.402 467.173 300.352C469.633 302.591 472.361 304.542 475.005 306.58C475.981 307.314 476.794 308.091 476.983 309.359L476.936 309.264L477.107 309.499ZM188.745 290.047L189.031 289.905L188.801 289.772L188.745 290.047ZM307.781 133.208L307.908 133.52L308.107 133.293L307.781 133.208Z" fill="#A7D4BD"/>
<path d="M187.213 235.09C189.691 238.124 192.335 241.049 194.272 244.488C195.421 246.516 196.886 248.351 198.833 249.884C200.207 247.505 201.997 245.468 202.601 243.121C204.085 237.36 206.743 232.106 208.86 226.608C211.885 218.768 215.189 210.919 219.863 203.827C221.158 201.879 222.683 200.065 224.209 198.25C225.163 197.13 226.374 196.567 227.866 197.292C229.113 197.909 229.584 199.103 229.056 200.844C228.532 202.52 227.953 204.233 227.132 205.772C223.958 211.683 222.141 218.14 219.743 224.362C217.548 230.054 215.77 235.851 213.953 241.659C212.019 247.843 209.347 253.771 206.895 259.792C206.335 261.175 205.996 262.412 206.914 263.658C214.024 273.324 221.109 282.975 229.344 291.755C230.077 292.553 231.179 292.064 231.386 290.819C232.069 287.154 232.609 283.44 233.802 279.898C234.737 277.095 235.556 274.259 236.518 271.471C239.262 263.469 240.366 254.998 243.669 247.148C243.977 246.439 243.977 245.552 244.412 244.916C245.899 242.636 246.041 239.614 248.372 237.821C250.606 240.51 249.05 243.5 248.599 246.174C247.251 254.299 245.954 262.454 244.133 270.512C241.906 280.279 240.136 290.139 239.545 300.203C239.469 301.694 239.676 302.872 240.547 304.022C242.434 306.545 244.166 309.216 246.866 310.98C250.191 313.139 253.023 315.797 255.792 318.624C257.7 320.578 258.595 320.446 259.642 318.219C260.977 315.374 262.262 312.5 263.572 309.64C267.617 300.684 271.227 291.476 275.886 282.874C279.367 276.492 281.483 269.458 285.746 263.493C286.771 262.072 287.325 260.344 288.006 258.691C288.313 257.982 288.512 257.107 287.847 256.484C284.698 253.608 283.389 249.612 281.489 245.99C279.755 242.67 278.103 239.328 276.395 236.022C273.667 230.762 271.577 225.223 270.481 219.439C269.457 214.004 267.935 208.724 266.573 203.401C266.393 202.649 266.309 201.85 266.25 201.065C266.205 200.493 266.27 199.849 267.003 199.76C267.337 199.714 267.882 199.892 268.013 200.138C270.074 203.955 273.288 207.073 274.681 211.22C277.718 220.377 282.114 228.953 286.224 237.671C287.89 241.226 289.214 244.958 290.664 248.593C290.881 249.162 291.158 249.628 291.813 249.734C292.535 249.843 292.936 249.325 293.202 248.864C295.296 245.297 297.324 241.726 299.392 238.144C303.756 230.702 308.121 223.261 312.496 215.859C313.944 213.352 314.109 212.594 312.16 210.651C309.497 208.055 308.206 204.854 307.302 201.398C306.506 198.346 305.776 195.297 304.924 192.281C304.498 190.773 304.157 189.178 303.35 187.858C300.464 183.225 299.374 178.023 298.536 172.798C297.809 168.148 297.163 163.477 295.9 158.927C295.248 156.571 295.876 154.478 297.068 154.245C298.876 153.89 300.113 155.116 301.061 156.311C303.67 159.592 305.159 163.453 306.284 167.413C307.959 173.258 309.597 179.047 312.339 184.52C314.184 188.178 315.13 192.272 315.999 196.321C316.487 198.548 316.417 201.032 318.051 202.93C321.183 202.35 321.237 199.243 322.404 197.222C325.063 192.616 327.4 187.859 330.976 183.852C332.309 182.37 332.823 180.653 331.99 178.433C327.213 165.611 325.705 152.152 324.343 138.675C323.985 135.159 323.627 131.643 323.415 128.11C323.267 125.944 323.317 123.789 323.301 121.631C323.281 120.425 323.437 119.15 324.736 118.672C326.157 118.162 326.855 119.316 327.415 120.355C328.712 122.776 329.823 125.225 330.331 128.009C331.246 133.041 332.47 138.011 333.199 143.072C333.636 146.156 334.271 149.251 335.511 152.185C336.508 154.534 336.991 157.065 337.141 159.642C337.264 161.794 337.811 163.918 338.242 166.008C338.396 166.746 338.718 167.546 339.693 167.631C340.601 167.712 341.096 166.974 341.516 166.364C344.301 162.309 347.02 158.249 349.753 154.165C350.524 153.006 351.204 151.829 352.026 150.701C354.249 147.618 356.433 144.546 354.266 140.498C354.713 134.82 352.972 129.209 353.708 123.562C354.061 120.763 353.864 118.091 353.327 115.359C352.287 110.187 353.302 105.179 354.841 100.268C355.02 99.7224 355.29 99.1959 355.611 98.699C356.098 97.8546 357.55 97.7035 358.155 98.4281C358.636 99.0129 359.22 99.6568 359.429 100.358C359.786 101.689 360.047 103.069 360.045 104.432C359.958 109.192 360.538 113.859 361.76 118.419C362.279 120.357 362.285 122.237 361.822 124.221C361.355 126.271 361.184 128.458 361.691 130.593C361.925 131.546 361.916 132.803 362.874 133.152C364.48 133.738 364.624 132.013 365.217 131.162C368.784 125.989 372.668 121.033 376.312 115.904C380.261 110.304 385.252 105.442 390.684 101.175C391.434 100.584 392.225 99.7451 393.289 100.325C394.634 101.068 394.119 102.374 393.96 103.476C393.707 105.274 392.755 106.805 391.766 108.281C388.866 112.714 385.915 117.116 383.051 121.603C379.922 126.551 376.88 131.584 373.776 136.546C372.838 138.052 371.762 139.443 370.711 140.849C363.452 150.645 356.449 160.589 350.297 171.126C347.86 175.348 344.987 179.319 342.433 183.507C337.94 190.874 333.232 198.084 328.93 205.595C323.874 214.411 318.942 223.367 313.334 231.899C308.832 238.75 304.543 245.825 300.856 253.215C299.008 256.89 296.761 260.368 294.784 263.969C292.098 268.798 289.57 273.649 287.334 278.704C286.231 281.205 285.037 283.688 283.392 285.946C281.302 288.798 280.377 292.29 278.656 295.39C275.124 301.743 272.222 308.425 269.074 315C268.393 316.415 267.815 317.889 267.211 319.349C264.721 325.553 262.246 331.731 258.801 337.52C253.716 346.15 249.118 355.06 244.776 364.117C243.659 366.406 242.615 368.806 240.544 370.442C239.974 370.897 239.162 371.418 238.421 370.751C238.03 370.423 237.641 369.857 237.592 369.351C237.406 367.368 237.668 365.438 238.585 363.613C240.37 360.107 241.988 356.538 243.875 353.09C246.613 348.053 248.561 342.73 250.666 337.429C251.103 336.317 250.308 335.449 249.182 335.686C248.995 335.714 248.793 335.768 248.617 335.837C241.15 338.963 233.112 340.121 225.467 342.667C220.443 344.338 215.231 345.388 210.084 346.681C208.929 346.969 207.734 347.03 206.625 347.413C198.077 350.461 189.148 351.923 180.372 354.123C170.28 356.654 159.987 358.115 149.773 360.03C146.787 360.592 143.894 360.286 141.237 358.683C140.955 358.521 140.679 358.054 140.699 357.725C140.693 357.38 140.988 356.868 141.245 356.778C142.519 356.285 143.825 355.914 145.157 355.557C147.957 354.785 150.847 354.27 153.644 352.201C150.08 350.28 147.313 347.864 144.561 345.422C143.82 344.755 143.064 344.114 142.419 343.4C141.712 342.617 141.547 341.601 142.105 340.695C142.766 339.609 143.82 339.024 145.105 339.22C147.072 339.537 148.845 340.424 150.441 341.619C153.279 343.735 156.206 345.697 158.929 347.952C161.083 349.775 163.291 350.265 166.008 349.753C172.797 348.453 179.308 346.276 185.967 344.492C186.451 344.362 187.065 343.83 187.159 343.372C187.249 342.981 186.801 342.279 186.407 342.017C182.695 339.464 178.839 337.102 175.231 334.371C172.901 332.616 170.862 330.415 168.76 328.383C168.199 327.82 167.982 327.013 168.374 326.216C168.874 325.174 169.768 325.042 170.83 325.212C172.837 325.517 174.555 326.441 176.21 327.533C177.84 328.611 179.421 329.831 181.125 330.78C185.756 333.454 189.856 336.81 193.643 340.532C194.782 341.633 195.869 341.817 197.359 341.483C202.88 340.133 208.422 338.864 213.976 337.636C217.035 336.946 220.116 336.337 223.19 335.621C223.539 335.549 223.914 335.254 224.076 334.973C224.431 334.359 224.001 333.804 223.515 333.523C220.623 331.854 217.732 330.184 214.815 328.5C211.361 326.506 208.449 323.869 205.974 320.769C205.493 320.184 205.167 319.45 204.891 318.745C204.584 317.919 205.641 316.619 206.52 316.752C207.099 316.813 207.758 316.852 208.189 317.169C211.678 319.695 215.719 321.381 218.927 324.392C222.397 327.658 226.535 329.945 230.629 332.309C232.088 333.151 233.582 333.399 235.165 333.256C236.511 333.112 237.937 332.946 239.185 332.438C243.906 330.524 249.172 330.563 253.824 328.473C253.677 327.842 253.709 327.314 253.482 327.115C250.997 324.861 248.581 322.546 245.937 320.507C241.599 317.15 237.142 313.997 233.942 309.318C232.201 306.778 229.535 304.897 227.408 302.612C222.624 297.427 217.854 292.217 213.168 286.919C211.619 285.172 210.433 283.089 209.038 281.191C206.715 278.008 204.652 274.667 201.953 271.779C198.542 268.172 196.198 263.783 193.575 259.641C189.353 253.008 185.488 246.171 180.396 240.161C179.011 238.542 178.155 236.479 176.979 234.674C173.289 228.894 170.11 222.76 165.538 217.561C162.098 210.048 156.684 203.648 153.148 196.182C150.868 191.386 147.751 187.096 145.61 182.176C139.465 168.121 133.779 153.921 131.12 138.672C131.063 138.298 131.047 137.913 131.096 137.533C131.119 137.375 131.281 137.094 131.388 137.087C131.732 137.081 132.289 137.061 132.424 137.242C133.108 138.421 133.898 139.593 134.284 140.874C136.94 149.333 141.115 157.168 144.476 165.351C144.846 166.247 145.322 167.136 145.938 167.901C146.331 168.401 147.09 168.327 147.375 167.775C147.811 166.901 148.12 165.953 148.296 164.998C150.008 155.001 153.816 145.806 158.945 137.1C159.624 135.923 160.231 134.635 161.615 134.07C162.239 133.816 163.391 134.243 163.565 134.888C163.986 136.462 163.672 137.952 163.156 139.497C161.402 144.898 159.725 150.343 158.048 155.788C157.524 157.464 157.062 159.21 156.772 160.953C155.939 165.999 154.832 170.989 153.008 175.803C151.936 178.664 152.409 181.155 153.981 183.631C156.823 188.104 159.555 192.649 162.437 197.111C163.915 199.396 164.646 202.207 166.866 204.034C167.472 204.521 167.994 205.095 168.884 205.916C170.838 203.359 171.412 200.416 172.142 197.733C175.652 184.681 181.992 172.99 188.848 161.528C189.864 159.829 191.043 158.258 192.737 157.156C193.384 156.744 194.268 156.572 194.907 157.18C195.293 157.574 195.653 158.191 195.637 158.693C195.371 162.463 193.944 165.938 192.441 169.368C189.294 176.592 186.381 183.882 184.285 191.473C183.071 195.821 182.442 200.336 181.294 204.688C180.414 208.103 179.413 211.551 177.962 214.773C176.804 217.311 177.176 219.266 178.57 221.401C181.289 225.496 183.968 229.601 186.607 233.717C186.909 234.198 186.99 234.825 187.182 235.379L187.019 235.012L187.219 235.196L187.213 235.09Z" fill="#E4DCCF"/>
</svg>
