<svg width="310" height="474" viewBox="0 0 310 474" fill="none" xmlns="http://www.w3.org/2000/svg">
<path d="M188.465 22.6961C144.715 64.653 260.325 157.465 289 264.481C180.785 70.9609 77.8721 56.4747 77.0063 119.951C76.1405 183.428 205.592 179.014 281.289 307.24C200.734 206.442 57.8439 186.961 51.1404 228.652C44.4369 270.342 53.7645 289.824 173.246 304.548C292.728 319.273 321.439 416.202 321.439 416.202L349.647 408.643C318.964 114.446 232.241 -19.3058 188.465 22.6961Z" fill="#DEB35C"/>
<path d="M334.833 407.858C333.84 408.124 332.762 407.652 332.345 406.661C257.553 236.397 75.0423 236.812 73.225 236.843C72.049 236.853 71.08 235.934 71.0692 234.758C71.0583 233.582 71.9777 232.613 73.1537 232.602C75.0064 232.562 260.324 232.118 336.219 404.939C336.7 406.026 336.195 407.265 335.143 407.737C335.037 407.765 334.93 407.794 334.824 407.822L334.833 407.858Z" fill="#A94C2E"/>
<path d="M326.849 365.426C325.784 365.712 324.678 365.133 324.322 364.088C258.124 182.888 100.019 102.794 98.4377 102.001C97.3864 101.484 96.9636 100.19 97.4806 99.1389C97.9975 98.0877 99.2559 97.6744 100.343 98.1819C101.96 98.9655 261.53 179.846 328.343 362.63C328.754 363.737 328.168 364.959 327.097 365.36C327.026 365.379 326.991 365.388 326.92 365.407L326.849 365.426Z" fill="#A94C2E"/>
<path d="M327.74 335.257C327.74 335.257 327.705 335.266 327.669 335.276C326.524 335.545 325.381 334.824 325.112 333.679C276.258 122.542 204.748 36.6251 204.03 35.7907C203.257 34.8948 203.395 33.5648 204.256 32.8018C205.152 32.0293 206.482 32.1673 207.245 33.0278C207.963 33.8622 280.134 120.401 329.221 332.692C329.48 333.802 328.795 334.936 327.695 335.231L327.74 335.257Z" fill="#A94C2E"/>
</svg>
