<svg width="351" height="529" viewBox="0 0 351 529" fill="none" xmlns="http://www.w3.org/2000/svg">
<path d="M196.299 291.845C194.66 288.322 191.721 286.137 189.742 283.217C188.085 280.805 186.219 278.488 184.788 275.926C183.714 273.986 182.338 272.346 180.794 270.802C178.721 268.729 176.498 266.77 174.426 264.698C173.22 263.492 172.146 262.154 171.11 260.817C168.906 257.972 166.457 255.523 163.216 253.752C157.319 250.492 157.357 250.379 152.195 244.012C148.201 239.076 143.962 234.309 140.458 228.959C138.838 226.472 136.878 224.249 134.147 222.874C131.867 221.724 130.435 219.614 128.627 217.919C124.218 213.774 119.998 209.441 116.174 204.75C115.043 203.356 114.29 201.924 114.685 200.059C115.232 197.553 117.832 195.707 120.752 196.178C123.182 196.574 125.688 197.12 127.911 198.1C130.982 199.437 134.109 200.002 137.406 200.059C140.552 200.115 143.585 200.85 146.449 202.056C152.741 204.693 158.977 207.387 164.836 210.948C169.207 213.586 173.653 216.148 178.721 217.297C179.324 217.448 179.927 217.749 180.511 217.693C185.805 217.222 190.439 219.407 195.244 221.122C201.95 223.495 208.582 226.133 215.647 227.32C218.416 227.791 221.092 228.582 223.597 229.882C224.144 230.165 224.728 230.372 225.33 230.56C226.498 230.937 227.29 230.41 227.045 229.298C226.781 228.092 226.611 226.792 225.99 225.756C223.39 221.536 221.318 217.015 218.473 212.926C215.27 208.367 212.105 203.733 209.166 198.985C205.36 192.768 201.197 186.758 198.446 179.976C197.862 178.525 197.222 177.093 196.901 175.605C195.375 168.917 192.964 162.549 190.364 156.219C185.692 144.878 181.415 133.404 177.271 121.874C176.743 120.405 176.065 119.049 175.311 117.692C174.539 116.317 174.124 114.885 174.426 113.227C174.878 110.59 176.102 109.365 178.74 109.29C180.002 109.271 181.227 109.553 182.32 110.194C183.94 111.098 185.673 111.927 187.086 113.114C191.231 116.581 195.507 119.878 199.426 123.645C202.365 126.471 205.794 128.619 209.75 129.749C210.334 129.919 210.899 130.258 211.521 130.352C216.984 131.332 221.054 134.648 224.878 138.359C226.536 139.979 228.119 141.713 230.229 142.805C230.775 143.088 231.265 143.502 231.661 143.973C236.559 149.964 242.757 154.768 247.071 161.268C251.612 168.107 256.698 174.588 260.937 181.653C261.898 183.254 263.179 184.648 264.083 186.268C267.343 192.09 270.508 197.93 273.71 203.77C274.37 204.995 274.973 206.276 275.726 207.444C276.028 207.896 276.687 208.442 277.158 208.424C277.818 208.405 278.062 207.595 277.987 206.954C277.648 203.978 278.289 201.076 278.477 198.137C278.929 191.167 278.986 184.215 278.402 177.225C277.949 171.536 277.874 165.771 277.761 160.043C277.629 154.599 278.326 149.23 278.326 143.804C278.326 143.201 278.251 142.523 278.402 141.957C279.645 137.059 279.118 132.086 278.948 127.131C278.91 126.038 279.042 124.964 279.061 123.89C279.099 120.801 279.344 117.692 278.1 114.715C277.497 113.246 277.422 111.701 277.591 110.137C277.855 107.839 278.759 106.596 280.756 106.03C282.697 105.484 284.468 105.898 285.881 107.387C286.427 107.933 286.842 108.611 287.237 109.271C290.685 114.979 293.737 120.97 297.656 126.321C300.708 130.503 302.667 135.251 305.662 139.376C306.303 140.243 306.812 141.242 307.207 142.24C309.6 148.664 313.387 154.373 316.533 160.42C317.324 161.928 318.078 163.472 318.718 165.055C319.547 167.052 320.131 169.143 321.638 170.839C322.223 171.498 322.524 172.478 322.788 173.344C323.993 177.037 325.067 180.748 326.292 184.422C326.782 185.892 327.347 187.361 328.082 188.699C329.495 191.28 330.606 193.974 331.586 196.762C332.396 199.155 333.168 201.434 333.055 203.996C333.036 204.392 333.357 204.976 333.677 205.108C333.978 205.221 334.638 204.976 334.864 204.675C336.917 201.943 338.952 199.23 340.893 196.423C342.136 194.652 343.191 192.73 344.321 190.884C347.317 186.005 351.273 181.86 354.758 177.357C357.509 173.815 360.165 170.179 362.52 166.355C365.61 161.343 368.738 156.332 371.771 151.302C374.107 147.459 376.066 143.427 378.365 139.584C380.418 136.174 382.038 132.444 384.186 129.015C385.015 127.696 385.9 126.471 386.955 125.303C388.689 123.344 390.309 121.234 391.59 118.898C392.249 117.673 393.003 116.468 393.945 115.45C396.677 112.568 400.501 113.227 402.366 116.75C403.195 118.333 403.497 119.991 403.478 121.705C403.421 124.851 404.194 127.809 404.796 130.861C405.644 135.1 406.266 139.376 406.963 143.653C407.283 145.594 406.888 147.647 407.114 149.682C407.509 153.242 407.811 156.784 408.791 160.251C409.243 161.909 409.45 163.623 409.262 165.319C408.828 169.369 408.979 173.401 409.412 177.414C409.732 180.409 409.601 183.292 408.244 186.042C407.773 187.003 407.359 188.096 407.321 189.151C407.133 192.956 405.701 196.385 404.476 199.908C403.628 202.376 402.328 204.731 402.046 207.425C401.952 208.311 401.405 209.158 400.972 209.969C399.333 212.964 397.713 215.978 395.98 218.917C394.491 221.461 392.739 223.816 390.855 226.114C388.802 228.62 386.522 231.012 385.015 233.951C384.582 234.761 383.979 235.515 383.282 236.137C380.004 238.963 377.31 242.41 373.542 244.709C371.582 245.914 369.981 247.667 368.191 249.193C368.267 250.285 369.208 250.135 369.868 250.229C373.259 250.643 376.631 251.076 380.041 251.321C385.919 251.774 391.778 252.508 397.506 253.978C397.807 254.053 398.127 254.223 398.41 254.204C402.517 253.752 405.908 255.824 409.469 257.275C412.898 258.669 416.477 259.686 419.604 261.872C421.997 263.548 424.71 264.679 427.743 265.037C429.533 265.244 431.285 265.979 432.981 266.883C435.015 267.976 437.276 268.654 439.443 269.464C440.761 269.954 441.929 270.632 442.966 271.63C445 273.59 445.434 275.907 444.68 278.469C443.889 281.107 442.344 283.443 439.763 284.366C436.673 285.459 433.998 287.38 430.871 288.247C428.026 289.019 425.219 289.98 422.298 290.414C418.436 290.998 414.725 292.071 411.07 293.315C405.908 295.048 400.482 295.35 395.132 296.065C393.606 296.273 392.004 296.292 390.516 296.649C385.335 297.912 380.079 297.855 374.785 297.723C371.526 297.629 368.267 297.874 365.007 298.006C361.899 298.138 358.903 298.044 355.964 296.499C353.948 295.463 351.537 295.199 349.333 294.539C347.581 293.993 345.64 293.899 344.095 292.693C343.605 292.316 342.984 291.921 342.381 292.26C341.552 292.712 341.853 293.579 341.891 294.332C342.004 295.764 342.833 296.631 344.095 297.026C345.885 297.61 347.712 297.968 349.578 297.912C352.705 297.836 355.267 299.155 357.66 300.983C361.522 303.903 364.744 307.501 367.852 311.175C368.775 312.286 369.698 313.247 371.205 313.398C375.162 313.775 378.12 315.941 380.738 318.711C382.34 320.387 383.979 322.026 385.58 323.703C386.447 324.608 387.37 325.418 388.538 325.945C391.722 327.433 394.133 329.77 396.111 332.614C396.639 333.368 397.336 333.99 398.071 334.574C400.256 336.42 401.688 338.869 402.894 341.356C404.721 345.143 402.291 348.703 398.052 348.647C397.129 348.628 396.206 348.383 395.282 348.289C389.574 347.705 383.866 347.083 378.176 346.593C375.708 346.386 373.259 346.876 370.753 346.48C364.48 345.519 358.131 344.935 351.857 343.937C348.636 343.428 345.753 341.714 342.946 340.037C342.004 339.472 341.156 338.813 339.969 338.982C334.242 339.849 329.758 336.985 325.388 333.971C323.089 332.388 321.073 330.41 318.926 328.639C318.285 328.112 317.607 327.848 316.853 328.488C316.175 329.091 316.081 329.864 316.401 330.599C318.04 334.272 319.566 338.021 321.563 341.525C322.543 343.259 323.673 344.917 324.634 346.706C325.708 348.76 327.027 350.682 328.251 352.66C329.966 355.429 331.755 358.123 333.263 361.062C335.015 364.51 337.162 367.75 339.235 371.028C339.8 371.933 340.629 372.762 341.514 373.308C343.605 374.495 345 376.341 346.469 378.15C349.521 381.842 352.686 385.459 355.87 389.02C356.473 389.698 357.377 390.075 358.15 390.584C360.618 392.223 363.067 393.843 365.007 396.123C365.516 396.707 366.1 397.215 366.514 397.894C367.513 399.42 367.758 401.096 366.948 402.773C366.1 404.525 364.404 405.015 362.652 405.034C360.222 405.053 358.131 404.016 356.247 402.585C352.912 400.041 349.333 397.894 346.262 394.973C344.378 393.165 341.872 392.091 339.988 390.169C336.71 386.816 333.997 383.048 331.51 379.092C331.265 378.696 331.209 378.15 330.889 377.867C328.213 375.418 327.027 371.97 325.086 369.012C321.243 363.21 318.002 356.993 313.82 351.379C313.65 351.134 313.406 350.851 313.387 350.569C313.029 347.196 310.241 344.973 309.185 341.959C309.129 341.827 309.016 341.676 308.884 341.62C308.639 341.488 308.3 341.262 308.13 341.356C307.904 341.469 307.641 341.846 307.678 342.072C307.81 343.937 307.754 345.84 308.244 347.611C310.09 354.318 312.124 360.987 314.046 367.694C315.29 372.027 316.476 376.341 317.626 380.693C318.021 382.219 318.605 383.632 319.189 385.045C321.714 391.224 324.238 397.404 327.78 403.093C328.911 404.94 329.269 407.144 330.587 408.952C331.379 410.045 330.889 411.364 330.041 412.4C329.25 413.342 328.157 413.455 327.064 413.041C326.198 412.702 325.369 412.212 324.389 412.4C321.808 412.909 320.018 411.684 318.134 410.102C313.914 406.598 310.806 402.133 307.075 398.214C303.647 394.634 300.406 390.866 297.298 387.004C295.376 384.593 293.869 381.842 292.211 379.242C290.534 376.624 288.82 374.043 287.256 371.386C285.41 368.259 282.452 366.13 280.323 363.285C280.191 363.116 279.777 363.078 279.494 363.097C279.117 363.097 279.042 363.361 279.023 363.756C278.948 369.031 279.174 374.306 279.626 379.581C280.041 384.517 280.248 389.472 280.568 394.389C280.681 396.085 280.926 397.762 281.152 399.457C281.887 404.827 283.055 410.139 283.055 415.603C283.055 417.035 282.829 418.353 282.622 419.729C281.943 424.514 280.191 429.017 278.665 433.557C277.629 436.59 276.103 439.51 273.993 442.035C272.505 443.825 271.073 445.671 269.66 447.498C267.964 449.721 266.438 452.039 265.44 454.695C264.347 457.634 262.181 459.951 260.579 462.608C260.334 463.003 259.995 463.342 259.656 463.644C256.529 466.357 252.874 465.603 251.461 461.703C249.577 456.466 247.881 451.115 247.486 445.482C247.354 443.768 247.128 442.11 246.732 440.433C245.037 433.124 244.924 425.738 245.018 418.259C245.074 413.606 245.338 408.971 245.621 404.318C245.79 401.134 244.811 398.157 243.85 395.237C241.438 387.852 239.102 380.467 237.199 372.95C237.049 372.347 236.841 371.763 236.559 371.217C236.446 370.991 236.107 370.765 235.843 370.765C235.598 370.746 235.202 370.953 235.108 371.16C233.771 374.608 231.83 377.792 231.359 381.616C230.624 387.814 228.307 393.598 225.556 399.175C224.954 400.418 224.464 401.737 224.012 403.056C222.297 408.086 220.357 412.965 216.476 416.809C215.722 417.562 215.27 418.617 214.592 419.446C213.819 420.407 213.122 421.518 212.124 422.215C205.982 426.699 199.633 430.863 192.267 433.142C191.231 433.463 190.308 434.047 189.271 434.405C188.254 434.744 187.161 435.158 186.125 435.139C180.85 434.989 175.669 436.176 170.394 436.326C167.154 436.402 163.97 436.873 160.692 436.571C158.827 436.402 156.999 436.157 155.209 435.686C153.57 435.253 151.931 434.782 150.273 434.367C148.069 433.821 146.317 432.596 144.904 430.882C143.001 428.602 142.794 425.644 145.055 423.798C147.221 422.008 148.239 419.672 149.595 417.449C151.762 413.888 154.23 410.478 156.622 407.068C162.029 399.325 167.907 391.903 173.521 384.291C175.575 381.484 178.382 379.544 180.907 377.245C183.431 374.947 186.201 372.969 188.612 370.52C191.438 367.694 192.719 363.963 194.867 360.761C196.054 358.971 196.996 356.936 197.712 354.902C198.484 352.697 199.84 350.813 200.877 348.911C200.33 347.912 199.708 348.27 199.162 348.477C195.997 349.758 192.512 349.74 189.253 350.851C186.935 351.661 184.561 352.377 182.131 352.961C177.629 354.035 173.22 353.658 168.717 353.413C164.309 353.149 160.183 352.226 156.227 350.192C153.909 349.005 151.253 348.458 148.71 347.761C144.678 346.669 140.665 345.444 136.558 344.766C133.073 344.182 129.493 344.106 125.914 344.257C120.563 344.483 115.608 346.235 110.578 347.686C109.674 347.95 108.826 348.345 107.903 348.477C104.587 348.967 102.176 347.347 101.14 344.125C100.556 342.336 100.819 340.715 102.101 339.359C102.835 338.587 103.627 337.72 104.569 337.268C109.034 335.063 112.858 331.88 117.04 329.242C119.659 327.565 122.24 325.926 125.292 325.06C128.175 324.25 130.379 322.121 132.753 320.425C133.77 319.709 134.674 318.843 135.597 318.032C142.493 311.891 150.443 307.407 158.827 303.658C162.368 302.075 166.212 301.284 170.055 300.832C172.259 300.549 174.35 300.191 175.914 298.439C176.442 297.836 177.158 297.384 177.968 297.441C182.169 297.723 185.73 295.557 189.554 294.37C191.89 293.654 194.113 292.637 196.487 291.695L196.299 291.845ZM138.97 212.361C139.196 212.587 139.365 213.284 139.723 212.437C139.46 212.437 139.215 212.455 138.951 212.455C138.668 212.135 138.423 211.739 138.084 211.476C137.726 211.193 137.236 211.08 137.067 211.626C136.897 212.135 137.312 212.399 137.764 212.55C138.197 212.681 138.631 212.776 138.988 212.342L138.97 212.361ZM307.509 337.833C307.415 337.739 307.264 337.588 307.188 337.588C306.661 337.701 306.604 338.172 306.699 338.568C306.774 338.907 307.151 338.944 307.302 338.643C307.452 338.417 307.433 338.097 307.49 337.814L307.509 337.833Z" fill="#FFA98C"/>
<path d="M281.868 121.234C281.19 120.744 280.888 120.028 280.719 119.294C280.021 116.261 279.193 113.284 278.043 110.401C277.761 109.704 277.685 108.913 277.629 108.141C277.572 107.104 278.307 106.181 279.211 106.181C280.153 106.181 281.095 106.257 281.566 107.293C281.83 107.858 282 108.442 282.169 109.064C283.243 112.775 284.392 116.487 285.391 120.236C286.22 123.401 287.35 126.415 288.838 129.335C291.57 134.742 293.511 140.488 294.735 146.423C295.074 148.081 296.054 150.04 294.377 151.679C294.076 151.98 294 152.546 294.622 152.753C296.261 153.262 296.355 154.788 296.789 156.087C298.465 161.268 299.2 166.675 300.105 172.026C300.877 176.453 301.781 180.862 302.516 185.289C302.968 188.039 303.251 190.809 303.646 193.578C304.72 200.945 305.172 208.367 306.001 215.752C306.284 218.22 306.378 220.726 306.284 223.194C306.077 228.488 307.207 233.688 307.395 238.963C307.659 246.386 307.942 253.827 308.413 261.231C308.865 268.051 308.526 274.871 308.281 281.672C308.187 284.14 308.337 286.627 308.394 289.66C310.466 287.965 311.276 286.062 312.143 284.216C315.854 276.435 319.057 268.372 324.182 261.326C324.916 260.327 325.538 259.253 326.16 258.179C329.381 252.509 332.678 246.913 336.22 241.45C339.234 236.777 341.401 231.559 344.133 226.717C349.521 217.147 353.59 206.898 359.073 197.346C365.459 186.212 371.262 174.72 378.251 163.962C383.376 156.087 387.049 147.591 390.045 138.793C391.326 134.987 392.268 131.069 393.248 127.15C393.53 125.963 393.379 124.682 393.455 123.438C393.643 120.801 393.926 118.182 394.905 115.695C395.207 114.942 395.621 114.301 396.507 114.207C397.543 114.075 398.41 114.49 398.899 115.319C399.86 116.958 400.425 118.804 400.067 120.669C399.22 124.946 399.163 129.298 398.485 133.593C398.184 135.552 397.204 137.399 396.752 139.358C394.642 148.476 390.987 157.067 386.729 165.319C384.318 169.953 381.981 174.739 379.061 179.091C373.523 187.38 369.547 196.48 364.593 205.052C362.03 209.46 360.674 214.509 357.339 218.484C357.132 218.691 357.057 219.031 356.981 219.332C355.229 225.53 351.537 230.768 348.522 236.344C346.77 239.603 345.188 242.995 343.078 246.047C340.12 250.399 337.972 255.184 334.977 259.536C330.757 265.64 326.442 271.725 323.07 278.375C322.166 280.184 321.544 282.049 320.941 283.895C321.808 284.724 322.505 284.216 323.145 283.839C329.099 280.448 335.58 278.225 341.91 275.7C346.883 273.703 352.271 272.384 357.848 273.025C358.451 273.1 359.11 273.119 359.694 273.025C365.591 271.951 371.45 273.138 377.272 273.684C380.06 273.948 382.829 273.59 385.58 274.005C387.106 274.249 388.67 274.155 390.214 274.344C394.83 274.89 399.446 275.361 404.118 275.286C406.567 275.248 409.111 275.644 411.484 276.246C417.212 277.678 422.901 277.151 428.572 276.228C432.114 275.662 435.693 276.265 439.197 275.323C440.121 275.078 441.044 275.549 441.552 276.473C442.08 277.415 441.76 278.3 441.157 279.054C439.461 281.126 437.313 282.332 434.638 281.691C432.396 281.145 430.418 281.578 428.289 282.2C425.482 283.01 422.581 283.726 419.68 283.914C416.778 284.103 413.839 283.613 410.9 283.424C409.977 283.368 409.054 283.387 408.131 283.255C402.46 282.445 396.695 283.5 391.006 282.445C387.652 281.804 384.205 281.898 380.776 282.124C376.895 282.388 373.033 282.03 369.171 281.446C367.042 281.126 364.837 280.806 362.709 280.938C357.151 281.333 351.518 281.201 346.111 282.803C345.527 282.972 344.849 282.935 344.302 283.179C337.049 286.326 329.344 288.341 322.241 291.902C321.695 292.185 321.148 292.505 320.621 292.844C316.57 295.538 313.368 299.155 309.92 302.49C309.148 303.262 309.374 304.317 310.353 304.77C311.182 305.146 312.068 305.504 312.934 305.73C317.72 306.898 322.486 308.085 327.29 309.084C329.57 309.555 331.793 310.158 333.997 310.93C337.35 312.136 340.817 312.965 344.17 314.171C352.328 317.091 360.636 319.634 368.323 323.703C369.547 324.363 370.81 324.985 371.959 325.757C376.348 328.752 381.36 330.486 386.051 332.916C390.478 335.233 394.284 338.361 397.995 341.62C399.163 342.637 399.107 343.56 398.259 344.936C397.694 345.84 396.921 346.273 395.904 345.972C393.832 345.407 391.722 345.03 389.856 343.73C387.313 341.94 384.525 340.584 381.435 339.905C377.272 338.982 373.767 336.609 370.15 334.536C369.076 333.915 368.078 333.104 366.91 332.728C362.294 331.277 358.187 328.677 353.684 327C351.669 326.228 349.747 325.173 347.618 324.627C346.921 324.457 346.356 323.779 345.734 323.345L345.696 323.119L345.791 323.44C342.965 322.686 340.12 322.027 337.407 320.934C333.375 319.314 329.362 317.75 325.048 316.94C319.679 315.942 314.762 313.549 309.845 311.345C308.262 310.629 307.094 310.214 305.625 311.269C305.154 311.59 304.438 311.552 303.835 311.627C302.949 311.721 302.535 312.249 302.252 313.059C300.745 317.468 299.144 321.819 297.674 326.228C296.808 328.79 296.713 331.409 297.41 334.028C298.089 336.59 298.484 339.171 298.88 341.789C299.2 343.918 299.935 346.01 300.689 348.044C303.948 356.767 306.661 365.622 308.978 374.646C309.619 377.17 310.956 379.525 311.955 381.955C315.534 390.735 320.169 398.986 325.142 407.012C325.538 407.672 326.009 408.331 326.235 409.047C326.706 410.46 325.35 411.703 323.824 411.308C322.335 410.95 320.659 410.855 320.47 408.783C315.591 404.017 312.784 398.007 310.014 391.922C308.733 389.096 307.151 386.42 305.851 383.613C302.139 375.569 299.709 367.072 297.279 358.576C296.939 357.37 296.412 356.239 296.035 355.071C293.831 348.421 292.475 341.563 291.815 334.612C291.533 331.729 291.608 328.79 292.644 325.908C293.661 323.157 294.359 320.275 295.621 317.581C296.016 316.733 296.299 315.847 296.506 314.924C296.732 313.945 297.655 312.682 296.393 312.023C295.451 311.533 294.264 312.155 293.398 312.795C291.759 313.982 290.214 315.263 288.65 316.526C285.259 319.238 281.698 321.744 278.665 324.89C277.572 325.983 276.536 327.095 275.783 328.489C274.464 330.938 272.844 333.236 271.45 335.648C269.886 338.342 268.624 341.111 267.776 344.144C266.005 350.588 264.573 357.031 264.29 363.794C264.046 369.879 264.46 375.87 264.818 381.88C265.044 386.025 266.231 390.113 266.645 394.258C267.286 400.55 267.832 406.899 268.021 413.229C268.115 416.149 267.55 419.126 266.89 421.971C265.402 428.47 264.234 435.027 262.162 441.394C261.012 444.955 260.24 448.516 260.579 452.359C260.956 456.315 259.317 459.65 256.076 462.061C255.718 462.344 255.285 462.476 254.814 462.193C254.343 461.911 254.192 461.459 254.287 461.025C254.72 458.595 255.549 456.146 255.568 453.716C255.662 447.593 257.018 441.752 258.563 435.874C260.428 428.81 261.37 421.575 261.917 414.322C262.105 411.722 261.841 409.047 261.502 406.447C260.221 396.462 258.205 386.571 257.395 376.53C256.905 370.35 257.131 364.171 257.697 357.954C258.186 352.641 259.712 347.611 261.163 342.543C261.841 340.169 262.84 337.852 264.083 335.704C265.948 332.483 268.096 329.431 270.206 326.379C272.505 323.025 275.594 320.425 278.759 317.901C279.532 317.279 280.794 317.072 281.001 315.81C277.252 315.301 275.293 315.414 272.994 316.62C268.058 319.257 262.802 321.16 257.942 323.948C255.361 325.437 252.949 327.095 250.669 328.922C245.583 332.954 240.59 337.155 235.278 340.923C234.524 341.45 233.865 342.147 233.243 342.844C229.965 346.349 226.687 349.89 223.446 353.432C222.919 353.998 222.467 354.638 222.052 355.279C219.188 359.687 216.231 364.039 213.574 368.579C211.86 371.499 210.654 374.74 209.109 377.792C205.059 385.723 199.991 392.901 193.604 399.137C190.175 402.491 186.652 405.75 183.506 409.424C180.793 412.626 177.496 415.245 173.86 417.412C171.204 419.013 168.698 420.84 166.117 422.517C161.445 425.531 156.453 428.113 150.669 428.357C149.765 428.395 148.804 428.263 147.918 428.094C146.957 427.924 146.694 426.756 147.24 425.871C147.937 424.721 149.011 424.1 150.217 423.798C154.211 422.743 157.583 420.614 160.823 418.165C164.554 415.377 168.416 412.796 172.165 410.064C173.54 409.066 174.934 408.011 176.046 406.748C178.702 403.715 181.905 401.266 184.486 398.12C186.728 395.388 189.516 393.09 192.21 390.772C193.284 389.849 194.169 388.813 194.998 387.683C198.804 382.408 202.666 377.227 205.398 371.217C207.301 367.016 210.127 363.248 212.519 359.273C213.405 357.822 214.29 356.371 215.119 354.864C216.645 352.132 218.322 349.551 220.677 347.46C221.242 346.97 221.807 346.405 222.203 345.746C224.369 342.298 227.176 339.416 230.115 336.627C231.246 335.572 232.395 334.574 233.714 333.707C235.522 332.501 237.218 331.107 238.801 329.638C243.435 325.267 248.428 321.33 253.834 317.957C258.168 315.244 262.896 313.191 267.587 311.137C269.132 310.459 270.696 309.8 272.241 309.084C273.673 308.406 275.161 308.085 276.725 307.953C277.799 307.859 278.929 307.897 279.946 307.558C283.488 306.428 287.03 305.335 290.666 304.562C291.062 304.468 291.363 304.054 291.928 303.602C290.233 302.434 288.537 301.981 286.747 301.661C282.753 300.945 278.759 300.455 274.728 300.606C270.997 300.757 267.286 300.361 263.575 300.305C256.679 300.192 249.972 301.209 243.642 304.186C241.4 305.222 239.14 306.277 236.992 307.52C231.962 310.44 226.461 312.023 220.828 313.285C218.284 313.869 215.609 314.208 212.99 314.189C208.318 314.152 203.74 314.698 199.2 315.772C188.028 318.391 176.818 320.783 165.722 323.703C158.694 325.531 151.837 328.055 144.96 330.448C141.475 331.673 138.159 333.444 134.844 335.064C128.984 337.946 122.805 340.019 116.984 342.901C114.553 344.088 111.972 344.521 109.391 344.992C108.072 345.256 106.622 345.011 105.228 344.86C104.436 344.785 103.852 344.239 103.419 343.541C102.816 342.562 103.118 341.168 104.135 340.791C104.851 340.527 105.623 340.32 106.396 340.188C110.559 339.453 114.365 337.758 118.246 336.213C124.727 333.613 130.925 330.429 137.217 327.377C141.663 325.229 146.411 323.685 151.046 321.914C154.945 320.425 158.883 319.05 162.82 317.637C167.361 315.998 171.995 314.868 176.705 313.813C181.227 312.795 185.842 312.136 190.138 310.177C194.132 308.368 198.597 308.198 202.836 307.388C206.924 306.616 211.106 306.201 215.27 305.806C222.24 305.165 228.928 303.338 235.146 299.796C238.066 298.119 241.381 297.027 244.641 296.103C252.591 293.843 260.673 292.467 269 293.522C269.302 293.56 269.622 293.617 269.924 293.541C270.866 293.315 272.41 294.031 272.58 292.618C272.693 291.676 271.242 291.582 270.451 291.13C266.834 289.02 263.235 286.929 259.298 285.478C255.097 283.914 250.914 282.294 246.581 281.013C243.19 280.033 239.855 278.696 236.672 277.17C232.885 275.342 229.098 273.59 225.142 272.196C224.143 271.838 223.182 271.292 222.203 270.84C217.851 268.824 213.706 266.337 209.411 264.189C204.136 261.589 199.539 257.784 195.206 253.79C193.51 252.207 192.059 250.38 190.533 248.628C185.258 242.637 179.06 237.757 172.089 233.876C164.912 229.863 157.979 225.493 151.121 220.971C148.804 219.445 146.279 218.126 143.698 217.165C138.593 215.263 133.694 212.964 128.853 210.534C125.612 208.914 122.918 206.596 120.412 204.053C119.866 203.507 119.452 202.828 119.056 202.169C118.83 201.792 118.623 201.321 119.018 200.888C119.376 200.53 119.753 200.417 120.224 200.624C121.354 201.114 122.579 201.51 123.615 202.169C127.213 204.486 131.245 205.541 135.277 206.709C137.651 207.388 140.1 207.953 142.248 209.272C142.888 209.648 143.679 209.837 144.433 210.025C149.633 211.269 154.305 213.68 158.864 216.355C163.536 219.106 168.227 221.8 172.805 224.72C177.76 227.866 182.828 230.862 187.236 234.818C189.422 236.778 191.72 238.624 194 240.527C195.695 241.921 197.071 243.597 198.54 245.18C203.062 249.89 207.922 254.185 213.781 257.218C216.664 258.707 219.603 260.139 222.391 261.796C226.385 264.208 230.831 265.564 234.901 267.75C241.89 271.499 249.746 272.949 257.018 275.926C261.578 277.81 266.193 279.525 270.696 281.616C275.142 283.688 279.381 286.307 284.223 287.607C286.107 288.134 287.84 289.265 290.101 290.357C289.046 286.816 287.539 283.99 285.805 281.427C282.923 277.188 280.681 272.573 277.968 268.24C274.049 261.91 270.413 255.41 266.74 248.948C263.367 243.013 260.202 236.947 256.679 231.126C253.175 225.285 249.332 219.633 245.62 213.925C241.739 207.934 237.896 201.943 234.204 195.801C230.059 188.906 225.707 182.105 221.091 175.492C214.064 165.451 206.792 155.579 199.576 145.688C192.248 135.646 185.824 125.04 179.23 114.527C179.079 114.264 178.891 114 178.796 113.717C178.608 113.265 178.608 112.813 178.966 112.417C179.475 111.871 180.153 111.909 180.643 112.21C181.415 112.719 182.112 113.34 182.734 114.037C184.957 116.637 187.481 119.049 189.196 121.969C191.099 125.191 194.151 127.376 196.072 130.541C198.013 133.687 200.518 136.494 202.836 139.414C208.261 146.234 212.877 153.601 217.851 160.722C222.542 167.448 227.233 174.211 231.415 181.295C235.748 188.642 240.515 195.707 245.018 202.96C249.765 210.609 254.833 218.013 259.863 225.493C260.541 226.51 261.201 227.546 261.841 228.601C264.517 232.934 267.324 237.211 270.037 241.544C270.941 242.976 271.657 244.558 272.561 245.99C275.783 251.096 278.967 256.239 282.339 261.231C284.43 264.34 285.937 267.769 287.595 271.084C290.496 276.925 293.793 282.52 297.184 288.097C298.39 290.094 299.276 292.26 300.349 294.314C300.689 294.954 300.877 295.783 302.083 296.047C302.573 294.276 302.686 292.505 302.516 290.64C302.215 287.55 301.988 284.461 301.725 281.371C301.668 280.749 301.574 280.127 301.612 279.525C301.706 277.019 302.931 274.702 302.007 271.97C301.235 269.69 301.197 267.053 301.386 264.604C301.838 258.688 300.783 252.848 301.028 246.951C301.197 242.787 300.613 238.586 300.331 234.423C299.954 228.545 299.483 222.685 299.163 216.789C298.71 208.122 297.844 199.494 296.789 190.903C296.242 186.626 295.922 182.274 294.735 178.073C294.17 176.001 293.982 173.778 293.85 171.611C293.548 166.487 292.38 161.513 291.193 156.558C290.591 153.996 290.101 151.396 289.554 148.815C289.46 148.344 289.441 147.873 289.272 147.44C286.728 140.94 285.636 133.97 282.659 127.602C281.755 125.643 280.945 123.551 281.774 121.328C281.811 121.366 281.849 121.366 281.905 121.385L281.868 121.234ZM300.481 184.573L300.745 184.535L300.632 184.347L300.481 184.573ZM266.853 297.403L266.89 297.705L267.135 297.535L266.853 297.403Z" fill="#A94C2E"/>
</svg>
