<svg width="269" height="384" viewBox="0 0 269 384" fill="none" xmlns="http://www.w3.org/2000/svg">
<path d="M176.67 283.494C170.19 233.322 96.9361 254.052 49.8955 251.349C46.8625 251.18 46.8619 246.743 49.8949 246.547C129.385 241.517 224.205 209.809 187.057 155.167C161.51 117.602 109.933 208.193 33.6045 233.177C30.9227 234.061 29.181 230.382 31.5538 228.852C149.636 152.845 167.513 62.7549 113.733 62.7477C61.0757 62.7407 78.6658 135.957 18.8017 212.842C17.0608 215.089 13.5641 213.024 14.6871 210.413C82.039 54.0235 -30.7076 20.0131 -12.9588 124.08C1.55782 209.273 -15.9048 249.487 -23.7946 262.517C-25.6617 265.62 -25.1838 269.58 -22.6278 272.136C-19.5804 275.183 -15.3117 274.341 -11.5909 272.193C58.0372 232.282 184.387 343.383 176.656 283.48L176.67 283.494Z" fill="#A7D4BD"/>
<path d="M-15.7627 265.046C-16.0998 264.709 -16.1981 264.189 -16.0016 263.74C24.1881 173.189 8.61777 84.0497 8.44915 83.151C8.33673 82.5051 8.75793 81.9154 9.38979 81.7891C10.0357 81.6769 10.6395 82.0841 10.752 82.7301C10.9065 83.6147 26.0412 170.101 -11.6492 259.528C59.4356 192.207 115.224 88.4451 115.8 87.392C116.108 86.8304 116.811 86.6058 117.386 86.9008C117.962 87.2238 118.173 87.9119 117.878 88.4875C117.302 89.5687 59.1696 197.669 -14.1339 265.074C-14.541 265.453 -15.1588 265.481 -15.6082 265.172C-15.6503 265.13 -15.6925 265.088 -15.7487 265.032L-15.7627 265.046Z" fill="#A94C2E"/>
<path d="M-15.7626 265.046C-15.903 264.905 -16.0013 264.723 -16.0716 264.512C-16.2402 263.894 -15.8751 263.248 -15.2573 263.08C66.9266 240.498 170.925 170.007 171.964 169.306C172.498 168.941 173.242 169.067 173.593 169.615C173.958 170.148 173.818 170.878 173.284 171.243C172.33 171.889 84.7164 231.275 6.56313 258.674C87.1477 246.623 151.927 282.396 152.644 282.803C153.205 283.112 153.416 283.828 153.093 284.404C152.784 284.966 152.054 285.162 151.493 284.853C150.734 284.432 74.7903 242.521 -14.6392 265.355C-15.0604 265.467 -15.4817 265.327 -15.7626 265.046Z" fill="#A94C2E"/>
</svg>
