<svg width="88" height="85" viewBox="0 0 88 85" fill="none" xmlns="http://www.w3.org/2000/svg">
<g clip-path="url(#clip0_6927_87)" filter="url(#filter0_d_6927_87)">
<path d="M83.5689 32.0889C84.4142 31.2249 83.9471 29.7202 82.7783 29.5421L57.608 25.7124C57.3759 25.6748 57.1567 25.5808 56.9695 25.4385C56.7823 25.2963 56.6329 25.1103 56.5346 24.8967L45.1564 0.751436C45.0569 0.527888 44.8947 0.337979 44.6895 0.2047C44.4843 0.0714215 44.2449 0.000488281 44.0002 0.000488281C43.7555 0.000488281 43.516 0.0714215 43.3108 0.2047C43.1056 0.337979 42.9434 0.527888 42.8439 0.751436L31.4658 24.8967C31.3674 25.1103 31.2181 25.2963 31.0309 25.4385C30.8437 25.5808 30.6244 25.6748 30.3924 25.7124L5.22205 29.5421C4.0533 29.7202 3.58612 31.2249 4.43143 32.0889L22.6971 50.7311C22.8477 50.8877 22.9596 51.0773 23.0239 51.2849C23.0882 51.4924 23.1031 51.7121 23.0674 51.9264L18.7564 78.2514C18.5564 79.4702 19.7783 80.4014 20.8236 79.8249L43.3377 67.4311C43.5405 67.319 43.7684 67.2601 44.0002 67.2601C44.2319 67.2601 44.4599 67.319 44.6627 67.4311L67.1767 79.8249C68.2221 80.4014 69.4439 79.4702 69.2439 78.2514L64.9377 51.9264C64.902 51.7121 64.9169 51.4924 64.9811 51.2849C65.0454 51.0773 65.1574 50.8877 65.308 50.7311L83.5689 32.0889Z" fill="#FEB833"/>
<path d="M68.2189 71.9674C45.8611 68.144 28.5314 49.4393 26.5517 26.2971L5.22205 29.5424C4.0533 29.7206 3.58612 31.2252 4.43143 32.0893L22.6971 50.7315C22.8477 50.8881 22.9596 51.0777 23.0239 51.2853C23.0882 51.4928 23.1031 51.7125 23.0674 51.9268L18.7564 78.2518C18.5564 79.4706 19.7783 80.4018 20.8236 79.8252L43.3377 67.4315C43.5405 67.3193 43.7684 67.2605 44.0002 67.2605C44.2319 67.2605 44.4599 67.3193 44.6627 67.4315L67.1767 79.8252C68.2221 80.4018 69.4439 79.4706 69.2439 78.2518L68.2189 71.9674Z" fill="#EA9D0A"/>
<path d="M44.261 63.0159C41.7722 62.9712 39.3178 62.4265 37.0438 61.4144C35.167 60.5853 33.4645 59.4077 32.0266 57.944C30.3078 56.18 28.9797 53.9925 28.0938 51.4394C28.0047 51.2034 27.4813 49.6581 28.2719 48.5112C28.6 48.0331 29.2782 47.4644 30.6328 47.4644C30.737 47.4644 30.8464 47.4675 30.961 47.4737C31.02 47.4784 31.0785 47.4878 31.136 47.5019C35.6853 48.5731 40.342 49.1214 45.0157 49.1362C49.0438 49.1362 52.7266 48.6831 55.9625 47.7894C56.4745 47.6372 57.0051 47.5568 57.5391 47.5503C58.7063 47.5503 59.3313 48.019 59.6485 48.4128C60.1422 49.0237 60.2735 49.8769 60.0469 50.9487C60.0469 50.9581 60.0469 50.969 60.0391 50.9784C59.4146 53.1205 58.3839 55.1225 57.0032 56.8753C54.8907 59.58 51.0047 62.8409 44.4797 63.0206C44.4578 63.0128 44.3828 63.0159 44.261 63.0159Z" fill="#EA9D0A"/>
<path d="M59.1564 50.7596C59.1564 50.7596 56.4017 61.7814 44.4454 62.108C44.4454 62.108 32.9095 62.5768 28.9392 51.133C28.9392 51.133 28.1579 49.0674 29.711 48.508C30.0949 48.3842 30.5 48.3395 30.9017 48.3768C30.9017 48.3768 44.3985 51.9268 56.2142 48.658C56.2142 48.658 57.4017 48.2768 58.2907 48.5596C58.9626 48.7705 59.4689 49.3564 59.1564 50.7596Z" fill="#3F3F46"/>
<path d="M58.189 49.8439C58.1015 50.258 57.5062 53.8861 54.7656 54.7252C54.7656 54.7252 48.3484 56.4986 36.2515 55.1049C35.4921 55.0174 33.3078 54.6158 32.1625 53.783C31.406 53.1274 30.7969 52.3192 30.3751 51.4114C29.9534 50.5035 29.7286 49.5167 29.7156 48.5158C30.0995 48.392 30.5045 48.3473 30.9062 48.3846C30.9062 48.3846 44.4031 51.9346 56.2187 48.6658C56.2187 48.6658 57.4062 48.2846 58.2953 48.5674C58.3749 48.8486 58.2937 49.3408 58.189 49.8439Z" fill="white"/>
<path d="M48.8657 37.5002C48.8657 37.5002 47.2486 38.8424 48.6829 40.3377C48.6829 40.3377 49.9032 42.0768 51.1829 40.7643L54.4204 37.5002C54.4204 37.5002 55.1829 36.9205 55.9829 37.5002L60.4673 41.2502C60.4673 41.2502 63.0923 42.1877 61.2314 39.244C61.2314 39.244 57.8439 34.5049 55.8611 33.4361C55.8611 33.4361 53.6017 32.0018 51.8626 34.1377L48.8657 37.5002Z" fill="#18181B"/>
<path d="M40.0938 37.5002C40.0938 37.5002 41.711 38.8424 40.2782 40.3377C40.2782 40.3377 39.0563 42.0768 37.7782 40.7643L34.5376 37.5002C34.5376 37.5002 33.7751 36.9205 32.9751 37.5002L28.4891 41.2502C28.4891 41.2502 25.8657 42.1877 27.7266 39.244C27.7266 39.244 31.1141 34.5049 33.0969 33.4361C33.0969 33.4361 35.3547 32.0018 37.0954 34.1377L40.0938 37.5002Z" fill="#18181B"/>
</g>
<defs>
<filter id="filter0_d_6927_87" x="0" y="0" width="88" height="88" filterUnits="userSpaceOnUse" color-interpolation-filters="sRGB">
<feFlood flood-opacity="0" result="BackgroundImageFix"/>
<feColorMatrix in="SourceAlpha" type="matrix" values="0 0 0 0 0 0 0 0 0 0 0 0 0 0 0 0 0 0 127 0" result="hardAlpha"/>
<feOffset dy="4"/>
<feGaussianBlur stdDeviation="2"/>
<feComposite in2="hardAlpha" operator="out"/>
<feColorMatrix type="matrix" values="0 0 0 0 0 0 0 0 0 0 0 0 0 0 0 0 0 0 0.25 0"/>
<feBlend mode="normal" in2="BackgroundImageFix" result="effect1_dropShadow_6927_87"/>
<feBlend mode="normal" in="SourceGraphic" in2="effect1_dropShadow_6927_87" result="shape"/>
</filter>
<clipPath id="clip0_6927_87">
<rect width="80" height="80" fill="white" transform="translate(4)"/>
</clipPath>
</defs>
</svg>
