<svg width="91" height="47" viewBox="0 0 91 47" fill="none" xmlns="http://www.w3.org/2000/svg">
<g opacity="0.5">
<path d="M90.8988 32.3649L89.6003 30.1163C90.8988 29.5541 90.8988 28.992 90.3794 26.1812C90.3794 26.7433 88.5614 17.1868 89.86 19.9975C88.8211 17.7489 90.3794 16.6246 88.042 13.8138C86.224 11.5652 83.6269 12.1274 81.8089 9.87877C77.6536 4.8194 71.1608 -0.239977 65.9666 0.884328C58.9544 2.00863 49.6048 -2.48859 42.8523 3.13294C43.3717 3.13294 43.6314 3.69509 43.6314 4.25724C43.6314 5.38155 15.0632 5.9437 12.4661 7.63016C13.5049 8.75446 14.8035 7.63016 15.5826 8.75446C12.7258 11.0031 9.08983 10.4409 6.23301 12.1274C6.23301 12.1274 8.57041 12.1274 8.31069 12.6895C8.05098 13.2517 6.75243 13.8138 6.23301 14.376C9.34954 16.0624 13.7646 9.87877 17.4006 13.2517C17.1409 14.376 16.8812 14.376 16.3617 14.376C16.8812 15.5003 19.738 13.8138 19.738 14.9381L9.08983 16.0624C9.34954 15.5003 9.60925 15.5003 9.86896 14.9381C6.75243 15.5003 4.15532 17.1868 1.03878 18.8732C1.81792 18.8732 12.4661 14.9381 12.7258 17.1868C12.7258 17.1868 9.34954 18.8732 9.08983 18.8732C11.6869 20.5597 7.01214 19.4354 6.23301 19.9975C7.01214 20.5597 5.97329 19.4354 5.71358 20.5597C7.53156 20.5597 9.08983 18.8732 10.6481 20.5597C9.34954 21.1218 4.41503 20.5597 3.63589 22.8083C3.37618 23.9326 6.75243 23.3704 6.23301 23.3704C6.23301 25.619 0.25965 24.4947 -6.10352e-05 26.7433C3.37618 29.5541 9.86896 24.4947 13.5049 23.9326C11.4272 27.8677 4.67474 22.8083 3.11647 27.8677C5.97329 27.3055 7.79127 26.1812 10.1287 26.1812C9.34954 27.3055 7.53156 27.3055 6.75243 27.3055C7.27185 27.3055 7.53156 27.3055 7.01214 27.8677C7.79127 28.4298 13.2452 25.619 13.5049 27.8677C10.1287 30.1163 3.11647 26.1812 0.25965 31.2406C1.55821 32.3649 3.11647 29.5541 4.67474 30.6784C4.15532 31.8027 3.89561 31.8027 3.37618 32.3649C5.97329 32.927 2.59705 32.927 5.45387 32.927C4.41503 33.4892 3.63589 33.4892 2.59705 34.0513C3.89561 35.1756 6.23301 34.0513 7.79127 34.0513C7.27185 34.0513 7.01214 34.6135 6.49272 34.6135C6.23301 34.6135 9.08983 34.6135 9.08983 34.6135C9.08983 35.1756 3.89561 35.7378 4.15532 36.8621C5.19416 36.2999 7.53156 35.7378 8.57041 36.8621C8.83012 36.2999 17.4006 37.9864 19.4783 37.9864C19.2186 39.1107 16.3617 39.6729 15.5826 40.235C16.102 40.235 17.1409 39.6729 17.6603 40.7972C16.102 41.3593 14.5438 41.9215 12.9855 43.0458C13.7646 44.7322 22.3351 42.4836 23.3739 41.3593C22.5948 40.7972 18.4394 41.3593 18.1797 40.235C18.1797 39.6729 30.6458 37.9864 30.6458 39.6729C29.8667 40.7972 29.0876 41.3593 27.789 41.9215C30.1264 42.4836 32.4638 41.3593 35.0609 41.3593C37.3983 41.3593 39.9954 38.5485 36.8789 42.4836C43.3717 43.0458 50.1242 40.7972 56.617 42.4836C59.7335 43.0458 72.9788 43.0458 73.2385 45.2944C73.4982 48.6673 88.5614 43.6079 90.1197 41.3593C89.3406 40.7972 89.86 41.3593 90.1197 40.235C89.86 39.6729 89.6003 39.6729 89.0808 39.6729C89.86 39.1107 90.6391 36.2999 89.0808 34.6135C89.0808 34.6135 91.4182 32.927 90.8988 32.3649ZM9.60925 12.1274C8.31069 12.1274 10.1287 12.1274 9.60925 12.1274C9.34954 12.1274 9.60925 12.1274 9.60925 12.1274ZM10.1287 12.1274C10.1287 11.5652 10.3884 11.5652 10.6481 11.5652C10.3884 12.1274 10.1287 11.5652 10.1287 12.1274ZM11.1675 11.5652C11.1675 12.6895 11.4272 11.0031 11.1675 11.5652V11.5652ZM11.6869 11.5652H11.9466C11.9466 11.5652 11.9466 11.5652 11.6869 11.5652ZM7.01214 16.6246C5.97329 17.7489 8.57041 15.5003 7.01214 16.6246C6.75243 17.1868 7.27185 16.6246 7.01214 16.6246ZM7.53156 16.0624C7.79127 15.5003 8.31069 15.5003 8.83012 16.0624C8.31069 16.0624 8.05098 16.0624 7.53156 16.0624C8.05098 16.6246 7.53156 16.0624 7.53156 16.0624ZM10.6481 19.9975C10.1287 20.5597 11.1675 19.9975 10.6481 19.9975V19.9975ZM10.9078 22.2461C9.60925 22.8083 7.01214 25.0569 6.23301 23.3704C6.75243 22.8083 11.1675 22.2461 10.9078 22.2461ZM10.6481 26.1812C10.1287 26.1812 11.1675 26.1812 10.6481 26.1812V26.1812ZM12.7258 26.1812C12.4661 25.619 13.2452 26.1812 12.7258 26.1812C12.7258 26.1812 12.9855 26.1812 12.7258 26.1812ZM10.6481 29.5541C10.3884 29.5541 11.4272 28.4298 10.6481 29.5541C10.3884 29.5541 10.6481 28.992 10.6481 29.5541ZM8.57041 29.5541C8.83012 29.5541 9.08983 29.5541 9.60925 29.5541C9.08983 30.1163 8.05098 29.5541 8.57041 29.5541ZM6.75243 30.1163C7.27185 29.5541 7.53156 29.5541 8.05098 30.1163C8.05098 31.2406 5.97329 30.1163 6.75243 30.1163ZM4.67474 30.6784C5.19416 29.5541 5.71358 29.5541 6.23301 30.6784C5.45387 31.2406 4.93445 30.6784 4.67474 30.6784ZM4.93445 31.8027C5.19416 31.8027 5.19416 31.8027 5.45387 31.8027C5.45387 32.3649 5.19416 31.8027 4.93445 31.8027ZM5.45387 31.8027C5.71358 31.8027 5.71358 31.8027 5.97329 31.8027C5.97329 31.8027 5.71358 31.8027 5.45387 31.8027ZM5.71358 32.927C5.97329 32.3649 6.49272 32.3649 7.01214 32.3649C6.75243 32.927 6.23301 32.927 5.71358 32.927ZM8.31069 34.0513C8.05098 34.0513 8.83012 33.4892 8.31069 34.0513C8.31069 34.0513 8.57041 34.0513 8.31069 34.0513ZM7.53156 32.3649C8.57041 31.8027 9.34954 31.8027 10.3884 31.8027C9.34954 32.3649 8.57041 32.3649 7.53156 32.3649ZM9.34954 33.4892C9.60925 33.4892 9.86896 33.4892 10.1287 32.927C9.86896 33.4892 9.86896 33.4892 9.34954 33.4892ZM10.1287 32.927C10.3884 32.927 10.3884 32.927 10.6481 32.927C10.3884 33.4892 10.3884 33.4892 10.1287 32.927ZM10.6481 35.1756C10.6481 34.0513 10.6481 35.7378 10.6481 35.1756V35.1756ZM10.9078 37.9864C10.1287 37.9864 12.7258 37.4242 10.9078 37.9864C10.9078 37.9864 11.1675 37.9864 10.9078 37.9864ZM11.9466 34.6135C11.9466 34.0513 13.2452 34.0513 13.2452 34.0513C12.7258 34.6135 12.2064 34.6135 11.9466 34.6135C12.2064 35.1756 11.9466 34.0513 11.9466 34.6135ZM12.9855 31.2406C12.9855 31.2406 13.2452 32.3649 12.9855 31.2406C12.9855 31.2406 12.9855 31.8027 12.9855 31.2406ZM18.1797 39.6729C17.92 39.6729 18.4394 39.6729 18.1797 39.6729V39.6729ZM24.4128 34.0513C24.1531 35.1756 24.4128 32.3649 24.4128 34.0513C24.4128 33.4892 24.4128 34.0513 24.4128 34.0513ZM23.3739 34.0513C23.1142 32.927 23.1142 35.1756 23.3739 34.0513V34.0513ZM22.5948 34.0513C22.5948 33.4892 22.5948 34.6135 22.5948 34.0513V34.0513ZM14.5438 21.684C14.284 22.2461 14.0243 22.2461 13.7646 22.2461C14.0243 21.684 14.0243 21.684 14.5438 21.684ZM14.0243 19.9975C14.284 19.4354 14.5438 21.1218 14.0243 19.9975C14.284 19.9975 14.284 19.9975 14.0243 19.9975ZM14.8035 21.684C14.8035 21.684 14.8035 22.2461 14.8035 21.684V21.684ZM16.6215 17.7489C16.6215 18.3111 17.1409 17.1868 16.6215 17.7489C16.6215 17.1868 16.6215 17.7489 16.6215 17.7489ZM22.0754 16.0624C21.2962 16.6246 20.7768 16.6246 19.9977 16.0624C20.5171 16.0624 21.556 16.0624 22.0754 16.0624ZM19.9977 14.9381C20.5171 13.2517 20.7768 16.6246 19.9977 14.9381C19.9977 14.9381 20.2574 15.5003 19.9977 14.9381ZM20.7768 13.8138C21.2962 13.8138 21.556 14.376 21.8157 14.9381C21.8157 15.5003 20.5171 15.5003 20.7768 13.8138C21.0365 14.376 20.7768 13.8138 20.7768 13.8138ZM22.3351 14.9381C21.556 15.5003 23.3739 14.376 22.3351 14.9381C22.3351 14.9381 22.5948 14.9381 22.3351 14.9381ZM23.3739 16.6246C22.0754 12.6895 24.6725 18.3111 24.9322 17.1868C24.9322 17.7489 21.0365 17.7489 20.5171 17.1868C21.2962 17.1868 22.3351 16.6246 23.3739 16.6246C23.1142 16.0624 22.3351 17.1868 23.3739 16.6246ZM27.789 16.0624C27.789 15.5003 28.0487 17.1868 27.789 16.0624C27.789 16.0624 27.789 16.6246 27.789 16.0624ZM25.1919 16.6246C23.1142 17.7489 25.7113 16.0624 25.1919 16.6246C24.9322 16.6246 25.1919 16.6246 25.1919 16.6246ZM23.8934 14.9381C24.1531 14.376 24.1531 14.376 24.6725 14.9381C24.4128 14.9381 24.1531 14.9381 23.8934 14.9381ZM14.0243 23.3704C13.7646 23.3704 15.0632 24.4947 14.0243 23.3704C14.0243 23.3704 14.284 23.9326 14.0243 23.3704ZM87.0032 18.8732C86.4837 18.8732 87.2629 18.8732 87.0032 18.8732C86.7434 18.8732 87.0032 18.8732 87.0032 18.8732ZM63.3694 3.13294C62.3306 3.69509 61.2918 3.69509 60.5126 3.13294C61.2918 3.13294 62.3306 3.13294 63.3694 3.13294ZM58.6946 2.57079C59.2141 2.57079 59.7335 2.57079 59.9932 2.57079C57.6558 5.38155 58.6946 2.57079 58.6946 2.57079ZM34.5415 12.6895C34.0221 12.6895 36.8789 13.2517 34.5415 12.6895C34.5415 12.6895 34.8012 13.2517 34.5415 12.6895ZM33.243 13.2517C32.9832 13.2517 32.7235 13.8138 32.2041 13.2517C32.7235 13.2517 32.9832 13.2517 33.243 13.2517ZM32.4638 16.0624C31.425 14.9381 33.243 16.6246 32.4638 16.0624C32.4638 16.0624 32.7235 16.0624 32.4638 16.0624ZM32.2041 12.1274C31.6847 12.6895 32.4638 12.6895 32.2041 12.1274C31.9444 12.1274 32.2041 12.1274 32.2041 12.1274ZM32.2041 13.2517C31.9444 13.8138 31.6847 13.8138 31.425 13.2517C31.6847 12.6895 31.6847 13.2517 32.2041 13.2517ZM30.6458 16.0624C29.8667 16.0624 31.1653 16.0624 30.6458 16.0624C30.6458 16.0624 30.9056 16.0624 30.6458 16.0624ZM29.8667 16.0624C30.1264 16.0624 28.5682 17.1868 28.8279 16.0624C29.0876 16.0624 29.3473 16.0624 29.8667 16.0624C29.3473 16.0624 29.3473 15.5003 29.8667 16.0624ZM28.8279 8.19231C28.5682 8.19231 29.0876 8.19231 28.8279 8.19231V8.19231ZM28.8279 13.2517C28.5682 13.2517 28.0487 13.2517 27.789 13.2517C28.0487 13.2517 28.3084 13.2517 28.8279 13.2517C28.5682 13.8138 28.3084 13.2517 28.8279 13.2517ZM27.2696 7.63016C27.0099 8.19231 28.0487 7.63016 27.2696 7.63016C27.2696 7.63016 27.2696 8.19231 27.2696 7.63016ZM26.7502 17.1868C24.9322 17.1868 26.4905 16.0624 26.7502 17.1868C26.4905 17.1868 26.7502 16.6246 26.7502 17.1868ZM25.4516 16.6246C25.9711 15.5003 26.4905 16.6246 25.4516 16.6246C25.7113 16.0624 25.7113 16.6246 25.4516 16.6246ZM26.4905 16.0624C26.2308 16.0624 26.7502 17.1868 26.4905 16.0624C26.4905 16.0624 26.4905 16.6246 26.4905 16.0624ZM26.7502 13.2517C26.4905 13.8138 25.4516 13.8138 25.1919 12.6895C25.7113 13.2517 26.2308 13.2517 26.7502 13.2517C26.4905 13.8138 26.2308 13.2517 26.7502 13.2517ZM25.1919 14.9381C24.6725 14.9381 24.9322 14.376 25.1919 14.9381C25.1919 14.376 25.1919 14.9381 25.1919 14.9381ZM23.8934 12.6895C24.1531 12.6895 24.4128 12.6895 24.9322 12.6895C24.9322 12.1274 23.3739 14.9381 22.8545 14.9381L23.8934 12.6895C24.1531 12.6895 23.8934 12.6895 23.8934 12.6895ZM23.8934 12.6895C22.5948 12.6895 23.6336 13.2517 23.8934 12.6895V12.6895ZM22.5948 12.6895C24.1531 12.1274 21.2962 13.8138 20.7768 13.8138C21.8157 12.6895 21.556 13.8138 22.5948 12.6895ZM21.0365 8.19231C20.7768 8.19231 20.7768 8.19231 20.5171 8.19231C20.7768 8.19231 21.0365 8.19231 21.0365 8.19231ZM18.4394 13.8138C17.92 14.9381 16.102 9.87877 18.9588 13.2517C17.92 13.2517 17.6603 13.2517 18.4394 13.8138C18.4394 13.8138 18.4394 13.2517 18.4394 13.8138ZM18.6991 13.8138C18.4394 12.6895 20.5171 13.2517 20.7768 13.2517C19.9977 14.376 19.4783 14.376 18.6991 13.8138C19.738 14.376 18.6991 13.8138 18.6991 13.8138ZM18.9588 16.6246C18.6991 16.6246 19.738 15.5003 18.9588 16.6246C18.9588 16.6246 19.2186 16.0624 18.9588 16.6246ZM18.1797 16.6246C17.6603 16.6246 18.6991 16.0624 18.1797 16.6246V16.6246ZM18.9588 17.1868C18.4394 17.1868 18.1797 17.1868 17.92 17.1868C18.1797 17.1868 18.4394 17.1868 18.9588 17.1868ZM16.8812 16.6246C16.3617 17.1868 16.102 17.1868 15.5826 16.6246C16.102 16.6246 16.3617 16.6246 16.8812 16.6246C16.6214 16.6246 16.3617 16.6246 16.8812 16.6246ZM14.0243 16.6246C13.5049 16.6246 14.5438 16.6246 14.0243 16.6246V16.6246ZM13.2452 17.7489C14.284 17.1868 15.3229 17.1868 16.3617 17.7489C15.8423 18.3111 11.6869 17.7489 13.2452 17.7489ZM11.9466 17.7489C11.6869 17.7489 11.6869 17.7489 11.4272 17.7489C11.6869 17.7489 11.9466 17.7489 11.9466 17.7489ZM11.4272 20.5597C11.6869 20.5597 11.6869 20.5597 12.2064 20.5597C11.9466 20.5597 11.9466 20.5597 11.4272 20.5597ZM11.9466 22.2461C12.4661 21.684 12.9855 21.684 13.5049 22.2461C12.9855 22.2461 12.4661 22.2461 11.9466 22.2461C12.4661 22.2461 12.4661 21.684 11.9466 22.2461ZM13.5049 34.6135C13.2452 34.6135 14.0243 34.6135 13.5049 34.6135C13.5049 34.6135 13.7646 34.6135 13.5049 34.6135ZM13.7646 31.2406C13.2452 31.8027 14.5438 31.2406 13.7646 31.2406V31.2406ZM14.284 34.6135C14.5438 34.0513 14.8035 34.0513 15.0632 34.6135C14.8035 35.1756 14.5438 34.6135 14.284 34.6135ZM14.8035 37.4242C14.284 36.8621 14.5438 37.4242 14.8035 37.4242C15.3229 36.8621 15.3229 36.8621 14.8035 37.4242ZM15.5826 31.2406C15.8423 31.2406 16.102 31.2406 16.102 31.2406C16.102 31.2406 16.102 31.2406 15.5826 31.2406ZM16.3617 34.6135C16.3617 34.6135 17.1409 34.6135 16.3617 34.6135C16.3617 34.6135 16.6215 34.6135 16.3617 34.6135ZM17.92 34.6135C15.5826 35.1756 18.4394 34.0513 17.92 34.6135C17.6603 34.6135 17.92 34.6135 17.92 34.6135ZM24.9322 37.9864C23.3739 37.9864 21.556 39.1107 19.9977 37.9864C19.738 38.5485 26.4905 37.9864 24.9322 37.9864ZM25.4516 30.6784C23.3739 30.6784 26.7502 30.1163 25.4516 30.6784C25.4516 30.6784 25.7113 30.6784 25.4516 30.6784ZM28.8279 32.3649C28.5682 32.3649 29.607 31.8027 28.8279 32.3649C28.8279 32.3649 29.0876 32.3649 28.8279 32.3649ZM30.6458 34.0513C30.1264 34.6135 30.9056 33.4892 30.6458 34.0513C30.6458 33.4892 30.6458 34.0513 30.6458 34.0513ZM30.6458 39.6729C30.6458 39.1107 30.9056 39.1107 31.1653 39.1107C31.1653 39.6729 30.9056 39.6729 30.6458 39.6729ZM31.9444 39.1107C31.1653 39.6729 32.2041 39.1107 31.9444 39.1107C31.6847 39.1107 31.9444 39.1107 31.9444 39.1107ZM33.243 39.1107C33.7624 39.1107 34.5415 39.1107 35.0609 39.1107C34.5415 39.6729 33.7624 39.6729 33.243 39.1107ZM37.658 39.1107C37.1386 39.1107 36.3595 39.1107 35.8401 39.1107C36.0998 37.9864 37.658 37.9864 37.658 39.1107C37.658 39.1107 37.1386 39.1107 37.658 39.1107ZM38.4372 39.1107C38.6969 38.5485 38.6969 39.1107 38.9566 39.1107C38.6969 39.1107 38.4372 39.1107 38.4372 39.1107ZM41.294 39.6729C41.0343 39.6729 41.5537 39.6729 41.294 39.6729V39.6729ZM42.3328 39.1107C42.5926 39.1107 42.8523 39.1107 43.112 39.1107C42.8523 39.1107 42.5926 39.1107 42.3328 39.1107ZM44.6702 38.5486C44.93 38.5486 44.93 38.5486 45.1897 38.5486C45.1897 39.1107 44.93 39.1107 44.6702 38.5486ZM45.9688 39.1107C45.4494 38.5485 46.4882 39.1107 45.9688 39.1107C45.9688 39.1107 46.2285 39.1107 45.9688 39.1107ZM48.0465 38.5486C47.7868 39.1107 48.0465 38.5486 48.0465 38.5486V38.5486ZM87.5226 32.3649C87.2629 32.927 87.5226 32.3649 87.5226 32.3649C87.2629 32.3649 87.5226 32.3649 87.5226 32.3649ZM88.3017 31.2406C87.7823 30.6784 88.8211 31.2406 88.3017 31.2406C88.3017 31.2406 88.5614 31.2406 88.3017 31.2406ZM89.0808 30.6784C88.8211 30.6784 89.6003 30.1163 89.0808 30.6784V30.6784ZM90.1197 32.3649C89.6003 31.8027 90.3794 32.3649 90.1197 32.3649V32.3649Z" fill="#A29BFE"/>
<path d="M26.493 1.44697C27.7915 2.00912 28.311 3.13342 29.6095 2.57127C29.3498 2.57127 29.0901 2.57127 28.8304 2.00912C29.0901 1.44697 29.3498 0.884815 29.8692 0.884815C29.0901 -0.239491 24.1556 0.322662 26.493 1.44697C26.7527 1.44697 26.2333 1.44697 26.493 1.44697Z" fill="#A29BFE"/>
<path d="M3.63423 4.25726C4.15365 4.81941 4.41336 4.25726 4.93278 3.69511C3.89394 3.69511 3.89394 3.69511 5.1925 2.5708C3.11481 3.13295 2.59538 3.69511 3.63423 4.25726Z" fill="#A29BFE"/>
<path d="M34.5417 1.44643C35.3209 1.44643 32.7238 0.884277 32.4641 0.884277C33.2432 1.44643 33.7626 1.44643 34.5417 1.44643Z" fill="#A29BFE"/>
<path d="M17.923 2.57145C17.6632 2.57145 16.3647 2.00929 16.3647 3.1336C16.8841 2.57145 17.4035 2.57145 17.923 2.57145C17.6632 2.57145 17.4035 2.57145 17.923 2.57145Z" fill="#A29BFE"/>
<path d="M8.57241 11.003C8.83212 11.003 9.09183 11.003 9.35155 10.4409C8.57241 9.31656 7.53357 12.1273 8.57241 11.003Z" fill="#A29BFE"/>
<path d="M15.0629 2.00929C15.5823 2.00929 15.5823 2.00929 15.3226 0.884989C15.842 0.322836 13.7644 2.00929 15.0629 2.00929Z" fill="#A29BFE"/>
<path d="M14.5492 9.3173C15.0686 8.75515 12.2118 11.0038 13.5103 9.3173C14.0298 9.87946 14.2895 9.87946 14.5492 9.3173Z" fill="#A29BFE"/>
<path d="M5.9737 11.0033C5.19457 11.0033 7.79168 10.4411 5.9737 11.0033C5.9737 11.0033 6.23341 11.0033 5.9737 11.0033Z" fill="#A29BFE"/>
<path d="M6.4931 11.5656C6.4931 11.0035 7.53195 10.4413 6.4931 11.5656C6.4931 11.0035 6.75281 11.5656 6.4931 11.5656Z" fill="#A29BFE"/>
<path d="M7.53077 11.0031C7.27106 9.8788 7.53077 11.0031 7.53077 11.0031V11.0031Z" fill="#A29BFE"/>
<path d="M14.5451 0.884277C14.2854 0.884277 14.0256 0.884277 13.7659 0.884277C14.0256 1.44643 14.2854 1.44643 14.5451 0.884277Z" fill="#A29BFE"/>
<path d="M5.97478 11.5658C4.67622 11.0036 5.97478 11.5658 5.97478 11.5658C5.71507 11.0036 5.97478 11.5658 5.97478 11.5658Z" fill="#A29BFE"/>
<path d="M10.1277 7.06846C9.86798 8.19276 10.1277 6.50631 10.1277 7.06846V7.06846Z" fill="#A29BFE"/>
<path d="M16.3635 5.38168C15.8441 5.38168 16.6232 4.81953 16.3635 5.38168C16.3635 5.38168 16.6232 5.38168 16.3635 5.38168Z" fill="#A29BFE"/>
</g>
</svg>
